<?xml version="1.0" encoding="UTF-8" standalone="no"?>
<svg
   xmlns:dc="http://purl.org/dc/elements/1.1/"
   xmlns:cc="http://creativecommons.org/ns#"
   xmlns:rdf="http://www.w3.org/1999/02/22-rdf-syntax-ns#"
   xmlns:svg="http://www.w3.org/2000/svg"
   xmlns="http://www.w3.org/2000/svg"
   xmlns:sodipodi="http://sodipodi.sourceforge.net/DTD/sodipodi-0.dtd"
   xmlns:inkscape="http://www.inkscape.org/namespaces/inkscape"
   width="512"
   height="192"
   viewBox="0 0 135.46666 50.8"
   version="1.1"
   id="svg8"
   inkscape:version="1.0.1 (3bc2e81, 2020-09-07)"
   sodipodi:docname="domain-light-monochrome.svg">
  <defs
     id="defs2" />
  <sodipodi:namedview
     id="base"
     pagecolor="#ffffff"
     bordercolor="#666666"
     borderopacity="1.0"
     inkscape:pageopacity="0.0"
     inkscape:pageshadow="2"
     inkscape:zoom="0.84956659"
     inkscape:cx="186.99804"
     inkscape:cy="144.96079"
     inkscape:document-units="px"
     inkscape:current-layer="g2461"
     inkscape:document-rotation="0"
     showgrid="false"
     units="px"
     inkscape:window-width="1920"
     inkscape:window-height="1026"
     inkscape:window-x="0"
     inkscape:window-y="32"
     inkscape:window-maximized="1" />
  <metadata
     id="metadata5">
    <rdf:RDF>
      <cc:Work
         rdf:about="">
        <dc:format>image/svg+xml</dc:format>
        <dc:type
           rdf:resource="http://purl.org/dc/dcmitype/StillImage" />
        <dc:title />
      </cc:Work>
    </rdf:RDF>
  </metadata>
  <g
     inkscape:label="Layer 1"
     inkscape:groupmode="layer"
     id="layer1">
    <g
       id="g2461">
      <g
         id="g2483">
        <g
           id="g2444"
           transform="matrix(1.0220168,0,0,1.0220168,-0.56174631,-0.55922588)"
           style="fill:#ffffff;fill-opacity:1">
          <path
             id="path833-6-3"
             style="fill:#ffffff;fill-opacity:1;stroke:none;stroke-width:0.356133;stop-color:#000000"
             d="M 25.514417,8.0267161 A 17.373285,17.373285 0 0 0 8.1411295,25.399999 17.373285,17.373285 0 0 0 25.514417,42.773282 17.373285,17.373285 0 0 0 42.8877,25.399999 H 25.514417 Z M 42.8877,25.399999 a 17.373285,17.373285 0 0 0 -2.57e-4,-0.09132 17.373287,17.373285 0 0 1 2.57e-4,0.09132 z M 26.051234,8.0350653 a 17.373287,17.373285 0 0 1 0.0782,0.0028 17.373285,17.373285 0 0 0 -0.0782,-0.0028 z m 0.820469,0.044821 a 17.373287,17.373285 0 0 1 0.06229,0.00466 17.373285,17.373285 0 0 0 -0.06229,-0.00466 z m 0.454638,0.041653 a 17.373287,17.373285 0 0 1 0.07794,0.00839 17.373285,17.373285 0 0 0 -0.07794,-0.00839 z m 0.181461,0.020034 a 17.373287,17.373285 0 0 1 0.181324,0.021898 17.373285,17.373285 0 0 0 -0.181324,-0.021898 z m 0.45278,0.058333 a 17.373287,17.373285 0 0 1 0.0904,0.013139 17.373285,17.373285 0 0 0 -0.0904,-0.013139 z m 0.180663,0.02665 a 17.373287,17.373285 0 0 1 0.07038,0.010996 17.373285,17.373285 0 0 0 -0.07038,-0.010996 z m 0.270531,0.04361 a 17.373287,17.373285 0 0 1 0.08987,0.015375 17.373285,17.373285 0 0 0 -0.08987,-0.015375 z m 0.806685,0.1561375 a 17.373287,17.373285 0 0 1 0.08139,0.017891 17.373285,17.373285 0 0 0 -0.08139,-0.017891 z m 1.499775,0.398171 a 17.373287,17.373285 0 0 1 0.08695,0.027582 17.373285,17.373285 0 0 0 -0.08695,-0.027582 z m 0.94891,0.328321 a 17.373287,17.373285 0 0 1 0.08536,0.032614 17.373285,17.373285 0 0 0 -0.08536,-0.032614 z m 0.08536,0.032614 a 17.373287,17.373285 0 0 1 0.08377,0.032521 17.373285,17.373285 0 0 0 -0.08377,-0.032521 z m 1.666789,0.7439918 a 17.373287,17.373285 0 0 1 0.06482,0.033266 17.373285,17.373285 0 0 0 -0.06482,-0.033266 z m 0.403739,0.2130064 a 17.373287,17.373285 0 0 1 0.08005,0.04389 17.373285,17.373285 0 0 0 -0.08005,-0.04389 z m 0.239513,0.132945 a 17.373287,17.373285 0 0 1 0.07847,0.04454 17.373285,17.373285 0 0 0 -0.07847,-0.04454 z m 0.158527,0.09067 a 17.373287,17.373285 0 0 1 0.12804,0.07492 17.373285,17.373285 0 0 0 -0.12804,-0.07492 z m 1.529335,0.996489 a 17.373287,17.373285 0 0 1 0.05328,0.03895 17.373285,17.373285 0 0 0 -0.05328,-0.03895 z m 0.580955,0.442573 a 17.373287,17.373285 0 0 1 0.04626,0.03699 17.373285,17.373285 0 0 0 -0.04626,-0.03699 z m 0.902915,0.770241 a 17.373287,17.373285 0 0 1 0.0672,0.06178 17.373285,17.373285 0 0 0 -0.0672,-0.06178 z m 0.784947,0.764129 a 17.373287,17.373285 0 0 1 0.05196,0.05405 17.373285,17.373285 0 0 0 -0.05196,-0.05405 z m 0.37405,0.400296 a 17.373287,17.373285 0 0 1 0.03844,0.04268 17.373285,17.373285 0 0 0 -0.03844,-0.04268 z m 0.301944,0.342373 a 17.373287,17.373285 0 0 1 0.03884,0.04547 17.373285,17.373285 0 0 0 -0.03884,-0.04547 z m 0.576317,0.708069 a 17.373287,17.373285 0 0 1 0.03818,0.04957 17.373285,17.373285 0 0 0 -0.03818,-0.04957 z m 0.433828,0.587585 a 17.373287,17.373285 0 0 1 0.05249,0.07473 17.373285,17.373285 0 0 0 -0.05249,-0.07473 z m 0.104582,0.149782 a 17.373287,17.373285 0 0 1 0.0517,0.0752 17.373285,17.373285 0 0 0 -0.0517,-0.0752 z m 0.640602,0.998875 a 17.373287,17.373285 0 0 1 0.02305,0.03895 17.373285,17.373285 0 0 0 -0.02305,-0.03895 z m 0.732191,1.36816 a 17.373287,17.373285 0 0 1 0.07807,0.165148 17.373285,17.373285 0 0 0 -0.07807,-0.165148 z m 0.07807,0.165148 a 17.373287,17.373285 0 0 1 0.03831,0.08284 17.373285,17.373285 0 0 0 -0.03831,-0.08284 z m 0.622973,1.520188 a 17.373287,17.373285 0 0 1 0.02226,0.06309 17.373285,17.373285 0 0 0 -0.02226,-0.06309 z m 0.147259,0.432108 a 17.373287,17.373285 0 0 1 0.01934,0.05992 17.373285,17.373285 0 0 0 -0.01934,-0.05992 z m 0.135863,0.435817 a 17.373287,17.373285 0 0 1 0.02109,0.07129 17.373285,17.373285 0 0 0 -0.02109,-0.07129 z m 0.237127,0.881577 a 17.373287,17.373285 0 0 1 0.01645,0.06905 17.373285,17.373285 0 0 0 -0.01645,-0.06905 z m 0.101135,0.445228 a 17.373287,17.373285 0 0 1 0.01882,0.08936 17.373285,17.373285 0 0 0 -0.01882,-0.08936 z m 0.152429,0.807477 a 17.373287,17.373285 0 0 1 0.01457,0.09011 17.373285,17.373285 0 0 0 -0.01457,-0.09011 z m 0.160782,1.26782 a 17.373287,17.373285 0 0 1 0.0075,0.0862 17.373285,17.373285 0 0 0 -0.0075,-0.0862 z m 0.02876,0.364113 a 17.373287,17.373285 0 0 1 0.01155,0.182247 17.373285,17.373285 0 0 0 -0.01155,-0.182247 z m 0.02519,0.455823 a 17.373287,17.373285 0 0 1 0.0032,0.08219 17.373285,17.373285 0 0 0 -0.0032,-0.08219 z" />
          <path
             id="path2399"
             style="fill:#ffffff;fill-opacity:1;stroke-width:0.970622;stop-color:#000000"
             d="M 25.514417,8.0267161 A 17.373285,17.373285 0 0 0 8.1411295,25.399999 17.373285,17.373285 0 0 0 25.514417,42.773282 17.373285,17.373285 0 0 0 42.8877,25.399999 17.373285,17.373285 0 0 0 25.514417,8.0267161 Z m 0,1.6287459 A 15.744539,15.744539 0 0 1 41.258954,25.399999 15.744539,15.744539 0 0 1 25.514417,41.144536 15.744539,15.744539 0 0 1 9.7698754,25.399999 15.744539,15.744539 0 0 1 25.514417,9.655462 Z" />
        </g>
        <g
           aria-label="liveg.tech"
           id="text2419"
           style="font-size:15.6468px;line-height:1.25;font-family:'URW Gothic';-inkscape-font-specification:'URW Gothic';letter-spacing:0px;word-spacing:0px;stroke-width:0.391171;fill:#ffffff;fill-opacity:1">
          <path
             d="m 55.09264,29.49946 h 1.157863 V 17.936475 H 55.09264 Z"
             style="stroke-width:0.391171;fill:#ffffff;fill-opacity:1"
             id="path2438" />
          <path
             d="m 58.221982,29.49946 h 1.157863 v -8.558799 h -1.157863 z m 0,-9.591488 h 1.157863 v -1.971497 h -1.157863 z"
             style="stroke-width:0.391171;fill:#ffffff;fill-opacity:1"
             id="path2440" />
          <path
             d="m 64.167735,29.49946 h 1.22045 l 3.598764,-8.558799 h -1.17351 l -3.066772,7.197528 -3.004186,-7.197528 h -1.17351 z"
             style="stroke-width:0.391171;fill:#ffffff;fill-opacity:1"
             id="path2442" />
          <path
             d="m 78.328053,25.603407 c 0,-1.17351 -0.156468,-1.893263 -0.578931,-2.644309 -0.766693,-1.376919 -2.253139,-2.221846 -3.896053,-2.221846 -2.487842,0 -4.428045,1.95585 -4.428045,4.443691 0,2.534782 1.987144,4.521926 4.521925,4.521926 1.86197,0 3.536177,-1.204804 4.162049,-3.019833 h -1.204803 c -0.485051,1.17351 -1.689855,1.95585 -2.988539,1.95585 -1.768089,0 -3.238888,-1.345625 -3.332769,-3.035479 z m -7.713872,-1.048336 c 0.312936,-1.642914 1.61162,-2.753836 3.238888,-2.753836 1.65856,0 2.910304,1.032688 3.317121,2.753836 z"
             style="stroke-width:0.391171;fill:#ffffff;fill-opacity:1"
             id="path2444" />
          <path
             d="M 88.498459,20.940661 H 87.340596 V 22.4584 c -0.860574,-1.189157 -1.90891,-1.721148 -3.364062,-1.721148 -2.503488,0 -4.365458,1.940203 -4.365458,4.521925 0,2.503488 1.940204,4.443692 4.459338,4.443692 1.549034,0 2.597369,-0.625872 3.270182,-1.940204 v 0.578932 c 0,0.844927 -0.09388,1.376918 -0.34423,1.90891 -0.453757,0.985748 -1.470799,1.549033 -2.800777,1.549033 -0.954455,0 -1.689855,-0.281643 -2.30008,-0.860574 -0.297289,-0.265996 -0.485051,-0.531991 -0.844927,-1.17351 h -1.12657 c 0.625872,2.00279 2.143612,3.098066 4.30287,3.098066 1.486446,0 2.73819,-0.563285 3.47359,-1.533386 0.578932,-0.78234 0.797987,-1.689855 0.797987,-3.364062 z m -4.443691,0.860574 c 1.846322,0 3.285828,1.455152 3.285828,3.317121 0,2.002791 -1.408212,3.52053 -3.270182,3.52053 -1.877616,0 -3.285828,-1.486446 -3.285828,-3.473589 0,-1.95585 1.376919,-3.364062 3.270182,-3.364062 z"
             style="stroke-width:0.391171;fill:#ffffff;fill-opacity:1"
             id="path2446" />
          <path
             d="M 91.001897,29.49946 H 92.15976 V 27.527963 H 91.001897 Z"
             style="stroke-width:0.391171;fill:#ffffff;fill-opacity:1"
             id="path2448" />
          <path
             d="m 95.789795,29.49946 h 1.157863 v -7.510464 h 1.924556 v -1.048335 h -1.924556 v -3.004186 h -1.157863 v 3.004186 h -1.846323 v 1.048335 h 1.846323 z"
             style="stroke-width:0.391171;fill:#ffffff;fill-opacity:1"
             id="path2450" />
          <path
             d="m 108.24462,25.603407 c 0,-1.17351 -0.15646,-1.893263 -0.57893,-2.644309 -0.76669,-1.376919 -2.25314,-2.221846 -3.89605,-2.221846 -2.48784,0 -4.428045,1.95585 -4.428045,4.443691 0,2.534782 1.987145,4.521926 4.521925,4.521926 1.86197,0 3.53618,-1.204804 4.16205,-3.019833 h -1.2048 c -0.48506,1.17351 -1.68986,1.95585 -2.98854,1.95585 -1.76809,0 -3.23889,-1.345625 -3.33277,-3.035479 z m -7.71387,-1.048336 c 0.31294,-1.642914 1.61162,-2.753836 3.23889,-2.753836 1.65856,0 2.9103,1.032688 3.31712,2.753836 z"
             style="stroke-width:0.391171;fill:#ffffff;fill-opacity:1"
             id="path2452" />
          <path
             d="m 117.05377,26.980325 c -0.89187,1.189157 -1.7055,1.658561 -2.9416,1.658561 -1.90891,0 -3.42665,-1.502093 -3.42665,-3.411002 0,-1.924557 1.48644,-3.426649 3.39535,-3.426649 1.2674,0 2.31573,0.610225 2.9729,1.736794 h 1.29868 c -0.68846,-1.721148 -2.33137,-2.800777 -4.25593,-2.800777 -2.56607,0 -4.58451,1.971497 -4.58451,4.459338 0,2.550429 2.03408,4.506279 4.66275,4.506279 1.06398,0 2.04973,-0.328583 2.84771,-0.970102 0.54764,-0.43811 0.87622,-0.860574 1.34563,-1.752442 z"
             style="stroke-width:0.391171;fill:#ffffff;fill-opacity:1"
             id="path2454" />
          <path
             d="m 119.91712,29.49946 h 1.15786 v -4.69404 c 0,-0.923161 0.12518,-1.470799 0.46941,-1.940203 0.4694,-0.672812 1.26739,-1.063982 2.14361,-1.063982 0.82928,0 1.61162,0.344229 2.06537,0.923161 0.40682,0.516344 0.57894,1.17351 0.57894,2.174905 v 4.600159 h 1.15786 v -4.600159 c 0,-1.283038 -0.2347,-2.174905 -0.7354,-2.847718 -0.64152,-0.82928 -1.72115,-1.314331 -2.97289,-1.314331 -1.15787,0 -2.12797,0.469404 -2.7069,1.314331 v -4.115108 h -1.15786 z"
             style="stroke-width:0.391171;fill:#ffffff;fill-opacity:1"
             id="path2456" />
        </g>
      </g>
    </g>
  </g>
</svg>
