<?xml version="1.0" encoding="UTF-8" standalone="no"?>
<svg
   xmlns:dc="http://purl.org/dc/elements/1.1/"
   xmlns:cc="http://creativecommons.org/ns#"
   xmlns:rdf="http://www.w3.org/1999/02/22-rdf-syntax-ns#"
   xmlns:svg="http://www.w3.org/2000/svg"
   xmlns="http://www.w3.org/2000/svg"
   xmlns:sodipodi="http://sodipodi.sourceforge.net/DTD/sodipodi-0.dtd"
   xmlns:inkscape="http://www.inkscape.org/namespaces/inkscape"
   width="1024"
   height="256"
   viewBox="0 0 270.93332 67.733332"
   version="1.1"
   id="svg5"
   inkscape:version="1.0.1 (3bc2e81, 2020-09-07)"
   sodipodi:docname="domainonly-light.svg"
   inkscape:export-filename="/home/james/Documents/Inkscapes/LiveG Website Domain.png"
   inkscape:export-xdpi="96"
   inkscape:export-ydpi="96">
  <metadata
     id="metadata8">
    <rdf:RDF>
      <cc:Work
         rdf:about="">
        <dc:format>image/svg+xml</dc:format>
        <dc:type
           rdf:resource="http://purl.org/dc/dcmitype/StillImage" />
      </cc:Work>
    </rdf:RDF>
  </metadata>
  <sodipodi:namedview
     id="namedview7"
     pagecolor="#505050"
     bordercolor="#ffffff"
     borderopacity="1"
     inkscape:pageshadow="0"
     inkscape:pageopacity="0"
     inkscape:pagecheckerboard="1"
     inkscape:document-units="mm"
     showgrid="false"
     width="512px"
     units="px"
     inkscape:zoom="0.70710678"
     inkscape:cx="445.47727"
     inkscape:cy="195.86858"
     inkscape:window-width="1920"
     inkscape:window-height="1026"
     inkscape:window-x="0"
     inkscape:window-y="32"
     inkscape:window-maximized="1"
     inkscape:current-layer="layer1"
     inkscape:document-rotation="0" />
  <defs
     id="defs2" />
  <g
     inkscape:label="Layer 1"
     inkscape:groupmode="layer"
     id="layer1">
    <g
       aria-label="liveg.tech"
       transform="scale(0.99504438,1.0049803)"
       id="text1376"
       style="font-size:57.953px;line-height:1.25;font-family:reith;-inkscape-font-specification:reith;letter-spacing:0px;word-spacing:0px;fill:#ffffff;fill-opacity:1;stroke-width:1.44883">
      <path
         d="M 2.0674655,48.882523 H 6.3559874 V 6.0552562 H 2.0674655 Z"
         style="font-style:normal;font-variant:normal;font-weight:normal;font-stretch:normal;font-family:'URW Gothic';-inkscape-font-specification:'URW Gothic';fill:#ffffff;fill-opacity:1;stroke-width:1.44883"
         id="path2395" />
      <path
         d="m 13.657999,48.882523 h 4.288522 V 17.182232 h -4.288522 z m 0,-35.525189 h 4.288522 V 6.0552562 h -4.288522 z"
         style="font-style:normal;font-variant:normal;font-weight:normal;font-stretch:normal;font-family:'URW Gothic';-inkscape-font-specification:'URW Gothic';fill:#ffffff;fill-opacity:1;stroke-width:1.44883"
         id="path2397" />
      <path
         d="m 35.680024,48.882523 h 4.520333 L 53.529547,17.182232 H 49.183072 L 37.824285,43.840612 26.697309,17.182232 h -4.346475 z"
         style="font-style:normal;font-variant:normal;font-weight:normal;font-stretch:normal;font-family:'URW Gothic';-inkscape-font-specification:'URW Gothic';fill:#ffffff;fill-opacity:1;stroke-width:1.44883"
         id="path2399" />
      <path
         d="m 88.127352,34.452226 c 0,-4.346475 -0.57953,-7.012313 -2.144261,-9.794057 -2.839697,-5.099864 -8.345231,-8.229326 -14.430296,-8.229326 -9.214527,0 -16.400699,7.244125 -16.400699,16.458652 0,9.388386 7.360031,16.748417 16.748417,16.748417 6.896407,0 13.097377,-4.462381 15.415497,-11.184929 h -4.462381 c -1.796543,4.346475 -6.258923,7.244125 -11.069022,7.244125 -6.548689,0 -11.996271,-4.983958 -12.343989,-11.242882 z M 59.556524,30.569375 c 1.15906,-6.085065 5.969159,-10.199728 11.996271,-10.199728 6.143018,0 10.779257,3.824898 12.286035,10.199728 z"
         style="font-style:normal;font-variant:normal;font-weight:normal;font-stretch:normal;font-family:'URW Gothic';-inkscape-font-specification:'URW Gothic';fill:#ffffff;fill-opacity:1;stroke-width:1.44883"
         id="path2401" />
      <path
         d="m 125.79675,17.182232 h -4.28852 v 5.621441 c -3.18742,-4.404428 -7.07027,-6.37483 -12.4599,-6.37483 -9.272479,0 -16.168886,7.186172 -16.168886,16.748417 0,9.27248 7.186176,16.458652 16.516606,16.458652 5.73735,0 9.6202,-2.31812 12.11218,-7.186172 v 2.144261 c 0,3.129462 -0.34772,5.099864 -1.27497,7.070266 -1.68064,3.651038 -5.44758,5.737346 -10.37359,5.737346 -3.53513,0 -6.25892,-1.043154 -8.51909,-3.187414 -1.1011,-0.985201 -1.796541,-1.970402 -3.12946,-4.346475 h -4.172616 c 2.31812,7.417983 7.939566,11.474693 15.937076,11.474693 5.50553,0 10.14177,-2.086308 12.86556,-5.679394 2.14427,-2.897649 2.95561,-6.258923 2.95561,-12.459894 z m -16.45865,3.187415 c 6.83845,0 12.17013,5.389629 12.17013,12.286036 0,7.417984 -5.21577,13.039425 -12.11218,13.039425 -6.95436,0 -12.170131,-5.505535 -12.170131,-12.865566 0,-7.244125 5.099861,-12.459895 12.112181,-12.459895 z"
         style="font-style:normal;font-variant:normal;font-weight:normal;font-stretch:normal;font-family:'URW Gothic';-inkscape-font-specification:'URW Gothic';fill:#ffffff;fill-opacity:1;stroke-width:1.44883"
         id="path2403" />
      <path
         d="m 135.06904,48.882523 h 4.28852 v -7.302078 h -4.28852 z"
         style="font-style:normal;font-variant:normal;font-weight:normal;font-stretch:normal;font-family:'URW Gothic';-inkscape-font-specification:'URW Gothic';fill:#ffffff;fill-opacity:1;stroke-width:1.44883"
         id="path2405" />
      <path
         d="m 152.80258,48.882523 h 4.28852 v -27.81744 h 7.12822 V 17.182232 H 157.0911 V 6.0552562 h -4.28852 V 17.182232 h -6.83845 v 3.882851 h 6.83845 z"
         style="font-style:normal;font-variant:normal;font-weight:normal;font-stretch:normal;font-family:'URW Gothic';-inkscape-font-specification:'URW Gothic';fill:#ffffff;fill-opacity:1;stroke-width:1.44883"
         id="path2407" />
      <path
         d="m 198.93309,34.452226 c 0,-4.346475 -0.57953,-7.012313 -2.14427,-9.794057 -2.83969,-5.099864 -8.34523,-8.229326 -14.43029,-8.229326 -9.21453,0 -16.4007,7.244125 -16.4007,16.458652 0,9.388386 7.36003,16.748417 16.74842,16.748417 6.8964,0 13.09737,-4.462381 15.41549,-11.184929 h -4.46238 c -1.79654,4.346475 -6.25892,7.244125 -11.06902,7.244125 -6.54869,0 -11.99627,-4.983958 -12.34399,-11.242882 z m -28.57083,-3.882851 c 1.15906,-6.085065 5.96916,-10.199728 11.99627,-10.199728 6.14302,0 10.77926,3.824898 12.28603,10.199728 z"
         style="font-style:normal;font-variant:normal;font-weight:normal;font-stretch:normal;font-family:'URW Gothic';-inkscape-font-specification:'URW Gothic';fill:#ffffff;fill-opacity:1;stroke-width:1.44883"
         id="path2409" />
      <path
         d="m 231.56059,39.55209 c -3.30332,4.404428 -6.31687,6.143018 -10.89516,6.143018 -7.07027,0 -12.69171,-5.563488 -12.69171,-12.633754 0,-7.128219 5.50554,-12.691707 12.5758,-12.691707 4.6942,0 8.57705,2.260167 11.01107,6.432783 h 4.8101 c -2.54993,-6.37483 -8.635,-10.373587 -15.76321,-10.373587 -9.5043,0 -16.98023,7.302078 -16.98023,16.516605 0,9.446339 7.53389,16.690464 17.26999,16.690464 3.9408,0 7.59184,-1.217013 10.54745,-3.593086 2.02835,-1.622684 3.24536,-3.187415 4.98395,-6.490736 z"
         style="font-style:normal;font-variant:normal;font-weight:normal;font-stretch:normal;font-family:'URW Gothic';-inkscape-font-specification:'URW Gothic';fill:#ffffff;fill-opacity:1;stroke-width:1.44883"
         id="path2411" />
      <path
         d="m 242.16595,48.882523 h 4.28852 v -17.3859 c 0,-3.419227 0.46362,-5.447582 1.73859,-7.186172 1.73859,-2.491979 4.69419,-3.940804 7.93956,-3.940804 3.07151,0 5.96916,1.274966 7.64979,3.419227 1.50678,1.912449 2.14427,4.346475 2.14427,8.055467 v 17.038182 h 4.28852 V 31.844341 c 0,-4.752146 -0.8693,-8.055467 -2.72379,-10.547446 -2.37608,-3.071509 -6.37483,-4.868052 -11.01107,-4.868052 -4.28853,0 -7.88161,1.73859 -10.02587,4.868052 V 6.0552562 h -4.28852 z"
         style="font-style:normal;font-variant:normal;font-weight:normal;font-stretch:normal;font-family:'URW Gothic';-inkscape-font-specification:'URW Gothic';fill:#ffffff;fill-opacity:1;stroke-width:1.44883"
         id="path2413" />
    </g>
  </g>
</svg>
