<?xml version="1.0" encoding="UTF-8" standalone="no"?>
<svg
   xmlns:dc="http://purl.org/dc/elements/1.1/"
   xmlns:cc="http://creativecommons.org/ns#"
   xmlns:rdf="http://www.w3.org/1999/02/22-rdf-syntax-ns#"
   xmlns:svg="http://www.w3.org/2000/svg"
   xmlns="http://www.w3.org/2000/svg"
   xmlns:sodipodi="http://sodipodi.sourceforge.net/DTD/sodipodi-0.dtd"
   xmlns:inkscape="http://www.inkscape.org/namespaces/inkscape"
   width="512"
   height="192"
   viewBox="0 0 135.46666 50.8"
   version="1.1"
   id="svg8"
   inkscape:version="1.0.1 (3bc2e81, 2020-09-07)"
   sodipodi:docname="domain-light.svg">
  <defs
     id="defs2" />
  <sodipodi:namedview
     id="base"
     pagecolor="#ffffff"
     bordercolor="#666666"
     borderopacity="1.0"
     inkscape:pageopacity="0.0"
     inkscape:pageshadow="2"
     inkscape:zoom="1.2014686"
     inkscape:cx="232.40879"
     inkscape:cy="69.42084"
     inkscape:document-units="px"
     inkscape:current-layer="g2500"
     inkscape:document-rotation="0"
     showgrid="false"
     units="px"
     inkscape:window-width="1920"
     inkscape:window-height="1026"
     inkscape:window-x="0"
     inkscape:window-y="32"
     inkscape:window-maximized="1" />
  <metadata
     id="metadata5">
    <rdf:RDF>
      <cc:Work
         rdf:about="">
        <dc:format>image/svg+xml</dc:format>
        <dc:type
           rdf:resource="http://purl.org/dc/dcmitype/StillImage" />
        <dc:title />
      </cc:Work>
    </rdf:RDF>
  </metadata>
  <g
     inkscape:label="Layer 1"
     inkscape:groupmode="layer"
     id="layer1">
    <g
       id="g2461">
      <g
         id="g2500">
        <g
           id="g2472">
          <g
             inkscape:label="Layer 1"
             id="layer1-3"
             transform="matrix(0.26214301,0,0,0.26214301,7.758597,7.6441797)">
            <path
               id="rect835"
               style="fill:#ffff00;fill-opacity:1;stroke:none;stroke-width:0.830125;stop-color:#000000"
               d="M 67.733332,0 V 67.733332 H 135.46667 A 67.733334,67.73333 0 0 0 67.733332,0 Z" />
            <path
               id="path833-6"
               style="fill:#00b0f0;fill-opacity:1;stroke:none;stroke-width:5.24772;stop-color:#000000"
               d="M 256,0 A 255.99999,255.99999 0 0 0 0,256 255.99999,255.99999 0 0 0 256,512 255.99999,255.99999 0 0 0 512,256 H 256 Z M 512,256 A 255.99999,255.99999 0 0 0 511.996,254.6543 256.00001,255.99999 0 0 1 512,256 Z M 263.91016,0.12304688 a 256.00001,255.99999 0 0 1 1.15234,0.0390625 255.99999,255.99999 0 0 0 -1.15234,-0.0390625 z M 276,0.78320312 a 256.00001,255.99999 0 0 1 0.91797,0.0742188 A 255.99999,255.99999 0 0 0 276,0.78320312 Z m 6.69922,0.61328128 a 256.00001,255.99999 0 0 1 1.14844,0.1230468 255.99999,255.99999 0 0 0 -1.14844,-0.1230468 z m 2.67383,0.2949218 a 256.00001,255.99999 0 0 1 2.67187,0.3222657 255.99999,255.99999 0 0 0 -2.67187,-0.3222657 z m 6.67187,0.859375 a 256.00001,255.99999 0 0 1 1.33203,0.1933594 255.99999,255.99999 0 0 0 -1.33203,-0.1933594 z m 2.66211,0.3925782 a 256.00001,255.99999 0 0 1 1.03711,0.1621094 255.99999,255.99999 0 0 0 -1.03711,-0.1621094 z m 3.98633,0.6425781 A 256.00001,255.99999 0 0 1 300.01758,3.8125 255.99999,255.99999 0 0 0 298.69336,3.5859375 Z m 11.88672,2.3007813 a 256.00001,255.99999 0 0 1 1.19922,0.2636718 255.99999,255.99999 0 0 0 -1.19922,-0.2636718 z m 22.09961,5.8671872 a 256.00001,255.99999 0 0 1 1.28125,0.40625 255.99999,255.99999 0 0 0 -1.28125,-0.40625 z m 13.98242,4.837891 a 256.00001,255.99999 0 0 1 1.25781,0.480469 255.99999,255.99999 0 0 0 -1.25781,-0.480469 z m 1.25781,0.480469 a 256.00001,255.99999 0 0 1 1.23438,0.478515 255.99999,255.99999 0 0 0 -1.23438,-0.478515 z m 24.56055,10.96289 a 256.00001,255.99999 0 0 1 0.95508,0.490235 255.99999,255.99999 0 0 0 -0.95508,-0.490235 z m 5.94922,3.138672 a 256.00001,255.99999 0 0 1 1.17969,0.646484 255.99999,255.99999 0 0 0 -1.17969,-0.646484 z m 3.52929,1.958984 a 256.00001,255.99999 0 0 1 1.15625,0.65625 255.99999,255.99999 0 0 0 -1.15625,-0.65625 z m 2.33594,1.335938 a 256.00001,255.99999 0 0 1 1.88672,1.103516 255.99999,255.99999 0 0 0 -1.88672,-1.103516 z m 22.53516,14.683594 a 256.00001,255.99999 0 0 1 0.78515,0.574218 255.99999,255.99999 0 0 0 -0.78515,-0.574218 z m 8.56054,6.521484 a 256.00001,255.99999 0 0 1 0.68165,0.544922 255.99999,255.99999 0 0 0 -0.68165,-0.544922 z m 13.30469,11.34961 a 256.00001,255.99999 0 0 1 0.99024,0.910156 255.99999,255.99999 0 0 0 -0.99024,-0.910156 z m 11.56641,11.259765 a 256.00001,255.99999 0 0 1 0.76562,0.796875 255.99999,255.99999 0 0 0 -0.76562,-0.796875 z m 5.51172,5.898438 a 256.00001,255.99999 0 0 1 0.5664,0.628906 255.99999,255.99999 0 0 0 -0.5664,-0.628906 z m 4.44922,5.044921 a 256.00001,255.99999 0 0 1 0.57226,0.669922 255.99999,255.99999 0 0 0 -0.57226,-0.669922 z m 8.49218,10.433594 a 256.00001,255.99999 0 0 1 0.5625,0.730464 255.99999,255.99999 0 0 0 -0.5625,-0.730464 z m 6.39258,8.658204 a 256.00001,255.99999 0 0 1 0.77344,1.10156 255.99999,255.99999 0 0 0 -0.77344,-1.10156 z m 1.54102,2.20703 a 256.00001,255.99999 0 0 1 0.76172,1.10742 255.99999,255.99999 0 0 0 -0.76172,-1.10742 z m 9.43945,14.71875 a 256.00001,255.99999 0 0 1 0.33984,0.57422 255.99999,255.99999 0 0 0 -0.33984,-0.57422 z m 10.78906,20.16016 a 256.00001,255.99999 0 0 1 1.15039,2.43359 255.99999,255.99999 0 0 0 -1.15039,-2.43359 z m 1.15039,2.43359 a 256.00001,255.99999 0 0 1 0.56446,1.2207 255.99999,255.99999 0 0 0 -0.56446,-1.2207 z m 9.17969,22.40039 a 256.00001,255.99999 0 0 1 0.32813,0.92969 255.99999,255.99999 0 0 0 -0.32813,-0.92969 z m 2.16992,6.36719 a 256.00001,255.99999 0 0 1 0.28516,0.88281 255.99999,255.99999 0 0 0 -0.28516,-0.88281 z m 2.00196,6.42187 a 256.00001,255.99999 0 0 1 0.31054,1.05078 255.99999,255.99999 0 0 0 -0.31054,-1.05078 z m 3.49414,12.99024 a 256.00001,255.99999 0 0 1 0.24218,1.01758 255.99999,255.99999 0 0 0 -0.24218,-1.01758 z m 1.49023,6.56054 a 256.00001,255.99999 0 0 1 0.27734,1.31641 255.99999,255.99999 0 0 0 -0.27734,-1.31641 z m 2.2461,11.89844 a 256.00001,255.99999 0 0 1 0.21484,1.32813 255.99999,255.99999 0 0 0 -0.21484,-1.32813 z m 2.36914,18.68164 a 256.00001,255.99999 0 0 1 0.11132,1.26953 255.99999,255.99999 0 0 0 -0.11132,-1.26953 z m 0.42382,5.36524 a 256.00001,255.99999 0 0 1 0.16993,2.68554 255.99999,255.99999 0 0 0 -0.16993,-2.68554 z m 0.3711,6.71679 a 256.00001,255.99999 0 0 1 0.0469,1.21094 255.99999,255.99999 0 0 0 -0.0469,-1.21094 z"
               transform="scale(0.26458333)" />
          </g>
          <g
             aria-label="liveg.tech"
             id="text2419"
             style="font-size:15.6468px;line-height:1.25;font-family:'URW Gothic';-inkscape-font-specification:'URW Gothic';letter-spacing:0px;word-spacing:0px;stroke-width:0.391171;fill:#ffffff;fill-opacity:1">
            <path
               d="m 55.09264,29.49946 h 1.157863 V 17.936475 H 55.09264 Z"
               style="stroke-width:0.391171;fill:#ffffff;fill-opacity:1"
               id="path2438" />
            <path
               d="m 58.221982,29.49946 h 1.157863 v -8.558799 h -1.157863 z m 0,-9.591488 h 1.157863 v -1.971497 h -1.157863 z"
               style="stroke-width:0.391171;fill:#ffffff;fill-opacity:1"
               id="path2440" />
            <path
               d="m 64.167735,29.49946 h 1.22045 l 3.598764,-8.558799 h -1.17351 l -3.066772,7.197528 -3.004186,-7.197528 h -1.17351 z"
               style="stroke-width:0.391171;fill:#ffffff;fill-opacity:1"
               id="path2442" />
            <path
               d="m 78.328053,25.603407 c 0,-1.17351 -0.156468,-1.893263 -0.578931,-2.644309 -0.766693,-1.376919 -2.253139,-2.221846 -3.896053,-2.221846 -2.487842,0 -4.428045,1.95585 -4.428045,4.443691 0,2.534782 1.987144,4.521926 4.521925,4.521926 1.86197,0 3.536177,-1.204804 4.162049,-3.019833 h -1.204803 c -0.485051,1.17351 -1.689855,1.95585 -2.988539,1.95585 -1.768089,0 -3.238888,-1.345625 -3.332769,-3.035479 z m -7.713872,-1.048336 c 0.312936,-1.642914 1.61162,-2.753836 3.238888,-2.753836 1.65856,0 2.910304,1.032688 3.317121,2.753836 z"
               style="stroke-width:0.391171;fill:#ffffff;fill-opacity:1"
               id="path2444" />
            <path
               d="M 88.498459,20.940661 H 87.340596 V 22.4584 c -0.860574,-1.189157 -1.90891,-1.721148 -3.364062,-1.721148 -2.503488,0 -4.365458,1.940203 -4.365458,4.521925 0,2.503488 1.940204,4.443692 4.459338,4.443692 1.549034,0 2.597369,-0.625872 3.270182,-1.940204 v 0.578932 c 0,0.844927 -0.09388,1.376918 -0.34423,1.90891 -0.453757,0.985748 -1.470799,1.549033 -2.800777,1.549033 -0.954455,0 -1.689855,-0.281643 -2.30008,-0.860574 -0.297289,-0.265996 -0.485051,-0.531991 -0.844927,-1.17351 h -1.12657 c 0.625872,2.00279 2.143612,3.098066 4.30287,3.098066 1.486446,0 2.73819,-0.563285 3.47359,-1.533386 0.578932,-0.78234 0.797987,-1.689855 0.797987,-3.364062 z m -4.443691,0.860574 c 1.846322,0 3.285828,1.455152 3.285828,3.317121 0,2.002791 -1.408212,3.52053 -3.270182,3.52053 -1.877616,0 -3.285828,-1.486446 -3.285828,-3.473589 0,-1.95585 1.376919,-3.364062 3.270182,-3.364062 z"
               style="stroke-width:0.391171;fill:#ffffff;fill-opacity:1"
               id="path2446" />
            <path
               d="M 91.001897,29.49946 H 92.15976 V 27.527963 H 91.001897 Z"
               style="stroke-width:0.391171;fill:#ffffff;fill-opacity:1"
               id="path2448" />
            <path
               d="m 95.789795,29.49946 h 1.157863 v -7.510464 h 1.924556 v -1.048335 h -1.924556 v -3.004186 h -1.157863 v 3.004186 h -1.846323 v 1.048335 h 1.846323 z"
               style="stroke-width:0.391171;fill:#ffffff;fill-opacity:1"
               id="path2450" />
            <path
               d="m 108.24462,25.603407 c 0,-1.17351 -0.15646,-1.893263 -0.57893,-2.644309 -0.76669,-1.376919 -2.25314,-2.221846 -3.89605,-2.221846 -2.48784,0 -4.428045,1.95585 -4.428045,4.443691 0,2.534782 1.987145,4.521926 4.521925,4.521926 1.86197,0 3.53618,-1.204804 4.16205,-3.019833 h -1.2048 c -0.48506,1.17351 -1.68986,1.95585 -2.98854,1.95585 -1.76809,0 -3.23889,-1.345625 -3.33277,-3.035479 z m -7.71387,-1.048336 c 0.31294,-1.642914 1.61162,-2.753836 3.23889,-2.753836 1.65856,0 2.9103,1.032688 3.31712,2.753836 z"
               style="stroke-width:0.391171;fill:#ffffff;fill-opacity:1"
               id="path2452" />
            <path
               d="m 117.05377,26.980325 c -0.89187,1.189157 -1.7055,1.658561 -2.9416,1.658561 -1.90891,0 -3.42665,-1.502093 -3.42665,-3.411002 0,-1.924557 1.48644,-3.426649 3.39535,-3.426649 1.2674,0 2.31573,0.610225 2.9729,1.736794 h 1.29868 c -0.68846,-1.721148 -2.33137,-2.800777 -4.25593,-2.800777 -2.56607,0 -4.58451,1.971497 -4.58451,4.459338 0,2.550429 2.03408,4.506279 4.66275,4.506279 1.06398,0 2.04973,-0.328583 2.84771,-0.970102 0.54764,-0.43811 0.87622,-0.860574 1.34563,-1.752442 z"
               style="stroke-width:0.391171;fill:#ffffff;fill-opacity:1"
               id="path2454" />
            <path
               d="m 119.91712,29.49946 h 1.15786 v -4.69404 c 0,-0.923161 0.12518,-1.470799 0.46941,-1.940203 0.4694,-0.672812 1.26739,-1.063982 2.14361,-1.063982 0.82928,0 1.61162,0.344229 2.06537,0.923161 0.40682,0.516344 0.57894,1.17351 0.57894,2.174905 v 4.600159 h 1.15786 v -4.600159 c 0,-1.283038 -0.2347,-2.174905 -0.7354,-2.847718 -0.64152,-0.82928 -1.72115,-1.314331 -2.97289,-1.314331 -1.15787,0 -2.12797,0.469404 -2.7069,1.314331 v -4.115108 h -1.15786 z"
               style="stroke-width:0.391171;fill:#ffffff;fill-opacity:1"
               id="path2456" />
          </g>
        </g>
      </g>
    </g>
  </g>
</svg>
