<?xml version="1.0" encoding="UTF-8" standalone="no"?>
<svg
   xmlns:dc="http://purl.org/dc/elements/1.1/"
   xmlns:cc="http://creativecommons.org/ns#"
   xmlns:rdf="http://www.w3.org/1999/02/22-rdf-syntax-ns#"
   xmlns:svg="http://www.w3.org/2000/svg"
   xmlns="http://www.w3.org/2000/svg"
   xmlns:sodipodi="http://sodipodi.sourceforge.net/DTD/sodipodi-0.dtd"
   xmlns:inkscape="http://www.inkscape.org/namespaces/inkscape"
   width="512"
   height="192"
   viewBox="0 0 135.46666 50.8"
   version="1.1"
   id="svg8"
   inkscape:version="1.0.1 (3bc2e81, 2020-09-07)"
   sodipodi:docname="domain-dark-greyscale.svg">
  <defs
     id="defs2" />
  <sodipodi:namedview
     id="base"
     pagecolor="#ffffff"
     bordercolor="#666666"
     borderopacity="1.0"
     inkscape:pageopacity="0.0"
     inkscape:pageshadow="2"
     inkscape:zoom="0.84956659"
     inkscape:cx="186.99804"
     inkscape:cy="144.96079"
     inkscape:document-units="px"
     inkscape:current-layer="g2461"
     inkscape:document-rotation="0"
     showgrid="false"
     units="px"
     inkscape:window-width="1920"
     inkscape:window-height="1026"
     inkscape:window-x="0"
     inkscape:window-y="32"
     inkscape:window-maximized="1" />
  <metadata
     id="metadata5">
    <rdf:RDF>
      <cc:Work
         rdf:about="">
        <dc:format>image/svg+xml</dc:format>
        <dc:type
           rdf:resource="http://purl.org/dc/dcmitype/StillImage" />
        <dc:title />
      </cc:Work>
    </rdf:RDF>
  </metadata>
  <g
     inkscape:label="Layer 1"
     inkscape:groupmode="layer"
     id="layer1">
    <g
       id="g2461">
      <g
         id="g2491">
        <g
           inkscape:label="Layer 1"
           id="layer1-3-6"
           transform="matrix(0.26214301,0,0,0.26214301,7.7585969,7.6441804)">
          <path
             id="rect835-3"
             style="fill:#c0c0c0;fill-opacity:1;stroke:none;stroke-width:0.830124;stop-color:#000000"
             d="M 67.733332,1.1417725e-4 V 67.733332 H 135.46656 A 67.73322,67.733215 0 0 0 67.733332,1.1417725e-4 Z" />
          <path
             id="path833-6-6"
             style="fill:#808080;fill-opacity:1;stroke:none;stroke-width:1.38846;stop-color:#000000"
             d="M 67.733332,1.1417725e-4 A 67.733215,67.733215 0 0 0 1.1458165e-4,67.733332 67.733215,67.733215 0 0 0 67.733332,135.46655 67.733215,67.733215 0 0 0 135.46655,67.733332 H 67.733332 Z M 135.46655,67.733332 a 67.733215,67.733215 0 0 0 -0.001,-0.35605 67.73322,67.733215 0 0 1 0.001,0.35605 z M 69.826226,0.03266966 a 67.73322,67.733215 0 0 1 0.304888,0.01032842 67.733215,67.733215 0 0 0 -0.304888,-0.01032842 z m 3.198763,0.1746656 a 67.73322,67.733215 0 0 1 0.242881,0.0196345 67.733215,67.733215 0 0 0 -0.242881,-0.0196345 z m 1.772501,0.16226363 a 67.73322,67.733215 0 0 1 0.303857,0.0325581 67.733215,67.733215 0 0 0 -0.303857,-0.0325581 z m 0.707449,0.078032 a 67.73322,67.733215 0 0 1 0.706931,0.0852671 67.733215,67.733215 0 0 0 -0.706931,-0.0852671 z m 1.765263,0.22737722 a 67.73322,67.733215 0 0 1 0.352433,0.0511597 67.733215,67.733215 0 0 0 -0.352433,-0.0511597 z m 0.704348,0.10386875 a 67.73322,67.733215 0 0 1 0.274401,0.0428918 67.733215,67.733215 0 0 0 -0.274401,-0.0428918 z m 1.054715,0.17001518 a 67.73322,67.733215 0 0 1 0.350364,0.0599442 67.733215,67.733215 0 0 0 -0.350364,-0.0599442 z m 3.145022,0.60874746 a 67.73322,67.733215 0 0 1 0.317295,0.069761 67.733215,67.733215 0 0 0 -0.317295,-0.069761 z m 5.847179,1.5523559 a 67.73322,67.733215 0 0 1 0.338997,0.1074889 67.733215,67.733215 0 0 0 -0.338997,-0.1074889 z m 3.699508,1.2800238 a 67.73322,67.733215 0 0 1 0.332795,0.1271234 67.733215,67.733215 0 0 0 -0.332795,-0.1271234 z m 0.332795,0.1271234 a 67.73322,67.733215 0 0 1 0.326596,0.126607 67.733215,67.733215 0 0 0 -0.326596,-0.126607 z M 98.552071,7.417737 A 67.73322,67.733215 0 0 1 98.804769,7.5474452 67.733215,67.733215 0 0 0 98.552071,7.417737 Z m 1.574059,0.8304389 a 67.73322,67.733215 0 0 1 0.31213,0.171048 67.733215,67.733215 0 0 0 -0.31213,-0.171048 z m 0.93379,0.5183135 a 67.73322,67.733215 0 0 1 0.30593,0.1736327 67.733215,67.733215 0 0 0 -0.30593,-0.1736327 z m 0.61805,0.3534652 a 67.73322,67.733215 0 0 1 0.49919,0.2919717 67.733215,67.733215 0 0 0 -0.49919,-0.2919717 z m 5.96242,3.8850284 a 67.73322,67.733215 0 0 1 0.20774,0.151928 67.733215,67.733215 0 0 0 -0.20774,-0.151928 z m 2.26497,1.725473 a 67.73322,67.733215 0 0 1 0.18036,0.144178 67.733215,67.733215 0 0 0 -0.18036,-0.144178 z m 3.5202,3.002914 a 67.73322,67.733215 0 0 1 0.262,0.240809 67.733215,67.733215 0 0 0 -0.262,-0.240809 z m 3.06027,2.97914 a 67.73322,67.733215 0 0 1 0.20257,0.210838 67.733215,67.733215 0 0 0 -0.20257,-0.210838 z m 1.45831,1.560624 a 67.73322,67.733215 0 0 1 0.14985,0.1664 67.733215,67.733215 0 0 0 -0.14985,-0.1664 z m 1.17718,1.334801 a 67.73322,67.733215 0 0 1 0.15141,0.17725 67.733215,67.733215 0 0 0 -0.15141,-0.17725 z m 2.24689,2.76055 a 67.73322,67.733215 0 0 1 0.14883,0.193267 67.733215,67.733215 0 0 0 -0.14883,-0.193267 z m 1.69137,2.290811 a 67.73322,67.733215 0 0 1 0.20463,0.291456 67.733215,67.733215 0 0 0 -0.20463,-0.291456 z m 0.40772,0.583944 a 67.73322,67.733215 0 0 1 0.20154,0.293004 67.733215,67.733215 0 0 0 -0.20154,-0.293004 z m 2.49752,3.89433 a 67.73322,67.733215 0 0 1 0.0899,0.151927 67.733215,67.733215 0 0 0 -0.0899,-0.151927 z m 2.8546,5.334032 a 67.73322,67.733215 0 0 1 0.30438,0.643888 67.733215,67.733215 0 0 0 -0.30438,-0.643888 z m 0.30438,0.643888 a 67.73322,67.733215 0 0 1 0.14934,0.322975 67.733215,67.733215 0 0 0 -0.14934,-0.322975 z m 2.42878,5.926757 a 67.73322,67.733215 0 0 1 0.0868,0.245982 67.733215,67.733215 0 0 0 -0.0868,-0.245982 z m 0.57413,1.684652 a 67.73322,67.733215 0 0 1 0.0754,0.233577 67.733215,67.733215 0 0 0 -0.0754,-0.233577 z m 0.52968,1.699116 a 67.73322,67.733215 0 0 1 0.0822,0.278018 67.733215,67.733215 0 0 0 -0.0822,-0.278018 z m 0.92449,3.436996 a 67.73322,67.733215 0 0 1 0.0641,0.269234 67.733215,67.733215 0 0 0 -0.0641,-0.269234 z m 0.39429,1.735806 a 67.73322,67.733215 0 0 1 0.0734,0.348298 67.733215,67.733215 0 0 0 -0.0734,-0.348298 z m 0.59428,3.148122 a 67.73322,67.733215 0 0 1 0.0568,0.351403 67.733215,67.733215 0 0 0 -0.0568,-0.351403 z m 0.62683,4.942843 a 67.73322,67.733215 0 0 1 0.0295,0.335896 67.733215,67.733215 0 0 0 -0.0295,-0.335896 z m 0.11214,1.419552 a 67.73322,67.733215 0 0 1 0.045,0.710548 67.733215,67.733215 0 0 0 -0.045,-0.710548 z m 0.0982,1.777148 a 67.73322,67.733215 0 0 1 0.0124,0.320393 67.733215,67.733215 0 0 0 -0.0124,-0.320393 z" />
        </g>
        <g
           aria-label="liveg.tech"
           id="text2419"
           style="font-size:15.6468px;line-height:1.25;font-family:'URW Gothic';-inkscape-font-specification:'URW Gothic';letter-spacing:0px;word-spacing:0px;stroke-width:0.391171">
          <path
             d="m 55.09264,29.49946 h 1.157863 V 17.936475 H 55.09264 Z"
             style="stroke-width:0.391171"
             id="path2438" />
          <path
             d="m 58.221982,29.49946 h 1.157863 v -8.558799 h -1.157863 z m 0,-9.591488 h 1.157863 v -1.971497 h -1.157863 z"
             style="stroke-width:0.391171"
             id="path2440" />
          <path
             d="m 64.167735,29.49946 h 1.22045 l 3.598764,-8.558799 h -1.17351 l -3.066772,7.197528 -3.004186,-7.197528 h -1.17351 z"
             style="stroke-width:0.391171"
             id="path2442" />
          <path
             d="m 78.328053,25.603407 c 0,-1.17351 -0.156468,-1.893263 -0.578931,-2.644309 -0.766693,-1.376919 -2.253139,-2.221846 -3.896053,-2.221846 -2.487842,0 -4.428045,1.95585 -4.428045,4.443691 0,2.534782 1.987144,4.521926 4.521925,4.521926 1.86197,0 3.536177,-1.204804 4.162049,-3.019833 h -1.204803 c -0.485051,1.17351 -1.689855,1.95585 -2.988539,1.95585 -1.768089,0 -3.238888,-1.345625 -3.332769,-3.035479 z m -7.713872,-1.048336 c 0.312936,-1.642914 1.61162,-2.753836 3.238888,-2.753836 1.65856,0 2.910304,1.032688 3.317121,2.753836 z"
             style="stroke-width:0.391171"
             id="path2444" />
          <path
             d="M 88.498459,20.940661 H 87.340596 V 22.4584 c -0.860574,-1.189157 -1.90891,-1.721148 -3.364062,-1.721148 -2.503488,0 -4.365458,1.940203 -4.365458,4.521925 0,2.503488 1.940204,4.443692 4.459338,4.443692 1.549034,0 2.597369,-0.625872 3.270182,-1.940204 v 0.578932 c 0,0.844927 -0.09388,1.376918 -0.34423,1.90891 -0.453757,0.985748 -1.470799,1.549033 -2.800777,1.549033 -0.954455,0 -1.689855,-0.281643 -2.30008,-0.860574 -0.297289,-0.265996 -0.485051,-0.531991 -0.844927,-1.17351 h -1.12657 c 0.625872,2.00279 2.143612,3.098066 4.30287,3.098066 1.486446,0 2.73819,-0.563285 3.47359,-1.533386 0.578932,-0.78234 0.797987,-1.689855 0.797987,-3.364062 z m -4.443691,0.860574 c 1.846322,0 3.285828,1.455152 3.285828,3.317121 0,2.002791 -1.408212,3.52053 -3.270182,3.52053 -1.877616,0 -3.285828,-1.486446 -3.285828,-3.473589 0,-1.95585 1.376919,-3.364062 3.270182,-3.364062 z"
             style="stroke-width:0.391171"
             id="path2446" />
          <path
             d="M 91.001897,29.49946 H 92.15976 V 27.527963 H 91.001897 Z"
             style="stroke-width:0.391171"
             id="path2448" />
          <path
             d="m 95.789795,29.49946 h 1.157863 v -7.510464 h 1.924556 v -1.048335 h -1.924556 v -3.004186 h -1.157863 v 3.004186 h -1.846323 v 1.048335 h 1.846323 z"
             style="stroke-width:0.391171"
             id="path2450" />
          <path
             d="m 108.24462,25.603407 c 0,-1.17351 -0.15646,-1.893263 -0.57893,-2.644309 -0.76669,-1.376919 -2.25314,-2.221846 -3.89605,-2.221846 -2.48784,0 -4.428045,1.95585 -4.428045,4.443691 0,2.534782 1.987145,4.521926 4.521925,4.521926 1.86197,0 3.53618,-1.204804 4.16205,-3.019833 h -1.2048 c -0.48506,1.17351 -1.68986,1.95585 -2.98854,1.95585 -1.76809,0 -3.23889,-1.345625 -3.33277,-3.035479 z m -7.71387,-1.048336 c 0.31294,-1.642914 1.61162,-2.753836 3.23889,-2.753836 1.65856,0 2.9103,1.032688 3.31712,2.753836 z"
             style="stroke-width:0.391171"
             id="path2452" />
          <path
             d="m 117.05377,26.980325 c -0.89187,1.189157 -1.7055,1.658561 -2.9416,1.658561 -1.90891,0 -3.42665,-1.502093 -3.42665,-3.411002 0,-1.924557 1.48644,-3.426649 3.39535,-3.426649 1.2674,0 2.31573,0.610225 2.9729,1.736794 h 1.29868 c -0.68846,-1.721148 -2.33137,-2.800777 -4.25593,-2.800777 -2.56607,0 -4.58451,1.971497 -4.58451,4.459338 0,2.550429 2.03408,4.506279 4.66275,4.506279 1.06398,0 2.04973,-0.328583 2.84771,-0.970102 0.54764,-0.43811 0.87622,-0.860574 1.34563,-1.752442 z"
             style="stroke-width:0.391171"
             id="path2454" />
          <path
             d="m 119.91712,29.49946 h 1.15786 v -4.69404 c 0,-0.923161 0.12518,-1.470799 0.46941,-1.940203 0.4694,-0.672812 1.26739,-1.063982 2.14361,-1.063982 0.82928,0 1.61162,0.344229 2.06537,0.923161 0.40682,0.516344 0.57894,1.17351 0.57894,2.174905 v 4.600159 h 1.15786 v -4.600159 c 0,-1.283038 -0.2347,-2.174905 -0.7354,-2.847718 -0.64152,-0.82928 -1.72115,-1.314331 -2.97289,-1.314331 -1.15787,0 -2.12797,0.469404 -2.7069,1.314331 v -4.115108 h -1.15786 z"
             style="stroke-width:0.391171"
             id="path2456" />
        </g>
      </g>
    </g>
  </g>
</svg>
