<?xml version="1.0" encoding="UTF-8" standalone="no"?>
<svg
   xmlns:dc="http://purl.org/dc/elements/1.1/"
   xmlns:cc="http://creativecommons.org/ns#"
   xmlns:rdf="http://www.w3.org/1999/02/22-rdf-syntax-ns#"
   xmlns:svg="http://www.w3.org/2000/svg"
   xmlns="http://www.w3.org/2000/svg"
   xmlns:sodipodi="http://sodipodi.sourceforge.net/DTD/sodipodi-0.dtd"
   xmlns:inkscape="http://www.inkscape.org/namespaces/inkscape"
   width="512"
   height="192"
   viewBox="0 0 135.46666 50.8"
   version="1.1"
   id="svg8"
   inkscape:version="1.0.1 (3bc2e81, 2020-09-07)"
   sodipodi:docname="supported-light-monochrome.svg">
  <defs
     id="defs2" />
  <sodipodi:namedview
     id="base"
     pagecolor="#ffffff"
     bordercolor="#666666"
     borderopacity="1.0"
     inkscape:pageopacity="0.0"
     inkscape:pageshadow="2"
     inkscape:zoom="0.84956657"
     inkscape:cx="184.80801"
     inkscape:cy="255.00138"
     inkscape:document-units="px"
     inkscape:current-layer="layer1"
     inkscape:document-rotation="0"
     showgrid="false"
     units="px"
     inkscape:window-width="1920"
     inkscape:window-height="1026"
     inkscape:window-x="0"
     inkscape:window-y="32"
     inkscape:window-maximized="1" />
  <metadata
     id="metadata5">
    <rdf:RDF>
      <cc:Work
         rdf:about="">
        <dc:format>image/svg+xml</dc:format>
        <dc:type
           rdf:resource="http://purl.org/dc/dcmitype/StillImage" />
        <dc:title />
      </cc:Work>
    </rdf:RDF>
  </metadata>
  <g
     inkscape:label="Layer 1"
     inkscape:groupmode="layer"
     id="layer1">
    <path
       id="path833-6-3"
       style="fill:#ffffff;fill-opacity:1;stroke:none;stroke-width:0.363974;stop-color:#000000"
       d="M 25.514417,7.6442122 A 17.755789,17.755789 0 0 0 7.7586248,25.399999 17.755789,17.755789 0 0 0 25.514417,43.155786 17.755789,17.755789 0 0 0 43.270204,25.399999 H 25.514417 Z M 43.270204,25.399999 a 17.755789,17.755789 0 0 0 -2.63e-4,-0.09333 17.755791,17.755789 0 0 1 2.63e-4,0.09333 z M 26.063053,7.6527453 a 17.755791,17.755789 0 0 1 0.07992,0.00286 17.755789,17.755789 0 0 0 -0.07992,-0.00286 z m 0.838533,0.045808 a 17.755791,17.755789 0 0 1 0.06366,0.00476 17.755789,17.755789 0 0 0 -0.06366,-0.00476 z m 0.464647,0.04257 a 17.755791,17.755789 0 0 1 0.07966,0.00857 17.755789,17.755789 0 0 0 -0.07966,-0.00857 z m 0.185456,0.020475 a 17.755791,17.755789 0 0 1 0.185317,0.02238 17.755789,17.755789 0 0 0 -0.185317,-0.02238 z m 0.462749,0.059617 a 17.755791,17.755789 0 0 1 0.09239,0.013428 17.755789,17.755789 0 0 0 -0.09239,-0.013428 z m 0.184641,0.027237 a 17.755791,17.755789 0 0 1 0.07193,0.011238 17.755789,17.755789 0 0 0 -0.07193,-0.011238 z m 0.276487,0.04457 a 17.755791,17.755789 0 0 1 0.09185,0.015713 17.755789,17.755789 0 0 0 -0.09185,-0.015713 z m 0.824446,0.1595752 a 17.755791,17.755789 0 0 1 0.08318,0.018285 17.755789,17.755789 0 0 0 -0.08318,-0.018285 z m 1.532795,0.4069374 a 17.755791,17.755789 0 0 1 0.08886,0.028189 17.755789,17.755789 0 0 0 -0.08886,-0.028189 z m 0.969802,0.3355496 a 17.755791,17.755789 0 0 1 0.08724,0.033332 17.755789,17.755789 0 0 0 -0.08724,-0.033332 z m 0.08724,0.033332 a 17.755791,17.755789 0 0 1 0.08562,0.033237 17.755789,17.755789 0 0 0 -0.08562,-0.033237 z m 1.703487,0.7603721 a 17.755791,17.755789 0 0 1 0.06625,0.033998 17.755789,17.755789 0 0 0 -0.06625,-0.033998 z m 0.412628,0.2176961 a 17.755791,17.755789 0 0 1 0.08181,0.044856 17.755789,17.755789 0 0 0 -0.08181,-0.044856 z m 0.244786,0.135872 a 17.755791,17.755789 0 0 1 0.0802,0.045521 17.755789,17.755789 0 0 0 -0.0802,-0.045521 z m 0.162017,0.092666 a 17.755791,17.755789 0 0 1 0.130859,0.07657 17.755789,17.755789 0 0 0 -0.130859,-0.07657 z m 1.563006,1.018429 a 17.755791,17.755789 0 0 1 0.05445,0.03981 17.755789,17.755789 0 0 0 -0.05445,-0.03981 z m 0.593746,0.452317 a 17.755791,17.755789 0 0 1 0.04728,0.0378 17.755789,17.755789 0 0 0 -0.04728,-0.0378 z m 0.922794,0.787199 a 17.755791,17.755789 0 0 1 0.06868,0.06314 17.755789,17.755789 0 0 0 -0.06868,-0.06314 z m 0.802229,0.780953 a 17.755791,17.755789 0 0 1 0.0531,0.05524 17.755789,17.755789 0 0 0 -0.0531,-0.05524 z m 0.382286,0.409109 a 17.755791,17.755789 0 0 1 0.03929,0.04362 17.755789,17.755789 0 0 0 -0.03929,-0.04362 z m 0.308592,0.349911 a 17.755791,17.755789 0 0 1 0.0397,0.04647 17.755789,17.755789 0 0 0 -0.0397,-0.04647 z m 0.589005,0.723658 a 17.755791,17.755789 0 0 1 0.03902,0.05066 17.755789,17.755789 0 0 0 -0.03902,-0.05066 z m 0.44338,0.600522 a 17.755791,17.755789 0 0 1 0.05365,0.07638 17.755789,17.755789 0 0 0 -0.05365,-0.07638 z m 0.106884,0.15308 a 17.755791,17.755789 0 0 1 0.05284,0.07686 17.755789,17.755789 0 0 0 -0.05284,-0.07686 z m 0.654706,1.020867 a 17.755791,17.755789 0 0 1 0.02356,0.03981 17.755789,17.755789 0 0 0 -0.02356,-0.03981 z m 0.748312,1.398282 a 17.755791,17.755789 0 0 1 0.07979,0.168784 17.755789,17.755789 0 0 0 -0.07979,-0.168784 z m 0.07979,0.168784 a 17.755791,17.755789 0 0 1 0.03915,0.08466 17.755789,17.755789 0 0 0 -0.03915,-0.08466 z m 0.636689,1.553658 a 17.755791,17.755789 0 0 1 0.02275,0.06448 17.755789,17.755789 0 0 0 -0.02275,-0.06448 z m 0.150501,0.441622 a 17.755791,17.755789 0 0 1 0.01977,0.06124 17.755789,17.755789 0 0 0 -0.01977,-0.06124 z m 0.138854,0.445412 a 17.755791,17.755789 0 0 1 0.02155,0.07286 17.755789,17.755789 0 0 0 -0.02155,-0.07286 z m 0.242348,0.900986 a 17.755791,17.755789 0 0 1 0.01681,0.07057 17.755789,17.755789 0 0 0 -0.01681,-0.07057 z m 0.103361,0.455031 a 17.755791,17.755789 0 0 1 0.01924,0.09133 17.755789,17.755789 0 0 0 -0.01924,-0.09133 z m 0.155785,0.825255 a 17.755791,17.755789 0 0 1 0.01489,0.09209 17.755789,17.755789 0 0 0 -0.01489,-0.09209 z m 0.164322,1.295733 a 17.755791,17.755789 0 0 1 0.0077,0.0881 17.755789,17.755789 0 0 0 -0.0077,-0.0881 z m 0.02939,0.37213 a 17.755791,17.755789 0 0 1 0.0118,0.186259 17.755789,17.755789 0 0 0 -0.0118,-0.186259 z m 0.02574,0.465859 a 17.755791,17.755789 0 0 1 0.0033,0.084 17.755789,17.755789 0 0 0 -0.0033,-0.084 z" />
    <path
       id="path2399"
       style="fill:#ffffff;stroke-width:0.991992;stop-color:#000000;fill-opacity:1"
       d="M 25.514417,7.6442122 A 17.755789,17.755789 0 0 0 7.7586248,25.399999 17.755789,17.755789 0 0 0 25.514417,43.155786 17.755789,17.755789 0 0 0 43.270204,25.399999 17.755789,17.755789 0 0 0 25.514417,7.6442122 Z m 0,1.6646057 A 16.091183,16.091183 0 0 1 41.605598,25.399999 16.091183,16.091183 0 0 1 25.514417,41.491181 16.091183,16.091183 0 0 1 9.4232305,25.399999 16.091183,16.091183 0 0 1 25.514417,9.3088179 Z" />
    <g
       aria-label="Supported by LiveG"
       id="text845"
       style="font-size:14.6124px;line-height:1.25;font-family:'DejaVu Sans Mono';-inkscape-font-specification:'DejaVu Sans Mono';word-spacing:0px;stroke-width:0.365312;fill:#ffffff;fill-opacity:1"
       transform="translate(1.06e-4,-8.4666653)">
      <path
         d="m 54.440472,25.477993 c 0.102287,1.943449 1.432015,3.214728 3.375465,3.214728 1.870387,0 3.258565,-1.358953 3.258565,-3.200115 0,-0.949806 -0.394535,-1.797326 -1.081318,-2.30876 C 59.554812,22.862374 59.101828,22.6578 57.991285,22.321715 57.012255,22.029467 56.690782,21.897955 56.398534,21.649544 56.091673,21.371909 55.8871,20.8897 55.8871,20.392878 c 0,-1.081318 0.789069,-1.885 1.870387,-1.885 1.09593,0 1.855775,0.759845 1.928837,1.928837 h 1.125155 c -0.04384,-1.753488 -1.256667,-2.92248 -3.024767,-2.92248 -1.738876,0 -2.995542,1.227442 -2.995542,2.907868 0,0.745232 0.277635,1.46124 0.759845,1.914224 0.423759,0.409147 0.759844,0.569884 2.016511,0.949806 0.847519,0.263023 1.315116,0.467597 1.665814,0.716008 0.482209,0.336085 0.745232,0.891356 0.745232,1.548914 0,1.242054 -0.905969,2.148023 -2.133411,2.148023 -0.686782,0 -1.34434,-0.30686 -1.738875,-0.803682 -0.306861,-0.379922 -0.438372,-0.745232 -0.511434,-1.417403 z"
         style="font-style:normal;font-variant:normal;font-weight:normal;font-stretch:normal;font-family:'URW Gothic L';-inkscape-font-specification:'URW Gothic L';stroke-width:0.365312;fill:#ffffff;fill-opacity:1"
         id="path863" />
      <path
         d="M 69.360418,20.509777 H 68.2791 v 4.106085 c 0,0.97903 -0.146124,1.592751 -0.482209,2.089573 -0.452984,0.628333 -1.168992,0.993643 -2.001899,0.993643 -0.891356,0 -1.651201,-0.36531 -2.016511,-1.008256 -0.248411,-0.409147 -0.379922,-1.052092 -0.379922,-1.870387 v -4.310658 h -1.081318 v 4.310658 c 0,1.183605 0.204574,2.016511 0.628333,2.601007 0.599109,0.832907 1.563527,1.271279 2.761744,1.271279 1.242054,0 2.031123,-0.438372 2.571782,-1.432015 v 1.242054 h 1.081318 z"
         style="font-style:normal;font-variant:normal;font-weight:normal;font-stretch:normal;font-family:'URW Gothic L';-inkscape-font-specification:'URW Gothic L';stroke-width:0.365312;fill:#ffffff;fill-opacity:1"
         id="path865" />
      <path
         d="m 71.193134,20.509777 v 10.798564 h 1.081317 v -4.179147 c 0.701396,1.022868 1.782713,1.563527 3.112442,1.563527 2.381821,0 4.237596,-1.82655 4.237596,-4.164534 0,-2.381821 -1.82655,-4.208371 -4.208372,-4.208371 -1.358953,0 -2.469495,0.555271 -3.141666,1.563527 v -1.373566 z m 4.179146,0.803682 c 1.797325,0 3.156279,1.373566 3.156279,3.214728 0,1.797325 -1.358954,3.170891 -3.141666,3.170891 -1.82655,0 -3.185504,-1.388178 -3.185504,-3.22934 0,-1.768101 1.402791,-3.156279 3.170891,-3.156279 z"
         style="font-style:normal;font-variant:normal;font-weight:normal;font-stretch:normal;font-family:'URW Gothic L';-inkscape-font-specification:'URW Gothic L';stroke-width:0.365312;fill:#ffffff;fill-opacity:1"
         id="path867" />
      <path
         d="m 81.153537,20.509777 v 10.798564 h 1.081318 v -4.179147 c 0.701395,1.022868 1.782713,1.563527 3.112441,1.563527 2.381821,0 4.237596,-1.82655 4.237596,-4.164534 0,-2.381821 -1.82655,-4.208371 -4.208371,-4.208371 -1.358953,0 -2.469496,0.555271 -3.141666,1.563527 v -1.373566 z m 4.179147,0.803682 c 1.797325,0 3.156278,1.373566 3.156278,3.214728 0,1.797325 -1.358953,3.170891 -3.141666,3.170891 -1.82655,0 -3.185503,-1.388178 -3.185503,-3.22934 0,-1.768101 1.40279,-3.156279 3.170891,-3.156279 z"
         style="font-style:normal;font-variant:normal;font-weight:normal;font-stretch:normal;font-family:'URW Gothic L';-inkscape-font-specification:'URW Gothic L';stroke-width:0.365312;fill:#ffffff;fill-opacity:1"
         id="path869" />
      <path
         d="m 95.000843,20.319816 c -2.367209,0 -4.193759,1.797325 -4.193759,4.135309 0,2.454883 1.797325,4.237596 4.281433,4.237596 2.337984,0 4.062247,-1.7681 4.062247,-4.164534 0,-2.440271 -1.753488,-4.208371 -4.149921,-4.208371 z m 0,0.993643 c 1.753488,0 3.053991,1.373566 3.053991,3.229341 0,1.82655 -1.256666,3.156278 -2.995542,3.156278 -1.841162,0 -3.156278,-1.344341 -3.156278,-3.214728 0,-1.811938 1.329728,-3.170891 3.097829,-3.170891 z"
         style="font-style:normal;font-variant:normal;font-weight:normal;font-stretch:normal;font-family:'URW Gothic L';-inkscape-font-specification:'URW Gothic L';stroke-width:0.365312;fill:#ffffff;fill-opacity:1"
         id="path871" />
      <path
         d="m 100.67479,28.50276 h 1.08132 v -4.661356 c 0,-1.490464 0.75984,-2.308759 2.26492,-2.454883 v -1.066705 c -1.15438,0.05845 -1.84116,0.452984 -2.26492,1.329728 v -1.139767 h -1.08132 z"
         style="font-style:normal;font-variant:normal;font-weight:normal;font-stretch:normal;font-family:'URW Gothic L';-inkscape-font-specification:'URW Gothic L';stroke-width:0.365312;fill:#ffffff;fill-opacity:1"
         id="path873" />
      <path
         d="m 106.04896,28.50276 h 1.08132 v -7.013952 h 1.79732 v -0.979031 h -1.79732 v -2.805581 h -1.08132 v 2.805581 h -1.72427 v 0.979031 h 1.72427 z"
         style="font-style:normal;font-variant:normal;font-weight:normal;font-stretch:normal;font-family:'URW Gothic L';-inkscape-font-specification:'URW Gothic L';stroke-width:0.365312;fill:#ffffff;fill-opacity:1"
         id="path875" />
      <path
         d="m 118.04345,24.864272 c 0,-1.09593 -0.14612,-1.7681 -0.54066,-2.469495 -0.716,-1.271279 -2.10418,-2.074961 -3.62387,-2.074961 -2.32337,0 -4.14992,1.82655 -4.14992,4.149922 0,2.367208 1.85577,4.222983 4.22298,4.222983 1.02287,0 1.98729,-0.379922 2.71791,-1.066705 0.56988,-0.540659 0.9498,-1.09593 1.16899,-1.753488 h -1.12516 c -0.45298,1.09593 -1.57813,1.82655 -2.79096,1.82655 -1.63659,0 -3.02477,-1.256666 -3.11245,-2.834806 z m -7.20391,-0.97903 c 0.29225,-1.534302 1.50508,-2.571783 3.02477,-2.571783 1.54891,0 2.73252,0.979031 3.09783,2.571783 z"
         style="font-style:normal;font-variant:normal;font-weight:normal;font-stretch:normal;font-family:'URW Gothic L';-inkscape-font-specification:'URW Gothic L';stroke-width:0.365312;fill:#ffffff;fill-opacity:1"
         id="path877" />
      <path
         d="m 127.70796,17.704196 h -1.08132 v 4.07686 c -0.78907,-0.949806 -1.885,-1.46124 -3.14167,-1.46124 -2.41104,0 -4.2522,1.811938 -4.2522,4.193759 0,2.367209 1.885,4.179146 4.35449,4.179146 1.32973,0 2.2357,-0.482209 3.03938,-1.636589 v 1.446628 h 1.08132 z m -4.25221,3.609263 c 1.7681,0 3.21473,1.417403 3.21473,3.170891 0,1.753488 -1.40279,3.214728 -3.11244,3.214728 -1.82655,0 -3.22934,-1.40279 -3.22934,-3.22934 0,-1.753488 1.38817,-3.156279 3.12705,-3.156279 z"
         style="font-style:normal;font-variant:normal;font-weight:normal;font-stretch:normal;font-family:'URW Gothic L';-inkscape-font-specification:'URW Gothic L';stroke-width:0.365312;fill:#ffffff;fill-opacity:1"
         id="path879" />
      <path
         d="m 55.039581,47.413484 h 1.081317 v -1.373565 c 0.672171,0.993643 1.811938,1.563527 3.127054,1.563527 2.411046,0 4.222984,-1.797326 4.222984,-4.193759 0,-2.352597 -1.841163,-4.179147 -4.208372,-4.179147 -1.344341,0 -2.454883,0.555271 -3.141666,1.563527 v -4.179146 h -1.081317 z m 4.193759,-7.189301 c 1.797325,0 3.141666,1.358954 3.141666,3.156279 0,1.841162 -1.358954,3.22934 -3.156279,3.22934 -0.891356,0 -1.621976,-0.30686 -2.25031,-0.949806 -0.628333,-0.642945 -0.920581,-1.373565 -0.920581,-2.279534 0,-1.768101 1.402791,-3.156279 3.185504,-3.156279 z"
         style="font-style:normal;font-variant:normal;font-weight:normal;font-stretch:normal;font-family:'URW Gothic L';-inkscape-font-specification:'URW Gothic L';stroke-width:0.365312;fill:#ffffff;fill-opacity:1"
         id="path881" />
      <path
         d="m 66.008242,50.219065 h 1.154379 L 71.78014,39.420501 h -1.15438 l -2.703294,6.371007 -2.527945,-6.371007 h -1.183605 l 3.097829,7.72996 z"
         style="font-style:normal;font-variant:normal;font-weight:normal;font-stretch:normal;font-family:'URW Gothic L';-inkscape-font-specification:'URW Gothic L';stroke-width:0.365312;fill:#ffffff;fill-opacity:1"
         id="path883" />
      <path
         d="m 77.062523,47.413484 h 5.552712 v -0.97903 h -4.471394 v -9.819533 h -1.081318 z"
         style="font-style:normal;font-variant:normal;font-weight:normal;font-stretch:normal;font-family:'URW Gothic L';-inkscape-font-specification:'URW Gothic L';stroke-width:0.365312;fill:#ffffff;fill-opacity:1"
         id="path885" />
      <path
         d="m 83.636505,47.413484 h 1.081317 v -7.992983 h -1.081317 z m 0,-8.957401 h 1.081317 v -1.841162 h -1.081317 z"
         style="font-style:normal;font-variant:normal;font-weight:normal;font-stretch:normal;font-family:'URW Gothic L';-inkscape-font-specification:'URW Gothic L';stroke-width:0.365312;fill:#ffffff;fill-opacity:1"
         id="path887" />
      <path
         d="m 89.104739,47.413484 h 1.139767 l 3.360852,-7.992983 h -1.09593 l -2.864031,6.721705 -2.80558,-6.721705 h -1.09593 z"
         style="font-style:normal;font-variant:normal;font-weight:normal;font-stretch:normal;font-family:'URW Gothic L';-inkscape-font-specification:'URW Gothic L';stroke-width:0.365312;fill:#ffffff;fill-opacity:1"
         id="path889" />
      <path
         d="m 102.66048,43.774997 c 0,-1.09593 -0.14612,-1.768101 -0.54066,-2.469496 -0.71601,-1.271279 -2.10418,-2.074961 -3.623874,-2.074961 -2.323372,0 -4.149922,1.82655 -4.149922,4.149922 0,2.367209 1.855775,4.222984 4.222984,4.222984 1.022868,0 1.987282,-0.379923 2.717902,-1.066706 0.56989,-0.540658 0.94981,-1.09593 1.169,-1.753488 h -1.12516 c -0.45298,1.09593 -1.578138,1.82655 -2.790967,1.82655 -1.636589,0 -3.024767,-1.256666 -3.112441,-2.834805 z m -7.203913,-0.979031 c 0.292248,-1.534302 1.505077,-2.571783 3.024767,-2.571783 1.548916,0 2.732516,0.979031 3.097826,2.571783 z"
         style="font-style:normal;font-variant:normal;font-weight:normal;font-stretch:normal;font-family:'URW Gothic L';-inkscape-font-specification:'URW Gothic L';stroke-width:0.365312;fill:#ffffff;fill-opacity:1"
         id="path891" />
      <path
         d="m 108.04355,42.430656 v 0.979031 h 6.03492 c -0.16074,0.701395 -0.52605,1.300503 -1.13977,1.914224 -0.8329,0.832907 -1.97267,1.285891 -3.22934,1.285891 -2.64484,0 -4.73442,-2.016511 -4.73442,-4.588293 0,-2.601008 2.06035,-4.602906 4.71981,-4.602906 1.66581,0 3.0686,0.759844 3.81384,2.07496 h 1.21283 c -0.71601,-1.841162 -2.76175,-3.068604 -5.11434,-3.068604 -3.21473,0 -5.72807,2.440271 -5.72807,5.567325 0,3.156278 2.57179,5.611162 5.87419,5.611162 1.70965,0 3.17089,-0.642946 4.20837,-1.82655 0.87674,-1.008256 1.34434,-2.133411 1.4174,-3.34624 z"
         style="font-style:normal;font-variant:normal;font-weight:normal;font-stretch:normal;font-family:'URW Gothic L';-inkscape-font-specification:'URW Gothic L';stroke-width:0.365312;fill:#ffffff;fill-opacity:1"
         id="path893" />
    </g>
  </g>
</svg>
