<?xml version="1.0" encoding="UTF-8" standalone="no"?>
<svg
   xmlns:dc="http://purl.org/dc/elements/1.1/"
   xmlns:cc="http://creativecommons.org/ns#"
   xmlns:rdf="http://www.w3.org/1999/02/22-rdf-syntax-ns#"
   xmlns:svg="http://www.w3.org/2000/svg"
   xmlns="http://www.w3.org/2000/svg"
   xmlns:sodipodi="http://sodipodi.sourceforge.net/DTD/sodipodi-0.dtd"
   xmlns:inkscape="http://www.inkscape.org/namespaces/inkscape"
   width="512"
   height="192"
   viewBox="0 0 135.46666 50.8"
   version="1.1"
   id="svg8"
   inkscape:version="1.0.1 (3bc2e81, 2020-09-07)"
   sodipodi:docname="wordmark-dark.svg">
  <defs
     id="defs2" />
  <sodipodi:namedview
     id="base"
     pagecolor="#ffffff"
     bordercolor="#666666"
     borderopacity="1.0"
     inkscape:pageopacity="0.0"
     inkscape:pageshadow="2"
     inkscape:zoom="1.2014686"
     inkscape:cx="232.40879"
     inkscape:cy="69.42084"
     inkscape:document-units="px"
     inkscape:current-layer="g2461"
     inkscape:document-rotation="0"
     showgrid="false"
     units="px"
     inkscape:window-width="1920"
     inkscape:window-height="1026"
     inkscape:window-x="0"
     inkscape:window-y="32"
     inkscape:window-maximized="1" />
  <metadata
     id="metadata5">
    <rdf:RDF>
      <cc:Work
         rdf:about="">
        <dc:format>image/svg+xml</dc:format>
        <dc:type
           rdf:resource="http://purl.org/dc/dcmitype/StillImage" />
        <dc:title />
      </cc:Work>
    </rdf:RDF>
  </metadata>
  <g
     inkscape:label="Layer 1"
     inkscape:groupmode="layer"
     id="layer1">
    <g
       id="g2461">
      <g
         id="g2500">
        <g
           inkscape:label="Layer 1"
           id="layer1-3"
           transform="matrix(0.26214301,0,0,0.26214301,7.758597,7.6441797)">
          <path
             id="rect835"
             style="fill:#ffff00;fill-opacity:1;stroke:none;stroke-width:0.830125;stop-color:#000000"
             d="M 67.733332,0 V 67.733332 H 135.46667 A 67.733334,67.73333 0 0 0 67.733332,0 Z" />
          <path
             id="path833-6"
             style="fill:#00b0f0;fill-opacity:1;stroke:none;stroke-width:5.24772;stop-color:#000000"
             d="M 256,0 A 255.99999,255.99999 0 0 0 0,256 255.99999,255.99999 0 0 0 256,512 255.99999,255.99999 0 0 0 512,256 H 256 Z M 512,256 A 255.99999,255.99999 0 0 0 511.996,254.6543 256.00001,255.99999 0 0 1 512,256 Z M 263.91016,0.12304688 a 256.00001,255.99999 0 0 1 1.15234,0.0390625 255.99999,255.99999 0 0 0 -1.15234,-0.0390625 z M 276,0.78320312 a 256.00001,255.99999 0 0 1 0.91797,0.0742188 A 255.99999,255.99999 0 0 0 276,0.78320312 Z m 6.69922,0.61328128 a 256.00001,255.99999 0 0 1 1.14844,0.1230468 255.99999,255.99999 0 0 0 -1.14844,-0.1230468 z m 2.67383,0.2949218 a 256.00001,255.99999 0 0 1 2.67187,0.3222657 255.99999,255.99999 0 0 0 -2.67187,-0.3222657 z m 6.67187,0.859375 a 256.00001,255.99999 0 0 1 1.33203,0.1933594 255.99999,255.99999 0 0 0 -1.33203,-0.1933594 z m 2.66211,0.3925782 a 256.00001,255.99999 0 0 1 1.03711,0.1621094 255.99999,255.99999 0 0 0 -1.03711,-0.1621094 z m 3.98633,0.6425781 A 256.00001,255.99999 0 0 1 300.01758,3.8125 255.99999,255.99999 0 0 0 298.69336,3.5859375 Z m 11.88672,2.3007813 a 256.00001,255.99999 0 0 1 1.19922,0.2636718 255.99999,255.99999 0 0 0 -1.19922,-0.2636718 z m 22.09961,5.8671872 a 256.00001,255.99999 0 0 1 1.28125,0.40625 255.99999,255.99999 0 0 0 -1.28125,-0.40625 z m 13.98242,4.837891 a 256.00001,255.99999 0 0 1 1.25781,0.480469 255.99999,255.99999 0 0 0 -1.25781,-0.480469 z m 1.25781,0.480469 a 256.00001,255.99999 0 0 1 1.23438,0.478515 255.99999,255.99999 0 0 0 -1.23438,-0.478515 z m 24.56055,10.96289 a 256.00001,255.99999 0 0 1 0.95508,0.490235 255.99999,255.99999 0 0 0 -0.95508,-0.490235 z m 5.94922,3.138672 a 256.00001,255.99999 0 0 1 1.17969,0.646484 255.99999,255.99999 0 0 0 -1.17969,-0.646484 z m 3.52929,1.958984 a 256.00001,255.99999 0 0 1 1.15625,0.65625 255.99999,255.99999 0 0 0 -1.15625,-0.65625 z m 2.33594,1.335938 a 256.00001,255.99999 0 0 1 1.88672,1.103516 255.99999,255.99999 0 0 0 -1.88672,-1.103516 z m 22.53516,14.683594 a 256.00001,255.99999 0 0 1 0.78515,0.574218 255.99999,255.99999 0 0 0 -0.78515,-0.574218 z m 8.56054,6.521484 a 256.00001,255.99999 0 0 1 0.68165,0.544922 255.99999,255.99999 0 0 0 -0.68165,-0.544922 z m 13.30469,11.34961 a 256.00001,255.99999 0 0 1 0.99024,0.910156 255.99999,255.99999 0 0 0 -0.99024,-0.910156 z m 11.56641,11.259765 a 256.00001,255.99999 0 0 1 0.76562,0.796875 255.99999,255.99999 0 0 0 -0.76562,-0.796875 z m 5.51172,5.898438 a 256.00001,255.99999 0 0 1 0.5664,0.628906 255.99999,255.99999 0 0 0 -0.5664,-0.628906 z m 4.44922,5.044921 a 256.00001,255.99999 0 0 1 0.57226,0.669922 255.99999,255.99999 0 0 0 -0.57226,-0.669922 z m 8.49218,10.433594 a 256.00001,255.99999 0 0 1 0.5625,0.730464 255.99999,255.99999 0 0 0 -0.5625,-0.730464 z m 6.39258,8.658204 a 256.00001,255.99999 0 0 1 0.77344,1.10156 255.99999,255.99999 0 0 0 -0.77344,-1.10156 z m 1.54102,2.20703 a 256.00001,255.99999 0 0 1 0.76172,1.10742 255.99999,255.99999 0 0 0 -0.76172,-1.10742 z m 9.43945,14.71875 a 256.00001,255.99999 0 0 1 0.33984,0.57422 255.99999,255.99999 0 0 0 -0.33984,-0.57422 z m 10.78906,20.16016 a 256.00001,255.99999 0 0 1 1.15039,2.43359 255.99999,255.99999 0 0 0 -1.15039,-2.43359 z m 1.15039,2.43359 a 256.00001,255.99999 0 0 1 0.56446,1.2207 255.99999,255.99999 0 0 0 -0.56446,-1.2207 z m 9.17969,22.40039 a 256.00001,255.99999 0 0 1 0.32813,0.92969 255.99999,255.99999 0 0 0 -0.32813,-0.92969 z m 2.16992,6.36719 a 256.00001,255.99999 0 0 1 0.28516,0.88281 255.99999,255.99999 0 0 0 -0.28516,-0.88281 z m 2.00196,6.42187 a 256.00001,255.99999 0 0 1 0.31054,1.05078 255.99999,255.99999 0 0 0 -0.31054,-1.05078 z m 3.49414,12.99024 a 256.00001,255.99999 0 0 1 0.24218,1.01758 255.99999,255.99999 0 0 0 -0.24218,-1.01758 z m 1.49023,6.56054 a 256.00001,255.99999 0 0 1 0.27734,1.31641 255.99999,255.99999 0 0 0 -0.27734,-1.31641 z m 2.2461,11.89844 a 256.00001,255.99999 0 0 1 0.21484,1.32813 255.99999,255.99999 0 0 0 -0.21484,-1.32813 z m 2.36914,18.68164 a 256.00001,255.99999 0 0 1 0.11132,1.26953 255.99999,255.99999 0 0 0 -0.11132,-1.26953 z m 0.42382,5.36524 a 256.00001,255.99999 0 0 1 0.16993,2.68554 255.99999,255.99999 0 0 0 -0.16993,-2.68554 z m 0.3711,6.71679 a 256.00001,255.99999 0 0 1 0.0469,1.21094 255.99999,255.99999 0 0 0 -0.0469,-1.21094 z"
             transform="scale(0.26458333)" />
        </g>
        <g
           aria-label="LiveG"
           id="text2436"
           style="font-size:27.7289px;line-height:1.25;font-family:'URW Gothic';-inkscape-font-specification:'URW Gothic';letter-spacing:0px;word-spacing:0px;stroke-width:0.253243">
          <g
             id="g2487">
            <g
               id="g2479">
              <path
                 d="M 55.084234,35.645828 H 65.621216 V 33.787992 H 57.136172 V 15.15417 h -2.051938 z"
                 style="stroke-width:0.253243"
                 id="path2463" />
              <path
                 d="m 67.756322,35.645828 h 2.051939 V 20.478119 h -2.051939 z m 0,-16.997816 h 2.051939 V 15.15417 h -2.051939 z"
                 style="stroke-width:0.253243"
                 id="path2465" />
              <path
                 d="m 78.29325,35.645828 h 2.162854 L 86.833751,20.478119 H 84.754084 L 79.319219,33.233414 73.99527,20.478119 h -2.079667 z"
                 style="stroke-width:0.253243"
                 id="path2467" />
              <path
                 d="m 103.38784,28.741332 c 0,-2.079668 -0.27729,-3.355197 -1.02597,-4.686184 -1.35872,-2.440144 -3.992962,-3.937504 -6.904497,-3.937504 -4.408895,0 -7.847279,3.466112 -7.847279,7.875008 0,4.492082 3.521571,8.013652 8.013653,8.013652 3.299739,0 6.266733,-2.135125 7.375883,-5.351678 h -2.13512 c -0.8596,2.079668 -2.994722,3.466113 -5.296221,3.466113 -3.133366,0 -5.739883,-2.384686 -5.906256,-5.379407 z M 89.717491,26.883496 c 0.554578,-2.911535 2.856076,-4.880287 5.739882,-4.880287 2.939264,0 5.157577,1.830107 5.878527,4.880287 z"
                 style="stroke-width:0.253243"
                 id="path2469" />
              <path
                 d="m 113.59207,26.190273 v 1.857836 h 11.45203 c -0.30502,1.330988 -0.99824,2.467873 -2.16285,3.632486 -1.58055,1.580548 -3.7434,2.440144 -6.12809,2.440144 -5.01893,0 -8.98416,-3.826589 -8.98416,-8.706875 0,-4.935745 3.88204,-8.734604 8.95643,-8.734604 3.1611,0 5.82307,1.441903 7.23724,3.937504 h 2.3015 c -1.35871,-3.493842 -5.24076,-5.823069 -9.70511,-5.823069 -6.10036,0 -10.86973,4.630726 -10.86973,10.564711 0,6.017172 4.85256,10.647898 11.14702,10.647898 3.24428,0 6.01717,-1.192343 7.98592,-3.466113 1.66373,-1.913294 2.55106,-4.048419 2.6897,-6.349918 z"
                 style="stroke-width:0.253243"
                 id="path2471" />
            </g>
          </g>
        </g>
      </g>
    </g>
  </g>
</svg>
