<?xml version="1.0" encoding="UTF-8" standalone="no"?>
<svg
   xmlns:dc="http://purl.org/dc/elements/1.1/"
   xmlns:cc="http://creativecommons.org/ns#"
   xmlns:rdf="http://www.w3.org/1999/02/22-rdf-syntax-ns#"
   xmlns:svg="http://www.w3.org/2000/svg"
   xmlns="http://www.w3.org/2000/svg"
   xmlns:sodipodi="http://sodipodi.sourceforge.net/DTD/sodipodi-0.dtd"
   xmlns:inkscape="http://www.inkscape.org/namespaces/inkscape"
   width="512"
   height="192"
   viewBox="0 0 135.46666 50.8"
   version="1.1"
   id="svg8"
   inkscape:version="1.0.1 (3bc2e81, 2020-09-07)"
   sodipodi:docname="wordmark-light-monochrome.svg">
  <defs
     id="defs2" />
  <sodipodi:namedview
     id="base"
     pagecolor="#ffffff"
     bordercolor="#666666"
     borderopacity="1.0"
     inkscape:pageopacity="0.0"
     inkscape:pageshadow="2"
     inkscape:zoom="0.84956659"
     inkscape:cx="186.99804"
     inkscape:cy="144.96079"
     inkscape:document-units="px"
     inkscape:current-layer="g2461"
     inkscape:document-rotation="0"
     showgrid="false"
     units="px"
     inkscape:window-width="1920"
     inkscape:window-height="1026"
     inkscape:window-x="0"
     inkscape:window-y="32"
     inkscape:window-maximized="1" />
  <metadata
     id="metadata5">
    <rdf:RDF>
      <cc:Work
         rdf:about="">
        <dc:format>image/svg+xml</dc:format>
        <dc:type
           rdf:resource="http://purl.org/dc/dcmitype/StillImage" />
        <dc:title />
      </cc:Work>
    </rdf:RDF>
  </metadata>
  <g
     inkscape:label="Layer 1"
     inkscape:groupmode="layer"
     id="layer1">
    <g
       id="g2461">
      <g
         id="g2448"
         style="fill:#ffffff;fill-opacity:1">
        <g
           aria-label="LiveG"
           id="text2436"
           style="font-size:27.7289px;line-height:1.25;font-family:'URW Gothic';-inkscape-font-specification:'URW Gothic';letter-spacing:0px;word-spacing:0px;stroke-width:0.253243;fill:#ffffff;fill-opacity:1">
          <g
             id="g2487"
             style="fill:#ffffff;fill-opacity:1">
            <g
               id="g2479"
               style="fill:#ffffff;fill-opacity:1">
              <path
                 d="M 55.084234,35.645828 H 65.621216 V 33.787992 H 57.136172 V 15.15417 h -2.051938 z"
                 style="stroke-width:0.253243;fill:#ffffff;fill-opacity:1"
                 id="path2463" />
              <path
                 d="m 67.756322,35.645828 h 2.051939 V 20.478119 h -2.051939 z m 0,-16.997816 h 2.051939 V 15.15417 h -2.051939 z"
                 style="stroke-width:0.253243;fill:#ffffff;fill-opacity:1"
                 id="path2465" />
              <path
                 d="m 78.29325,35.645828 h 2.162854 L 86.833751,20.478119 H 84.754084 L 79.319219,33.233414 73.99527,20.478119 h -2.079667 z"
                 style="stroke-width:0.253243;fill:#ffffff;fill-opacity:1"
                 id="path2467" />
              <path
                 d="m 103.38784,28.741332 c 0,-2.079668 -0.27729,-3.355197 -1.02597,-4.686184 -1.35872,-2.440144 -3.992962,-3.937504 -6.904497,-3.937504 -4.408895,0 -7.847279,3.466112 -7.847279,7.875008 0,4.492082 3.521571,8.013652 8.013653,8.013652 3.299739,0 6.266733,-2.135125 7.375883,-5.351678 h -2.13512 c -0.8596,2.079668 -2.994722,3.466113 -5.296221,3.466113 -3.133366,0 -5.739883,-2.384686 -5.906256,-5.379407 z M 89.717491,26.883496 c 0.554578,-2.911535 2.856076,-4.880287 5.739882,-4.880287 2.939264,0 5.157577,1.830107 5.878527,4.880287 z"
                 style="stroke-width:0.253243;fill:#ffffff;fill-opacity:1"
                 id="path2469" />
              <path
                 d="m 113.59207,26.190273 v 1.857836 h 11.45203 c -0.30502,1.330988 -0.99824,2.467873 -2.16285,3.632486 -1.58055,1.580548 -3.7434,2.440144 -6.12809,2.440144 -5.01893,0 -8.98416,-3.826589 -8.98416,-8.706875 0,-4.935745 3.88204,-8.734604 8.95643,-8.734604 3.1611,0 5.82307,1.441903 7.23724,3.937504 h 2.3015 c -1.35871,-3.493842 -5.24076,-5.823069 -9.70511,-5.823069 -6.10036,0 -10.86973,4.630726 -10.86973,10.564711 0,6.017172 4.85256,10.647898 11.14702,10.647898 3.24428,0 6.01717,-1.192343 7.98592,-3.466113 1.66373,-1.913294 2.55106,-4.048419 2.6897,-6.349918 z"
                 style="stroke-width:0.253243;fill:#ffffff;fill-opacity:1"
                 id="path2471" />
            </g>
          </g>
        </g>
        <g
           id="g2444"
           transform="matrix(1.0220168,0,0,1.0220168,-0.56174631,-0.55922588)"
           style="fill:#ffffff;fill-opacity:1">
          <path
             id="path833-6-3"
             style="fill:#ffffff;fill-opacity:1;stroke:none;stroke-width:0.356133;stop-color:#000000"
             d="M 25.514417,8.0267161 A 17.373285,17.373285 0 0 0 8.1411295,25.399999 17.373285,17.373285 0 0 0 25.514417,42.773282 17.373285,17.373285 0 0 0 42.8877,25.399999 H 25.514417 Z M 42.8877,25.399999 a 17.373285,17.373285 0 0 0 -2.57e-4,-0.09132 17.373287,17.373285 0 0 1 2.57e-4,0.09132 z M 26.051234,8.0350653 a 17.373287,17.373285 0 0 1 0.0782,0.0028 17.373285,17.373285 0 0 0 -0.0782,-0.0028 z m 0.820469,0.044821 a 17.373287,17.373285 0 0 1 0.06229,0.00466 17.373285,17.373285 0 0 0 -0.06229,-0.00466 z m 0.454638,0.041653 a 17.373287,17.373285 0 0 1 0.07794,0.00839 17.373285,17.373285 0 0 0 -0.07794,-0.00839 z m 0.181461,0.020034 a 17.373287,17.373285 0 0 1 0.181324,0.021898 17.373285,17.373285 0 0 0 -0.181324,-0.021898 z m 0.45278,0.058333 a 17.373287,17.373285 0 0 1 0.0904,0.013139 17.373285,17.373285 0 0 0 -0.0904,-0.013139 z m 0.180663,0.02665 a 17.373287,17.373285 0 0 1 0.07038,0.010996 17.373285,17.373285 0 0 0 -0.07038,-0.010996 z m 0.270531,0.04361 a 17.373287,17.373285 0 0 1 0.08987,0.015375 17.373285,17.373285 0 0 0 -0.08987,-0.015375 z m 0.806685,0.1561375 a 17.373287,17.373285 0 0 1 0.08139,0.017891 17.373285,17.373285 0 0 0 -0.08139,-0.017891 z m 1.499775,0.398171 a 17.373287,17.373285 0 0 1 0.08695,0.027582 17.373285,17.373285 0 0 0 -0.08695,-0.027582 z m 0.94891,0.328321 a 17.373287,17.373285 0 0 1 0.08536,0.032614 17.373285,17.373285 0 0 0 -0.08536,-0.032614 z m 0.08536,0.032614 a 17.373287,17.373285 0 0 1 0.08377,0.032521 17.373285,17.373285 0 0 0 -0.08377,-0.032521 z m 1.666789,0.7439918 a 17.373287,17.373285 0 0 1 0.06482,0.033266 17.373285,17.373285 0 0 0 -0.06482,-0.033266 z m 0.403739,0.2130064 a 17.373287,17.373285 0 0 1 0.08005,0.04389 17.373285,17.373285 0 0 0 -0.08005,-0.04389 z m 0.239513,0.132945 a 17.373287,17.373285 0 0 1 0.07847,0.04454 17.373285,17.373285 0 0 0 -0.07847,-0.04454 z m 0.158527,0.09067 a 17.373287,17.373285 0 0 1 0.12804,0.07492 17.373285,17.373285 0 0 0 -0.12804,-0.07492 z m 1.529335,0.996489 a 17.373287,17.373285 0 0 1 0.05328,0.03895 17.373285,17.373285 0 0 0 -0.05328,-0.03895 z m 0.580955,0.442573 a 17.373287,17.373285 0 0 1 0.04626,0.03699 17.373285,17.373285 0 0 0 -0.04626,-0.03699 z m 0.902915,0.770241 a 17.373287,17.373285 0 0 1 0.0672,0.06178 17.373285,17.373285 0 0 0 -0.0672,-0.06178 z m 0.784947,0.764129 a 17.373287,17.373285 0 0 1 0.05196,0.05405 17.373285,17.373285 0 0 0 -0.05196,-0.05405 z m 0.37405,0.400296 a 17.373287,17.373285 0 0 1 0.03844,0.04268 17.373285,17.373285 0 0 0 -0.03844,-0.04268 z m 0.301944,0.342373 a 17.373287,17.373285 0 0 1 0.03884,0.04547 17.373285,17.373285 0 0 0 -0.03884,-0.04547 z m 0.576317,0.708069 a 17.373287,17.373285 0 0 1 0.03818,0.04957 17.373285,17.373285 0 0 0 -0.03818,-0.04957 z m 0.433828,0.587585 a 17.373287,17.373285 0 0 1 0.05249,0.07473 17.373285,17.373285 0 0 0 -0.05249,-0.07473 z m 0.104582,0.149782 a 17.373287,17.373285 0 0 1 0.0517,0.0752 17.373285,17.373285 0 0 0 -0.0517,-0.0752 z m 0.640602,0.998875 a 17.373287,17.373285 0 0 1 0.02305,0.03895 17.373285,17.373285 0 0 0 -0.02305,-0.03895 z m 0.732191,1.36816 a 17.373287,17.373285 0 0 1 0.07807,0.165148 17.373285,17.373285 0 0 0 -0.07807,-0.165148 z m 0.07807,0.165148 a 17.373287,17.373285 0 0 1 0.03831,0.08284 17.373285,17.373285 0 0 0 -0.03831,-0.08284 z m 0.622973,1.520188 a 17.373287,17.373285 0 0 1 0.02226,0.06309 17.373285,17.373285 0 0 0 -0.02226,-0.06309 z m 0.147259,0.432108 a 17.373287,17.373285 0 0 1 0.01934,0.05992 17.373285,17.373285 0 0 0 -0.01934,-0.05992 z m 0.135863,0.435817 a 17.373287,17.373285 0 0 1 0.02109,0.07129 17.373285,17.373285 0 0 0 -0.02109,-0.07129 z m 0.237127,0.881577 a 17.373287,17.373285 0 0 1 0.01645,0.06905 17.373285,17.373285 0 0 0 -0.01645,-0.06905 z m 0.101135,0.445228 a 17.373287,17.373285 0 0 1 0.01882,0.08936 17.373285,17.373285 0 0 0 -0.01882,-0.08936 z m 0.152429,0.807477 a 17.373287,17.373285 0 0 1 0.01457,0.09011 17.373285,17.373285 0 0 0 -0.01457,-0.09011 z m 0.160782,1.26782 a 17.373287,17.373285 0 0 1 0.0075,0.0862 17.373285,17.373285 0 0 0 -0.0075,-0.0862 z m 0.02876,0.364113 a 17.373287,17.373285 0 0 1 0.01155,0.182247 17.373285,17.373285 0 0 0 -0.01155,-0.182247 z m 0.02519,0.455823 a 17.373287,17.373285 0 0 1 0.0032,0.08219 17.373285,17.373285 0 0 0 -0.0032,-0.08219 z" />
          <path
             id="path2399"
             style="fill:#ffffff;stroke-width:0.970622;stop-color:#000000;fill-opacity:1"
             d="M 25.514417,8.0267161 A 17.373285,17.373285 0 0 0 8.1411295,25.399999 17.373285,17.373285 0 0 0 25.514417,42.773282 17.373285,17.373285 0 0 0 42.8877,25.399999 17.373285,17.373285 0 0 0 25.514417,8.0267161 Z m 0,1.6287459 A 15.744539,15.744539 0 0 1 41.258954,25.399999 15.744539,15.744539 0 0 1 25.514417,41.144536 15.744539,15.744539 0 0 1 9.7698754,25.399999 15.744539,15.744539 0 0 1 25.514417,9.655462 Z" />
        </g>
      </g>
    </g>
  </g>
</svg>
