<?xml version="1.0" encoding="UTF-8" standalone="no"?>
<svg
   xmlns:dc="http://purl.org/dc/elements/1.1/"
   xmlns:cc="http://creativecommons.org/ns#"
   xmlns:rdf="http://www.w3.org/1999/02/22-rdf-syntax-ns#"
   xmlns:svg="http://www.w3.org/2000/svg"
   xmlns="http://www.w3.org/2000/svg"
   xmlns:sodipodi="http://sodipodi.sourceforge.net/DTD/sodipodi-0.dtd"
   xmlns:inkscape="http://www.inkscape.org/namespaces/inkscape"
   width="512"
   height="192"
   viewBox="0 0 135.46666 50.8"
   version="1.1"
   id="svg8"
   inkscape:version="1.0.1 (3bc2e81, 2020-09-07)"
   sodipodi:docname="wordmark-greyscale.svg">
  <defs
     id="defs2" />
  <sodipodi:namedview
     id="base"
     pagecolor="#ffffff"
     bordercolor="#666666"
     borderopacity="1.0"
     inkscape:pageopacity="0.0"
     inkscape:pageshadow="2"
     inkscape:zoom="0.84956659"
     inkscape:cx="186.99804"
     inkscape:cy="144.96079"
     inkscape:document-units="px"
     inkscape:current-layer="g2461"
     inkscape:document-rotation="0"
     showgrid="false"
     units="px"
     inkscape:window-width="1920"
     inkscape:window-height="1026"
     inkscape:window-x="0"
     inkscape:window-y="32"
     inkscape:window-maximized="1" />
  <metadata
     id="metadata5">
    <rdf:RDF>
      <cc:Work
         rdf:about="">
        <dc:format>image/svg+xml</dc:format>
        <dc:type
           rdf:resource="http://purl.org/dc/dcmitype/StillImage" />
        <dc:title />
      </cc:Work>
    </rdf:RDF>
  </metadata>
  <g
     inkscape:label="Layer 1"
     inkscape:groupmode="layer"
     id="layer1">
    <g
       id="g2461">
      <g
         id="g2428">
        <g
           aria-label="LiveG"
           id="text2436"
           style="font-size:27.7289px;line-height:1.25;font-family:'URW Gothic';-inkscape-font-specification:'URW Gothic';letter-spacing:0px;word-spacing:0px;fill:#808080;fill-opacity:1;stroke-width:0.253243">
          <g
             id="g2487"
             style="fill:#808080;fill-opacity:1">
            <g
               id="g2479"
               style="fill:#808080;fill-opacity:1">
              <path
                 d="M 55.084234,35.645828 H 65.621216 V 33.787992 H 57.136172 V 15.15417 h -2.051938 z"
                 style="fill:#808080;fill-opacity:1;stroke-width:0.253243"
                 id="path2463" />
              <path
                 d="m 67.756322,35.645828 h 2.051939 V 20.478119 h -2.051939 z m 0,-16.997816 h 2.051939 V 15.15417 h -2.051939 z"
                 style="fill:#808080;fill-opacity:1;stroke-width:0.253243"
                 id="path2465" />
              <path
                 d="m 78.29325,35.645828 h 2.162854 L 86.833751,20.478119 H 84.754084 L 79.319219,33.233414 73.99527,20.478119 h -2.079667 z"
                 style="fill:#808080;fill-opacity:1;stroke-width:0.253243"
                 id="path2467" />
              <path
                 d="m 103.38784,28.741332 c 0,-2.079668 -0.27729,-3.355197 -1.02597,-4.686184 -1.35872,-2.440144 -3.992962,-3.937504 -6.904497,-3.937504 -4.408895,0 -7.847279,3.466112 -7.847279,7.875008 0,4.492082 3.521571,8.013652 8.013653,8.013652 3.299739,0 6.266733,-2.135125 7.375883,-5.351678 h -2.13512 c -0.8596,2.079668 -2.994722,3.466113 -5.296221,3.466113 -3.133366,0 -5.739883,-2.384686 -5.906256,-5.379407 z M 89.717491,26.883496 c 0.554578,-2.911535 2.856076,-4.880287 5.739882,-4.880287 2.939264,0 5.157577,1.830107 5.878527,4.880287 z"
                 style="fill:#808080;fill-opacity:1;stroke-width:0.253243"
                 id="path2469" />
              <path
                 d="m 113.59207,26.190273 v 1.857836 h 11.45203 c -0.30502,1.330988 -0.99824,2.467873 -2.16285,3.632486 -1.58055,1.580548 -3.7434,2.440144 -6.12809,2.440144 -5.01893,0 -8.98416,-3.826589 -8.98416,-8.706875 0,-4.935745 3.88204,-8.734604 8.95643,-8.734604 3.1611,0 5.82307,1.441903 7.23724,3.937504 h 2.3015 c -1.35871,-3.493842 -5.24076,-5.823069 -9.70511,-5.823069 -6.10036,0 -10.86973,4.630726 -10.86973,10.564711 0,6.017172 4.85256,10.647898 11.14702,10.647898 3.24428,0 6.01717,-1.192343 7.98592,-3.466113 1.66373,-1.913294 2.55106,-4.048419 2.6897,-6.349918 z"
                 style="fill:#808080;fill-opacity:1;stroke-width:0.253243"
                 id="path2471" />
            </g>
          </g>
        </g>
        <g
           inkscape:label="Layer 1"
           id="layer1-3-6"
           transform="matrix(0.26214301,0,0,0.26214301,7.7585969,7.6441804)">
          <path
             id="rect835-3"
             style="fill:#c0c0c0;fill-opacity:1;stroke:none;stroke-width:0.830124;stop-color:#000000"
             d="M 67.733332,1.1417725e-4 V 67.733332 H 135.46656 A 67.73322,67.733215 0 0 0 67.733332,1.1417725e-4 Z" />
          <path
             id="path833-6-6"
             style="fill:#808080;fill-opacity:1;stroke:none;stroke-width:1.38846;stop-color:#000000"
             d="M 67.733332,1.1417725e-4 A 67.733215,67.733215 0 0 0 1.1458165e-4,67.733332 67.733215,67.733215 0 0 0 67.733332,135.46655 67.733215,67.733215 0 0 0 135.46655,67.733332 H 67.733332 Z M 135.46655,67.733332 a 67.733215,67.733215 0 0 0 -0.001,-0.35605 67.73322,67.733215 0 0 1 0.001,0.35605 z M 69.826226,0.03266966 a 67.73322,67.733215 0 0 1 0.304888,0.01032842 67.733215,67.733215 0 0 0 -0.304888,-0.01032842 z m 3.198763,0.1746656 a 67.73322,67.733215 0 0 1 0.242881,0.0196345 67.733215,67.733215 0 0 0 -0.242881,-0.0196345 z m 1.772501,0.16226363 a 67.73322,67.733215 0 0 1 0.303857,0.0325581 67.733215,67.733215 0 0 0 -0.303857,-0.0325581 z m 0.707449,0.078032 a 67.73322,67.733215 0 0 1 0.706931,0.0852671 67.733215,67.733215 0 0 0 -0.706931,-0.0852671 z m 1.765263,0.22737722 a 67.73322,67.733215 0 0 1 0.352433,0.0511597 67.733215,67.733215 0 0 0 -0.352433,-0.0511597 z m 0.704348,0.10386875 a 67.73322,67.733215 0 0 1 0.274401,0.0428918 67.733215,67.733215 0 0 0 -0.274401,-0.0428918 z m 1.054715,0.17001518 a 67.73322,67.733215 0 0 1 0.350364,0.0599442 67.733215,67.733215 0 0 0 -0.350364,-0.0599442 z m 3.145022,0.60874746 a 67.73322,67.733215 0 0 1 0.317295,0.069761 67.733215,67.733215 0 0 0 -0.317295,-0.069761 z m 5.847179,1.5523559 a 67.73322,67.733215 0 0 1 0.338997,0.1074889 67.733215,67.733215 0 0 0 -0.338997,-0.1074889 z m 3.699508,1.2800238 a 67.73322,67.733215 0 0 1 0.332795,0.1271234 67.733215,67.733215 0 0 0 -0.332795,-0.1271234 z m 0.332795,0.1271234 a 67.73322,67.733215 0 0 1 0.326596,0.126607 67.733215,67.733215 0 0 0 -0.326596,-0.126607 z M 98.552071,7.417737 A 67.73322,67.733215 0 0 1 98.804769,7.5474452 67.733215,67.733215 0 0 0 98.552071,7.417737 Z m 1.574059,0.8304389 a 67.73322,67.733215 0 0 1 0.31213,0.171048 67.733215,67.733215 0 0 0 -0.31213,-0.171048 z m 0.93379,0.5183135 a 67.73322,67.733215 0 0 1 0.30593,0.1736327 67.733215,67.733215 0 0 0 -0.30593,-0.1736327 z m 0.61805,0.3534652 a 67.73322,67.733215 0 0 1 0.49919,0.2919717 67.733215,67.733215 0 0 0 -0.49919,-0.2919717 z m 5.96242,3.8850284 a 67.73322,67.733215 0 0 1 0.20774,0.151928 67.733215,67.733215 0 0 0 -0.20774,-0.151928 z m 2.26497,1.725473 a 67.73322,67.733215 0 0 1 0.18036,0.144178 67.733215,67.733215 0 0 0 -0.18036,-0.144178 z m 3.5202,3.002914 a 67.73322,67.733215 0 0 1 0.262,0.240809 67.733215,67.733215 0 0 0 -0.262,-0.240809 z m 3.06027,2.97914 a 67.73322,67.733215 0 0 1 0.20257,0.210838 67.733215,67.733215 0 0 0 -0.20257,-0.210838 z m 1.45831,1.560624 a 67.73322,67.733215 0 0 1 0.14985,0.1664 67.733215,67.733215 0 0 0 -0.14985,-0.1664 z m 1.17718,1.334801 a 67.73322,67.733215 0 0 1 0.15141,0.17725 67.733215,67.733215 0 0 0 -0.15141,-0.17725 z m 2.24689,2.76055 a 67.73322,67.733215 0 0 1 0.14883,0.193267 67.733215,67.733215 0 0 0 -0.14883,-0.193267 z m 1.69137,2.290811 a 67.73322,67.733215 0 0 1 0.20463,0.291456 67.733215,67.733215 0 0 0 -0.20463,-0.291456 z m 0.40772,0.583944 a 67.73322,67.733215 0 0 1 0.20154,0.293004 67.733215,67.733215 0 0 0 -0.20154,-0.293004 z m 2.49752,3.89433 a 67.73322,67.733215 0 0 1 0.0899,0.151927 67.733215,67.733215 0 0 0 -0.0899,-0.151927 z m 2.8546,5.334032 a 67.73322,67.733215 0 0 1 0.30438,0.643888 67.733215,67.733215 0 0 0 -0.30438,-0.643888 z m 0.30438,0.643888 a 67.73322,67.733215 0 0 1 0.14934,0.322975 67.733215,67.733215 0 0 0 -0.14934,-0.322975 z m 2.42878,5.926757 a 67.73322,67.733215 0 0 1 0.0868,0.245982 67.733215,67.733215 0 0 0 -0.0868,-0.245982 z m 0.57413,1.684652 a 67.73322,67.733215 0 0 1 0.0754,0.233577 67.733215,67.733215 0 0 0 -0.0754,-0.233577 z m 0.52968,1.699116 a 67.73322,67.733215 0 0 1 0.0822,0.278018 67.733215,67.733215 0 0 0 -0.0822,-0.278018 z m 0.92449,3.436996 a 67.73322,67.733215 0 0 1 0.0641,0.269234 67.733215,67.733215 0 0 0 -0.0641,-0.269234 z m 0.39429,1.735806 a 67.73322,67.733215 0 0 1 0.0734,0.348298 67.733215,67.733215 0 0 0 -0.0734,-0.348298 z m 0.59428,3.148122 a 67.73322,67.733215 0 0 1 0.0568,0.351403 67.733215,67.733215 0 0 0 -0.0568,-0.351403 z m 0.62683,4.942843 a 67.73322,67.733215 0 0 1 0.0295,0.335896 67.733215,67.733215 0 0 0 -0.0295,-0.335896 z m 0.11214,1.419552 a 67.73322,67.733215 0 0 1 0.045,0.710548 67.733215,67.733215 0 0 0 -0.045,-0.710548 z m 0.0982,1.777148 a 67.73322,67.733215 0 0 1 0.0124,0.320393 67.733215,67.733215 0 0 0 -0.0124,-0.320393 z" />
        </g>
      </g>
    </g>
  </g>
</svg>
