<?xml version="1.0" encoding="UTF-8" standalone="no"?>
<svg
   xmlns:dc="http://purl.org/dc/elements/1.1/"
   xmlns:cc="http://creativecommons.org/ns#"
   xmlns:rdf="http://www.w3.org/1999/02/22-rdf-syntax-ns#"
   xmlns:svg="http://www.w3.org/2000/svg"
   xmlns="http://www.w3.org/2000/svg"
   xmlns:sodipodi="http://sodipodi.sourceforge.net/DTD/sodipodi-0.dtd"
   xmlns:inkscape="http://www.inkscape.org/namespaces/inkscape"
   width="512"
   height="512"
   viewBox="0 0 135.46666 135.46667"
   version="1.1"
   id="svg8"
   inkscape:version="1.0.2 (1.0.2+r75+1)"
   sodipodi:docname="appicon.svg"
   inkscape:export-filename="/home/james/Code/LiveG/Docs/media/appicon.png"
   inkscape:export-xdpi="96"
   inkscape:export-ydpi="96">
  <defs
     id="defs2" />
  <sodipodi:namedview
     id="base"
     pagecolor="#ffffff"
     bordercolor="#666666"
     borderopacity="1.0"
     inkscape:pageopacity="0.0"
     inkscape:pageshadow="2"
     inkscape:zoom="0.8129213"
     inkscape:cx="257.32454"
     inkscape:cy="202.77235"
     inkscape:document-units="px"
     inkscape:current-layer="layer1"
     inkscape:document-rotation="0"
     showgrid="false"
     units="px"
     inkscape:snap-page="true"
     inkscape:object-paths="true"
     inkscape:window-width="1200"
     inkscape:window-height="744"
     inkscape:window-x="0"
     inkscape:window-y="32"
     inkscape:window-maximized="1"
     inkscape:snap-smooth-nodes="true"
     inkscape:snap-object-midpoints="false"
     inkscape:snap-bbox="false"
     inkscape:snap-bbox-midpoints="false"
     inkscape:snap-center="false" />
  <metadata
     id="metadata5">
    <rdf:RDF>
      <cc:Work
         rdf:about="">
        <dc:format>image/svg+xml</dc:format>
        <dc:type
           rdf:resource="http://purl.org/dc/dcmitype/StillImage" />
        <dc:title></dc:title>
      </cc:Work>
    </rdf:RDF>
  </metadata>
  <g
     inkscape:label="Layer 1"
     inkscape:groupmode="layer"
     id="layer1">
    <rect
       style="fill:#9fbec6;stroke-width:3.40043;stop-color:#000000;fill-opacity:1"
       id="rect844"
       width="135.46666"
       height="135.46666"
       x="0"
       y="0"
       rx="0"
       ry="0" />
    <g
       id="g842"
       transform="matrix(1.4584819,0,0,1.4584819,-143.02162,23.398842)">
      <rect
         style="fill:#0b505c;fill-opacity:1;stroke-width:0.532941"
         id="rect2396-3"
         width="42.746769"
         height="60.795399"
         x="123.1176"
         y="-1.4904786e-06"
         ry="3.8789129" />
      <path
         id="rect2440"
         style="fill:#e8f8fb;fill-opacity:1;stroke-width:0.662227"
         d="m 158.27912,48.145076 v 4.575937 h -29.93524 c -1.57971,0 -2.85146,1.271004 -2.85146,2.849785 0,1.57878 1.27175,2.849784 2.85146,2.849784 h 34.69278 c 1.52127,0 2.75633,-1.1789 2.84567,-2.676082 h 0.006 v -0.173702 -7.425722 z" />
      <path
         id="rect2413"
         style="fill:#0d6273;fill-opacity:1;stroke-width:0.538134"
         d="m 127.86724,0 v 7.601137 37.530613 3.932792 3.668346 h 3.66752 3.9319 26.73018 c 2.03183,0 3.66752,-1.636063 3.66752,-3.668346 V 3.668347 C 165.86436,1.636067 164.22867,0 162.19684,0 h -26.73018 z" />
      <path
         id="path2493"
         style="fill:#0b505c;fill-opacity:1;stroke-width:0.41703"
         d="m 146.4189,16.42731 a 9.4992813,9.4992813 0 0 0 -9.49209,9.499281 9.4992813,9.4992813 0 0 0 9.49928,9.499282 9.4992813,9.4992813 0 0 0 9.49928,-9.499282 9.4991894,9.4991894 0 0 0 0,-0.02737 9.4991894,9.4991894 0 0 0 -4.6e-4,-0.05473 9.4991894,9.4991894 0 0 0 0,-0.0072 9.4992813,9.4992813 0 0 0 0,-0.0037 9.4991894,9.4991894 0 0 0 -7e-4,-0.04731 9.4992813,9.4992813 0 0 0 -10e-4,-0.06563 9.4992813,9.4992813 0 0 0 -0.002,-0.08929 9.4992813,9.4992813 0 0 0 -0.003,-0.08929 9.4992813,9.4992813 0 0 0 -0.004,-0.08627 9.4992813,9.4992813 0 0 0 -2.3e-4,-0.0028 9.4991894,9.4991894 0 0 0 -4.6e-4,-0.0088 9.4992813,9.4992813 0 0 0 -0.004,-0.06981 9.4992813,9.4992813 0 0 0 -4.7e-4,-0.01067 9.4991894,9.4991894 0 0 0 -0.004,-0.06192 9.4992813,9.4992813 0 0 0 -0.002,-0.02713 9.4991894,9.4991894 0 0 0 -0.004,-0.06192 9.4992813,9.4992813 0 0 0 -0.002,-0.02713 9.4991894,9.4991894 0 0 0 -0.005,-0.06192 9.4992813,9.4992813 0 0 0 -0.002,-0.02713 9.4991894,9.4991894 0 0 0 -0.006,-0.06169 9.4992813,9.4992813 0 0 0 -9.3e-4,-0.009 9.4991894,9.4991894 0 0 0 -0.007,-0.07213 9.4991894,9.4991894 0 0 0 -6.9e-4,-0.0077 9.4992813,9.4992813 0 0 0 -0.003,-0.02713 9.4991894,9.4991894 0 0 0 -0.003,-0.02319 9.4992813,9.4992813 0 0 0 -0.007,-0.06401 9.4992813,9.4992813 0 0 0 -2.3e-4,-0.0016 9.4991894,9.4991894 0 0 0 -0.007,-0.06169 9.4992813,9.4992813 0 0 0 -2.3e-4,-0.0014 9.4991894,9.4991894 0 0 0 -0.006,-0.05102 9.4992813,9.4992813 0 0 0 -0.008,-0.05914 9.4992813,9.4992813 0 0 0 -4.7e-4,-0.0039 9.4991894,9.4991894 0 0 0 -0.009,-0.06146 9.4992813,9.4992813 0 0 0 -0.004,-0.02713 9.4991894,9.4991894 0 0 0 -0.002,-0.01507 9.4992813,9.4992813 0 0 0 -0.0109,-0.07305 9.4992813,9.4992813 0 0 0 -0.013,-0.08187 9.4992813,9.4992813 0 0 0 -9.3e-4,-0.0065 9.4991894,9.4991894 0 0 0 -0.0102,-0.06123 9.4992813,9.4992813 0 0 0 -0.005,-0.02667 9.4991894,9.4991894 0 0 0 -0.0109,-0.06123 9.4992813,9.4992813 0 0 0 -0.005,-0.0269 9.4991894,9.4991894 0 0 0 -0.0114,-0.06076 9.4992813,9.4992813 0 0 0 -0.001,-0.0063 9.4991894,9.4991894 0 0 0 -0.016,-0.0814 9.4991894,9.4991894 0 0 0 -0.0107,-0.05195 9.4992813,9.4992813 0 0 0 -0.013,-0.06238 9.4992813,9.4992813 0 0 0 -0.019,-0.0872 9.4992813,9.4992813 0 0 0 -0.0197,-0.08697 9.4992813,9.4992813 0 0 0 -0.0204,-0.08581 9.4992813,9.4992813 0 0 0 -2.3e-4,-0.0012 9.4991894,9.4991894 0 0 0 -0.0148,-0.0603 9.4991894,9.4991894 0 0 0 -0.0181,-0.0712 9.4991894,9.4991894 0 0 0 -0.004,-0.01531 9.4992813,9.4992813 0 0 0 -0.007,-0.02644 9.4991894,9.4991894 0 0 0 -6.9e-4,-0.0028 9.4992813,9.4992813 0 0 0 -0.0202,-0.07607 9.4992813,9.4992813 0 0 0 -0.002,-0.0074 9.4991894,9.4991894 0 0 0 -0.0165,-0.05983 9.4992813,9.4992813 0 0 0 -0.007,-0.02621 9.4991894,9.4991894 0 0 0 -9.3e-4,-0.0028 9.4992813,9.4992813 0 0 0 -0.0239,-0.08302 9.4992813,9.4992813 0 0 0 -0.0255,-0.08558 9.4991894,9.4991894 0 0 0 -0.0181,-0.05937 9.4992813,9.4992813 0 0 0 -0.008,-0.02597 9.4991894,9.4991894 0 0 0 -0.0188,-0.05914 9.4992813,9.4992813 0 0 0 -0.008,-0.02598 9.4991894,9.4991894 0 0 0 -0.0192,-0.05891 9.4992813,9.4992813 0 0 0 -0.002,-0.0072 9.4991894,9.4991894 0 0 0 -0.0223,-0.06563 9.4991894,9.4991894 0 0 0 -0.004,-0.01183 9.4992813,9.4992813 0 0 0 -0.009,-0.02574 9.4991894,9.4991894 0 0 0 -0.0204,-0.05867 9.4992813,9.4992813 0 0 0 -0.009,-0.02574 9.4991894,9.4991894 0 0 0 -0.006,-0.016 9.4992813,9.4992813 0 0 0 -0.0246,-0.06795 9.4992813,9.4992813 0 0 0 -0.0311,-0.08372 9.4991894,9.4991894 0 0 0 -0.022,-0.05798 9.4992813,9.4992813 0 0 0 -0.01,-0.02551 9.4991894,9.4991894 0 0 0 -0.008,-0.02064 9.4992813,9.4992813 0 0 0 -0.0246,-0.06238 9.4992813,9.4992813 0 0 0 -0.0334,-0.08279 9.4992813,9.4992813 0 0 0 -0.0343,-0.08256 9.4991894,9.4991894 0 0 0 -0.0241,-0.05705 9.4992813,9.4992813 0 0 0 -0.0107,-0.02505 9.4991894,9.4991894 0 0 0 -0.01,-0.02273 9.4992813,9.4992813 0 0 0 -0.026,-0.05914 9.4992813,9.4992813 0 0 0 -0.0364,-0.08163 9.4992813,9.4992813 0 0 0 -0.0373,-0.08117 9.4992813,9.4992813 0 0 0 -0.038,-0.08071 9.4992813,9.4992813 0 0 0 -0.0378,-0.07862 9.4992813,9.4992813 0 0 0 -9.3e-4,-0.0019 9.4991894,9.4991894 0 0 0 -0.002,-0.0044 9.4992813,9.4992813 0 0 0 -0.0376,-0.0756 9.4991894,9.4991894 0 0 0 -0.0278,-0.05543 9.4992813,9.4992813 0 0 0 -0.002,-0.0039 9.4991894,9.4991894 0 0 0 -0.0387,-0.07537 9.4991894,9.4991894 0 0 0 -0.0311,-0.05914 9.4991894,9.4991894 0 0 0 -0.0104,-0.01994 9.4992813,9.4992813 0 0 0 -0.013,-0.02412 9.4992813,9.4992813 0 0 0 -0.0397,-0.07352 9.4992813,9.4992813 0 0 0 -0.003,-0.0051 9.4991894,9.4991894 0 0 0 -0.005,-0.0086 9.4992813,9.4992813 0 0 0 -0.0385,-0.06934 9.4991894,9.4991894 0 0 0 -0.0304,-0.05404 9.4992813,9.4992813 0 0 0 -7e-4,-0.0012 9.4991894,9.4991894 0 0 0 -0.0438,-0.0763 9.4991894,9.4991894 0 0 0 -0.0397,-0.06772 9.4991894,9.4991894 0 0 0 -0.006,-0.0093 9.4992813,9.4992813 0 0 0 -0.0139,-0.02342 9.4991894,9.4991894 0 0 0 -0.032,-0.05311 9.4992813,9.4992813 0 0 0 -0.0144,-0.02342 9.4992813,9.4992813 0 0 0 -0.0468,-0.07607 9.4991894,9.4991894 0 0 0 -0.0329,-0.05241 9.4992813,9.4992813 0 0 0 -0.0146,-0.02296 9.4991894,9.4991894 0 0 0 -0.002,-0.0026 9.4992813,9.4992813 0 0 0 -0.0443,-0.06888 9.4992813,9.4992813 0 0 0 -0.002,-0.0037 9.4991894,9.4991894 0 0 0 -0.0341,-0.05195 9.4992813,9.4992813 0 0 0 -0.0151,-0.02273 9.4991894,9.4991894 0 0 0 -9.2e-4,-0.0012 9.4992813,9.4992813 0 0 0 -0.0466,-0.06981 9.4992813,9.4992813 0 0 0 -0.002,-0.0032 9.4991894,9.4991894 0 0 0 -0.035,-0.05125 9.4992813,9.4992813 0 0 0 -0.0155,-0.0225 9.4991894,9.4991894 0 0 0 -4.7e-4,-4.64e-4 9.4992813,9.4992813 0 0 0 -0.0506,-0.07282 9.4992813,9.4992813 0 0 0 -0.0517,-0.07259 9.4992813,9.4992813 0 0 0 -0.0526,-0.07236 9.4992813,9.4992813 0 0 0 -0.0531,-0.07166 9.4992813,9.4992813 0 0 0 -0.0538,-0.07143 9.4992813,9.4992813 0 0 0 -0.0545,-0.07073 9.4992813,9.4992813 0 0 0 -0.0552,-0.07027 9.4992813,9.4992813 0 0 0 -0.0557,-0.06958 9.4991894,9.4991894 0 0 0 -0.0392,-0.04824 9.4992813,9.4992813 0 0 0 -0.0174,-0.0211 9.4991894,9.4991894 0 0 0 -0.002,-0.0026 9.4992813,9.4992813 0 0 0 -0.055,-0.0661 9.4992813,9.4992813 0 0 0 -0.0577,-0.06795 9.4992813,9.4992813 0 0 0 -0.0584,-0.06772 9.4991894,9.4991894 0 0 0 -0.0408,-0.04662 9.4992813,9.4992813 0 0 0 -0.0181,-0.02041 9.4991894,9.4991894 0 0 0 -0.0102,-0.01136 9.4992813,9.4992813 0 0 0 -0.0496,-0.05496 9.4991894,9.4991894 0 0 0 -0.0417,-0.04592 9.4992813,9.4992813 0 0 0 -0.0183,-0.01994 9.4991894,9.4991894 0 0 0 -0.0422,-0.04546 9.4992813,9.4992813 0 0 0 -0.0188,-0.01994 9.4991894,9.4991894 0 0 0 -0.0427,-0.04499 9.4992813,9.4992813 0 0 0 -0.0188,-0.01971 9.4991894,9.4991894 0 0 0 -0.0431,-0.04476 9.4992813,9.4992813 0 0 0 -0.019,-0.01948 9.4991894,9.4991894 0 0 0 -0.004,-0.0035 9.4992813,9.4992813 0 0 0 -0.0594,-0.06007 9.4991894,9.4991894 0 0 0 -0.0438,-0.04383 9.4991894,9.4991894 0 0 0 -0.0455,-0.04476 9.4991894,9.4991894 0 0 0 -0.0181,-0.01786 9.4992813,9.4992813 0 0 0 -0.0197,-0.01902 9.4991894,9.4991894 0 0 0 -0.0448,-0.0429 9.4992813,9.4992813 0 0 0 -0.0197,-0.01879 9.4991894,9.4991894 0 0 0 -0.006,-0.0056 9.4992813,9.4992813 0 0 0 -0.0591,-0.05566 9.4992813,9.4992813 0 0 0 -0.0656,-0.06053 9.4992813,9.4992813 0 0 0 -0.0626,-0.05682 9.4992813,9.4992813 0 0 0 -0.004,-0.0032 9.4991894,9.4991894 0 0 0 -0.005,-0.0039 9.4992813,9.4992813 0 0 0 -0.12222,-0.107841 9.4992813,9.4992813 0 0 0 -0.007,-0.0063 9.4991894,9.4991894 0 0 0 -0.0471,-0.04035 9.4992813,9.4992813 0 0 0 -0.0209,-0.01763 9.4991894,9.4991894 0 0 0 -0.003,-0.0026 9.4992813,9.4992813 0 0 0 -0.0654,-0.05473 9.4992813,9.4992813 0 0 0 -0.0689,-0.05682 9.4992813,9.4992813 0 0 0 -0.0693,-0.05612 9.4991894,9.4991894 0 0 0 -0.0487,-0.03873 9.4992813,9.4992813 0 0 0 -0.0213,-0.0167 9.4991894,9.4991894 0 0 0 -0.0489,-0.03827 9.4992813,9.4992813 0 0 0 -0.0216,-0.0167 9.4991894,9.4991894 0 0 0 -0.0494,-0.03757 9.4992813,9.4992813 0 0 0 -0.0218,-0.01647 9.4992813,9.4992813 0 0 0 -0.0693,-0.05195 9.4992813,9.4992813 0 0 0 -0.002,-0.0016 9.4991894,9.4991894 0 0 0 -0.005,-0.0039 9.4992813,9.4992813 0 0 0 -0.0668,-0.0487 9.4992813,9.4992813 0 0 0 -0.0675,-0.0487 9.4992813,9.4992813 0 0 0 -0.005,-0.0035 9.4991894,9.4991894 0 0 0 -0.0508,-0.03572 9.4991894,9.4991894 0 0 0 -0.0728,-0.05056 9.4991894,9.4991894 0 0 0 -4.6e-4,-4.63e-4 9.4992813,9.4992813 0 0 0 -0.0225,-0.01554 9.4991894,9.4991894 0 0 0 -0.0223,-0.01507 9.4992813,9.4992813 0 0 0 -0.0517,-0.03479 9.4992813,9.4992813 0 0 0 -0.0745,-0.0494 9.4991894,9.4991894 0 0 0 -0.0519,-0.03386 9.4992813,9.4992813 0 0 0 -0.023,-0.01484 9.4991894,9.4991894 0 0 0 -0.0522,-0.0334 9.4992813,9.4992813 0 0 0 -0.0232,-0.01461 9.4991894,9.4991894 0 0 0 -0.003,-0.0021 9.4992813,9.4992813 0 0 0 -0.14634,-0.09022 9.4992813,9.4992813 0 0 0 -0.002,-0.0014 9.4991894,9.4991894 0 0 0 -0.003,-0.0016 9.4992813,9.4992813 0 0 0 -0.14425,-0.08535 9.4992813,9.4992813 0 0 0 -0.007,-0.0039 9.4991894,9.4991894 0 0 0 -0.0538,-0.03084 9.4992813,9.4992813 0 0 0 -0.0239,-0.01345 9.4991894,9.4991894 0 0 0 -0.054,-0.03038 9.4992813,9.4992813 0 0 0 -0.0239,-0.01322 9.4991894,9.4991894 0 0 0 -0.0543,-0.02992 9.4992813,9.4992813 0 0 0 -0.0239,-0.01299 9.4991894,9.4991894 0 0 0 -0.0547,-0.02945 9.4992813,9.4992813 0 0 0 -0.0241,-0.01275 9.4991894,9.4991894 0 0 0 -0.0128,-0.0067 9.4992813,9.4992813 0 0 0 -0.0631,-0.03293 9.4992813,9.4992813 0 0 0 -0.003,-0.0016 9.4991894,9.4991894 0 0 0 -0.0552,-0.02829 9.4992813,9.4992813 0 0 0 -0.0243,-0.01229 9.4991894,9.4991894 0 0 0 -0.0104,-0.0051 9.4992813,9.4992813 0 0 0 -0.0696,-0.03479 9.4992813,9.4992813 0 0 0 -0.0802,-0.03919 9.4991894,9.4991894 0 0 0 -0.0559,-0.0269 9.4992813,9.4992813 0 0 0 -0.0246,-0.0116 9.4991894,9.4991894 0 0 0 -0.0146,-0.0067 9.4992813,9.4992813 0 0 0 -0.0666,-0.03084 9.4991894,9.4991894 0 0 0 -0.0564,-0.02574 9.4992813,9.4992813 0 0 0 -0.0248,-0.01113 9.4991894,9.4991894 0 0 0 -0.008,-0.0035 9.4992813,9.4992813 0 0 0 -0.067,-0.02969 9.4992813,9.4992813 0 0 0 -0.007,-0.003 9.4991894,9.4991894 0 0 0 -0.0571,-0.02458 9.4992813,9.4992813 0 0 0 -0.025,-0.01067 9.4991894,9.4991894 0 0 0 -0.0137,-0.0058 9.4992813,9.4992813 0 0 0 -0.0687,-0.02876 9.4992813,9.4992813 0 0 0 -0.0814,-0.03316 9.4992813,9.4992813 0 0 0 -0.001,-6.96e-4 9.4991894,9.4991894 0 0 0 -0.0575,-0.02296 9.4992813,9.4992813 0 0 0 -0.0253,-0.01 9.4991894,9.4991894 0 0 0 -0.0176,-0.0067 9.4992813,9.4992813 0 0 0 -0.0659,-0.02551 9.4992813,9.4992813 0 0 0 -0.0786,-0.02969 9.4992813,9.4992813 0 0 0 -0.005,-0.0019 9.4991894,9.4991894 0 0 0 -0.0582,-0.02134 9.4992813,9.4992813 0 0 0 -0.0257,-0.0093 9.4991894,9.4991894 0 0 0 -0.009,-0.003 9.4992813,9.4992813 0 0 0 -0.0756,-0.0269 9.4992813,9.4992813 0 0 0 -0.16907,-0.05728 9.4991894,9.4991894 0 0 0 -0.0589,-0.01925 9.4992813,9.4992813 0 0 0 -0.026,-0.0083 9.4991894,9.4991894 0 0 0 -0.0591,-0.01855 9.4992813,9.4992813 0 0 0 -0.0262,-0.0081 9.4991894,9.4991894 0 0 0 -0.013,-0.0039 9.4992813,9.4992813 0 0 0 -0.0724,-0.0218 9.4992813,9.4992813 0 0 0 -0.0858,-0.02505 9.4992813,9.4992813 0 0 0 -0.086,-0.02435 9.4992813,9.4992813 0 0 0 -0.086,-0.02342 9.4992813,9.4992813 0 0 0 -0.0865,-0.02273 9.4992813,9.4992813 0 0 0 -0.0865,-0.0218 9.4992813,9.4992813 0 0 0 -0.0816,-0.01994 9.4992813,9.4992813 0 0 0 -0.005,-0.0012 9.4991894,9.4991894 0 0 0 -0.0125,-0.0028 9.4992813,9.4992813 0 0 0 -0.0744,-0.01739 9.4991894,9.4991894 0 0 0 -2.3e-4,0 9.4992813,9.4992813 0 0 0 -0.1744,-0.0378 9.4991894,9.4991894 0 0 0 -0.0608,-0.01252 9.4992813,9.4992813 0 0 0 -0.0267,-0.0053 9.4991894,9.4991894 0 0 0 -0.061,-0.01183 9.4992813,9.4992813 0 0 0 -0.0267,-0.0051 9.4991894,9.4991894 0 0 0 -0.016,-0.003 9.4992813,9.4992813 0 0 0 -0.0719,-0.01299 9.4992813,9.4992813 0 0 0 -0.0881,-0.01531 9.4992813,9.4992813 0 0 0 -0.0881,-0.01438 9.4992813,9.4992813 0 0 0 -0.0881,-0.01368 9.4992813,9.4992813 0 0 0 -0.0884,-0.01276 9.4992813,9.4992813 0 0 0 -0.0886,-0.01206 9.4992813,9.4992813 0 0 0 -0.0821,-0.01044 9.4992813,9.4992813 0 0 0 -0.007,-6.94e-4 9.4991894,9.4991894 0 0 0 -0.0615,-0.0072 9.4992813,9.4992813 0 0 0 -0.0274,-0.003 9.4991894,9.4991894 0 0 0 -0.005,-4.64e-4 9.4992813,9.4992813 0 0 0 -0.0749,-0.0081 9.4992813,9.4992813 0 0 0 -0.009,-9.28e-4 9.4991894,9.4991894 0 0 0 -0.0615,-0.006 9.4992813,9.4992813 0 0 0 -0.0274,-0.0026 9.4991894,9.4991894 0 0 0 -0.0114,-9.27e-4 9.4992813,9.4992813 0 0 0 -0.0775,-0.0067 9.4992813,9.4992813 0 0 0 -0.0891,-0.007 9.4991894,9.4991894 0 0 0 -0.0619,-0.0044 9.4992813,9.4992813 0 0 0 -0.008,-4.65e-4 9.4991894,9.4991894 0 0 0 -0.0469,-0.003 9.4992813,9.4992813 0 0 0 -0.0612,-0.0035 9.4992813,9.4992813 0 0 0 -0.0893,-0.0044 9.4992813,9.4992813 0 0 0 -0.0879,-0.0037 9.4992813,9.4992813 0 0 0 -0.001,0 9.4991894,9.4991894 0 0 0 -0.004,0 9.4992813,9.4992813 0 0 0 -0.0786,-0.0025 9.4992813,9.4992813 0 0 0 -0.007,-2.32e-4 9.4991894,9.4991894 0 0 0 -0.0619,-0.0014 9.4992813,9.4992813 0 0 0 -0.0274,-4.64e-4 9.4991894,9.4991894 0 0 0 -0.0144,-2.31e-4 9.4992813,9.4992813 0 0 0 -0.0633,-6.96e-4 9.4992813,9.4992813 0 0 0 -0.0116,-2.32e-4 9.4991894,9.4991894 0 0 0 -0.0691,-2.32e-4 9.4992813,9.4992813 0 0 0 -0.007,0 z m -0.0169,1.18741 a 8.3118717,8.3118717 0 0 1 0.0241,0 v 8.311871 h 8.31187 a 8.3118717,8.3118717 0 0 1 -8.31187,8.311871 8.3118717,8.3118717 0 0 1 -8.31187,-8.311871 8.3118717,8.3118717 0 0 1 8.28775,-8.311871 z" />
    </g>
  </g>
</svg>
