<?xml version="1.0" encoding="UTF-8" standalone="no"?>
<svg
   xmlns:dc="http://purl.org/dc/elements/1.1/"
   xmlns:cc="http://creativecommons.org/ns#"
   xmlns:rdf="http://www.w3.org/1999/02/22-rdf-syntax-ns#"
   xmlns:svg="http://www.w3.org/2000/svg"
   xmlns="http://www.w3.org/2000/svg"
   xmlns:sodipodi="http://sodipodi.sourceforge.net/DTD/sodipodi-0.dtd"
   xmlns:inkscape="http://www.inkscape.org/namespaces/inkscape"
   width="512"
   height="512"
   viewBox="0 0 135.46666 135.46667"
   version="1.1"
   id="svg8"
   inkscape:version="1.0.1 (3bc2e81, 2020-09-07)"
   sodipodi:docname="icon.svg"
   inkscape:export-filename="/home/james/Code/LiveG/Docs/media/icon.png"
   inkscape:export-xdpi="96"
   inkscape:export-ydpi="96">
  <defs
     id="defs2" />
  <sodipodi:namedview
     id="base"
     pagecolor="#ffffff"
     bordercolor="#666666"
     borderopacity="1.0"
     inkscape:pageopacity="0.0"
     inkscape:pageshadow="2"
     inkscape:zoom="0.98994949"
     inkscape:cx="213.11734"
     inkscape:cy="117.85953"
     inkscape:document-units="px"
     inkscape:current-layer="layer1"
     inkscape:document-rotation="0"
     showgrid="false"
     units="px"
     inkscape:snap-page="true"
     inkscape:object-paths="true"
     inkscape:window-width="1920"
     inkscape:window-height="1026"
     inkscape:window-x="0"
     inkscape:window-y="32"
     inkscape:window-maximized="1"
     inkscape:snap-smooth-nodes="true" />
  <metadata
     id="metadata5">
    <rdf:RDF>
      <cc:Work
         rdf:about="">
        <dc:format>image/svg+xml</dc:format>
        <dc:type
           rdf:resource="http://purl.org/dc/dcmitype/StillImage" />
        <dc:title></dc:title>
      </cc:Work>
    </rdf:RDF>
  </metadata>
  <g
     inkscape:label="Layer 1"
     inkscape:groupmode="layer"
     id="layer1">
    <rect
       style="fill:#0b505c;fill-opacity:1;stroke-width:1.18752"
       id="rect2396-3"
       width="95.25"
       height="135.46666"
       x="20.108332"
       y="-8.8817842e-15"
       ry="8.6431437" />
    <path
       id="rect2440"
       style="fill:#e8f8fb;fill-opacity:1;stroke-width:1.4756"
       d="M 98.456595,107.27872 V 117.475 H 31.753736 c -3.519969,0 -6.353736,2.8321 -6.353736,6.35 0,3.5179 2.833767,6.35 6.353736,6.35 h 77.303794 c 3.38976,0 6.14175,-2.62687 6.34082,-5.96295 h 0.0129 V 123.825 107.27872 Z" />
    <path
       id="rect2413"
       style="fill:#0d6273;fill-opacity:1;stroke-width:1.19909"
       d="m 30.691666,0 v 16.937147 83.627163 8.7632 8.17395 h 8.172112 8.761221 59.561221 c 4.52739,0 8.17211,-3.64554 8.17211,-8.17395 V 8.1739515 C 115.35833,3.6455465 111.71361,0 107.18622,0 H 47.624999 Z" />
    <path
       id="path2493"
       style="fill:#0b505c;fill-opacity:1;stroke-width:3.5121"
       d="M 272.23633 138.3457 A 79.999998 79.999998 0 0 0 192.29688 218.3457 A 79.999998 79.999998 0 0 0 272.29688 298.3457 A 79.999998 79.999998 0 0 0 352.29688 218.3457 A 79.999224 79.999224 0 0 0 352.29688 218.11523 A 79.999224 79.999224 0 0 0 352.29297 217.6543 A 79.999224 79.999224 0 0 0 352.29297 217.59375 A 79.999998 79.999998 0 0 0 352.29297 217.5625 A 79.999224 79.999224 0 0 0 352.28711 217.16406 A 79.999998 79.999998 0 0 0 352.27734 216.61133 A 79.999998 79.999998 0 0 0 352.25781 215.85938 A 79.999998 79.999998 0 0 0 352.23047 215.10742 A 79.999998 79.999998 0 0 0 352.19922 214.38086 A 79.999998 79.999998 0 0 0 352.19727 214.35742 A 79.999224 79.999224 0 0 0 352.19336 214.2832 A 79.999998 79.999998 0 0 0 352.16016 213.69531 A 79.999998 79.999998 0 0 0 352.15625 213.60547 A 79.999224 79.999224 0 0 0 352.12305 213.08398 A 79.999998 79.999998 0 0 0 352.10742 212.85547 A 79.999224 79.999224 0 0 0 352.07031 212.33398 A 79.999998 79.999998 0 0 0 352.05273 212.10547 A 79.999224 79.999224 0 0 0 352.00977 211.58398 A 79.999998 79.999998 0 0 0 351.99023 211.35547 A 79.999224 79.999224 0 0 0 351.94336 210.83594 A 79.999998 79.999998 0 0 0 351.93555 210.75977 A 79.999224 79.999224 0 0 0 351.875 210.15234 A 79.999224 79.999224 0 0 0 351.86914 210.08789 A 79.999998 79.999998 0 0 0 351.8457 209.85938 A 79.999224 79.999224 0 0 0 351.82422 209.66406 A 79.999998 79.999998 0 0 0 351.76367 209.125 A 79.999998 79.999998 0 0 0 351.76172 209.11133 A 79.999224 79.999224 0 0 0 351.69922 208.5918 A 79.999998 79.999998 0 0 0 351.69727 208.58008 A 79.999224 79.999224 0 0 0 351.64453 208.15039 A 79.999998 79.999998 0 0 0 351.57812 207.65234 A 79.999998 79.999998 0 0 0 351.57422 207.61914 A 79.999224 79.999224 0 0 0 351.50195 207.10156 A 79.999998 79.999998 0 0 0 351.46875 206.87305 A 79.999224 79.999224 0 0 0 351.44922 206.74609 A 79.999998 79.999998 0 0 0 351.35742 206.13086 A 79.999998 79.999998 0 0 0 351.24805 205.44141 A 79.999998 79.999998 0 0 0 351.24023 205.38672 A 79.999224 79.999224 0 0 0 351.1543 204.87109 A 79.999998 79.999998 0 0 0 351.11523 204.64648 A 79.999224 79.999224 0 0 0 351.02344 204.13086 A 79.999998 79.999998 0 0 0 350.98242 203.9043 A 79.999224 79.999224 0 0 0 350.88672 203.39258 A 79.999998 79.999998 0 0 0 350.87695 203.33984 A 79.999224 79.999224 0 0 0 350.74219 202.6543 A 79.999224 79.999224 0 0 0 350.65234 202.2168 A 79.999998 79.999998 0 0 0 350.54297 201.69141 A 79.999998 79.999998 0 0 0 350.38281 200.95703 A 79.999998 79.999998 0 0 0 350.2168 200.22461 A 79.999998 79.999998 0 0 0 350.04492 199.50195 A 79.999998 79.999998 0 0 0 350.04297 199.49219 A 79.999224 79.999224 0 0 0 349.91797 198.98438 A 79.999224 79.999224 0 0 0 349.76562 198.38477 A 79.999224 79.999224 0 0 0 349.73242 198.25586 A 79.999998 79.999998 0 0 0 349.67383 198.0332 A 79.999224 79.999224 0 0 0 349.66797 198.00977 A 79.999998 79.999998 0 0 0 349.49805 197.36914 A 79.999998 79.999998 0 0 0 349.48047 197.30664 A 79.999224 79.999224 0 0 0 349.3418 196.80273 A 79.999998 79.999998 0 0 0 349.2793 196.58203 A 79.999224 79.999224 0 0 0 349.27148 196.55859 A 79.999998 79.999998 0 0 0 349.07031 195.85938 A 79.999998 79.999998 0 0 0 348.85547 195.13867 A 79.999224 79.999224 0 0 0 348.70312 194.63867 A 79.999998 79.999998 0 0 0 348.63477 194.41992 A 79.999224 79.999224 0 0 0 348.47656 193.92188 A 79.999998 79.999998 0 0 0 348.40625 193.70312 A 79.999224 79.999224 0 0 0 348.24414 193.20703 A 79.999998 79.999998 0 0 0 348.22461 193.14648 A 79.999224 79.999224 0 0 0 348.03711 192.59375 A 79.999224 79.999224 0 0 0 348.00391 192.49414 A 79.999998 79.999998 0 0 0 347.92969 192.27734 A 79.999224 79.999224 0 0 0 347.75781 191.7832 A 79.999998 79.999998 0 0 0 347.68164 191.56641 A 79.999224 79.999224 0 0 0 347.63281 191.43164 A 79.999998 79.999998 0 0 0 347.42578 190.85938 A 79.999998 79.999998 0 0 0 347.16406 190.1543 A 79.999224 79.999224 0 0 0 346.97852 189.66602 A 79.999998 79.999998 0 0 0 346.89648 189.45117 A 79.999224 79.999224 0 0 0 346.82812 189.27734 A 79.999998 79.999998 0 0 0 346.62109 188.75195 A 79.999998 79.999998 0 0 0 346.33984 188.05469 A 79.999998 79.999998 0 0 0 346.05078 187.35938 A 79.999224 79.999224 0 0 0 345.84766 186.87891 A 79.999998 79.999998 0 0 0 345.75781 186.66797 A 79.999224 79.999224 0 0 0 345.67383 186.47656 A 79.999998 79.999998 0 0 0 345.45508 185.97852 A 79.999998 79.999998 0 0 0 345.14844 185.29102 A 79.999998 79.999998 0 0 0 344.83398 184.60742 A 79.999998 79.999998 0 0 0 344.51367 183.92773 A 79.999998 79.999998 0 0 0 344.19531 183.26562 A 79.999998 79.999998 0 0 0 344.1875 183.25 A 79.999224 79.999224 0 0 0 344.16992 183.21289 A 79.999998 79.999998 0 0 0 343.85352 182.57617 A 79.999224 79.999224 0 0 0 343.61914 182.10938 A 79.999998 79.999998 0 0 0 343.60156 182.07617 A 79.999224 79.999224 0 0 0 343.27539 181.44141 A 79.999224 79.999224 0 0 0 343.01367 180.94336 A 79.999224 79.999224 0 0 0 342.92578 180.77539 A 79.999998 79.999998 0 0 0 342.81641 180.57227 A 79.999998 79.999998 0 0 0 342.48242 179.95312 A 79.999998 79.999998 0 0 0 342.45898 179.91016 A 79.999224 79.999224 0 0 0 342.41797 179.83789 A 79.999998 79.999998 0 0 0 342.09375 179.25391 A 79.999224 79.999224 0 0 0 341.83789 178.79883 A 79.999998 79.999998 0 0 0 341.83203 178.78906 A 79.999224 79.999224 0 0 0 341.46289 178.14648 A 79.999224 79.999224 0 0 0 341.12891 177.57617 A 79.999224 79.999224 0 0 0 341.08203 177.49805 A 79.999998 79.999998 0 0 0 340.96484 177.30078 A 79.999224 79.999224 0 0 0 340.69531 176.85352 A 79.999998 79.999998 0 0 0 340.57422 176.65625 A 79.999998 79.999998 0 0 0 340.17969 176.01562 A 79.999224 79.999224 0 0 0 339.90234 175.57422 A 79.999998 79.999998 0 0 0 339.7793 175.38086 A 79.999224 79.999224 0 0 0 339.76562 175.35938 A 79.999998 79.999998 0 0 0 339.39258 174.7793 A 79.999998 79.999998 0 0 0 339.37305 174.74805 A 79.999224 79.999224 0 0 0 339.08594 174.31055 A 79.999998 79.999998 0 0 0 338.95898 174.11914 A 79.999224 79.999224 0 0 0 338.95117 174.10938 A 79.999998 79.999998 0 0 0 338.55859 173.52148 A 79.999998 79.999998 0 0 0 338.54102 173.49414 A 79.999224 79.999224 0 0 0 338.24609 173.0625 A 79.999998 79.999998 0 0 0 338.11523 172.87305 A 79.999224 79.999224 0 0 0 338.11133 172.86914 A 79.999998 79.999998 0 0 0 337.68555 172.25586 A 79.999998 79.999998 0 0 0 337.25 171.64453 A 79.999998 79.999998 0 0 0 336.80664 171.03516 A 79.999998 79.999998 0 0 0 336.35938 170.43164 A 79.999998 79.999998 0 0 0 335.90625 169.83008 A 79.999998 79.999998 0 0 0 335.44727 169.23438 A 79.999998 79.999998 0 0 0 334.98242 168.64258 A 79.999998 79.999998 0 0 0 334.51367 168.05664 A 79.999224 79.999224 0 0 0 334.18359 167.65039 A 79.999998 79.999998 0 0 0 334.03711 167.47266 A 79.999224 79.999224 0 0 0 334.01953 167.45117 A 79.999998 79.999998 0 0 0 333.55664 166.89453 A 79.999998 79.999998 0 0 0 333.07031 166.32227 A 79.999998 79.999998 0 0 0 332.57812 165.75195 A 79.999224 79.999224 0 0 0 332.23438 165.35938 A 79.999998 79.999998 0 0 0 332.08203 165.1875 A 79.999224 79.999224 0 0 0 331.99609 165.0918 A 79.999998 79.999998 0 0 0 331.57812 164.62891 A 79.999224 79.999224 0 0 0 331.22656 164.24219 A 79.999998 79.999998 0 0 0 331.07227 164.07422 A 79.999224 79.999224 0 0 0 330.7168 163.69141 A 79.999998 79.999998 0 0 0 330.55859 163.52344 A 79.999224 79.999224 0 0 0 330.19922 163.14453 A 79.999998 79.999998 0 0 0 330.04102 162.97852 A 79.999224 79.999224 0 0 0 329.67773 162.60156 A 79.999998 79.999998 0 0 0 329.51758 162.4375 A 79.999224 79.999224 0 0 0 329.48828 162.4082 A 79.999998 79.999998 0 0 0 328.98828 161.90234 A 79.999224 79.999224 0 0 0 328.61914 161.5332 A 79.999224 79.999224 0 0 0 328.23633 161.15625 A 79.999224 79.999224 0 0 0 328.08398 161.00586 A 79.999998 79.999998 0 0 0 327.91797 160.8457 A 79.999224 79.999224 0 0 0 327.54102 160.48438 A 79.999998 79.999998 0 0 0 327.375 160.32617 A 79.999224 79.999224 0 0 0 327.32422 160.2793 A 79.999998 79.999998 0 0 0 326.82617 159.81055 A 79.999998 79.999998 0 0 0 326.27344 159.30078 A 79.999998 79.999998 0 0 0 325.74609 158.82227 A 79.999998 79.999998 0 0 0 325.7168 158.79492 A 79.999224 79.999224 0 0 0 325.67773 158.76172 A 79.999998 79.999998 0 0 0 324.64844 157.85352 A 79.999998 79.999998 0 0 0 324.58789 157.80078 A 79.999224 79.999224 0 0 0 324.19141 157.46094 A 79.999998 79.999998 0 0 0 324.01562 157.3125 A 79.999224 79.999224 0 0 0 323.99023 157.29102 A 79.999998 79.999998 0 0 0 323.43945 156.83008 A 79.999998 79.999998 0 0 0 322.85938 156.35156 A 79.999998 79.999998 0 0 0 322.27539 155.87891 A 79.999224 79.999224 0 0 0 321.86523 155.55273 A 79.999998 79.999998 0 0 0 321.68555 155.41211 A 79.999224 79.999224 0 0 0 321.27344 155.08984 A 79.999998 79.999998 0 0 0 321.0918 154.94922 A 79.999224 79.999224 0 0 0 320.67578 154.63281 A 79.999998 79.999998 0 0 0 320.49219 154.49414 A 79.999998 79.999998 0 0 0 319.9082 154.05664 A 79.999998 79.999998 0 0 0 319.89062 154.04297 A 79.999224 79.999224 0 0 0 319.8457 154.00977 A 79.999998 79.999998 0 0 0 319.2832 153.59961 A 79.999998 79.999998 0 0 0 318.71484 153.18945 A 79.999998 79.999998 0 0 0 318.67383 153.16016 A 79.999224 79.999224 0 0 0 318.24609 152.85938 A 79.999224 79.999224 0 0 0 317.63281 152.43359 A 79.999224 79.999224 0 0 0 317.62891 152.42969 A 79.999998 79.999998 0 0 0 317.43945 152.29883 A 79.999224 79.999224 0 0 0 317.25195 152.17188 A 79.999998 79.999998 0 0 0 316.81641 151.87891 A 79.999998 79.999998 0 0 0 316.18945 151.46289 A 79.999224 79.999224 0 0 0 315.75195 151.17773 A 79.999998 79.999998 0 0 0 315.55859 151.05273 A 79.999224 79.999224 0 0 0 315.11914 150.77148 A 79.999998 79.999998 0 0 0 314.92383 150.64844 A 79.999224 79.999224 0 0 0 314.89648 150.63086 A 79.999998 79.999998 0 0 0 313.66406 149.87109 A 79.999998 79.999998 0 0 0 313.64453 149.85938 A 79.999224 79.999224 0 0 0 313.62109 149.8457 A 79.999998 79.999998 0 0 0 312.40625 149.12695 A 79.999998 79.999998 0 0 0 312.34961 149.09375 A 79.999224 79.999224 0 0 0 311.89648 148.83398 A 79.999998 79.999998 0 0 0 311.69531 148.7207 A 79.999224 79.999224 0 0 0 311.24023 148.46484 A 79.999998 79.999998 0 0 0 311.03906 148.35352 A 79.999224 79.999224 0 0 0 310.58203 148.10156 A 79.999998 79.999998 0 0 0 310.38086 147.99219 A 79.999224 79.999224 0 0 0 309.91992 147.74414 A 79.999998 79.999998 0 0 0 309.7168 147.63672 A 79.999224 79.999224 0 0 0 309.60938 147.58008 A 79.999998 79.999998 0 0 0 309.07812 147.30273 A 79.999998 79.999998 0 0 0 309.05078 147.28906 A 79.999224 79.999224 0 0 0 308.58594 147.05078 A 79.999998 79.999998 0 0 0 308.38086 146.94727 A 79.999224 79.999224 0 0 0 308.29297 146.9043 A 79.999998 79.999998 0 0 0 307.70703 146.61133 A 79.999998 79.999998 0 0 0 307.03125 146.28125 A 79.999224 79.999224 0 0 0 306.56055 146.05469 A 79.999998 79.999998 0 0 0 306.35352 145.95703 A 79.999224 79.999224 0 0 0 306.23047 145.90039 A 79.999998 79.999998 0 0 0 305.66992 145.64062 A 79.999224 79.999224 0 0 0 305.19531 145.42383 A 79.999998 79.999998 0 0 0 304.98633 145.33008 A 79.999224 79.999224 0 0 0 304.91992 145.30078 A 79.999998 79.999998 0 0 0 304.35547 145.05078 A 79.999998 79.999998 0 0 0 304.29883 145.02539 A 79.999224 79.999224 0 0 0 303.81836 144.81836 A 79.999998 79.999998 0 0 0 303.60742 144.72852 A 79.999224 79.999224 0 0 0 303.49219 144.67969 A 79.999998 79.999998 0 0 0 302.91406 144.4375 A 79.999998 79.999998 0 0 0 302.22852 144.1582 A 79.999998 79.999998 0 0 0 302.2168 144.15234 A 79.999224 79.999224 0 0 0 301.73242 143.95898 A 79.999998 79.999998 0 0 0 301.51953 143.875 A 79.999224 79.999224 0 0 0 301.37109 143.81836 A 79.999998 79.999998 0 0 0 300.81641 143.60352 A 79.999998 79.999998 0 0 0 300.1543 143.35352 A 79.999998 79.999998 0 0 0 300.11328 143.33789 A 79.999224 79.999224 0 0 0 299.62305 143.1582 A 79.999998 79.999998 0 0 0 299.40625 143.08008 A 79.999224 79.999224 0 0 0 299.33398 143.05469 A 79.999998 79.999998 0 0 0 298.69727 142.82812 A 79.999998 79.999998 0 0 0 297.27344 142.3457 A 79.999224 79.999224 0 0 0 296.77734 142.18359 A 79.999998 79.999998 0 0 0 296.55859 142.11328 A 79.999224 79.999224 0 0 0 296.06055 141.95703 A 79.999998 79.999998 0 0 0 295.83984 141.88867 A 79.999224 79.999224 0 0 0 295.73047 141.85547 A 79.999998 79.999998 0 0 0 295.12109 141.67188 A 79.999998 79.999998 0 0 0 294.39844 141.46094 A 79.999998 79.999998 0 0 0 293.67383 141.25586 A 79.999998 79.999998 0 0 0 292.94922 141.05859 A 79.999998 79.999998 0 0 0 292.2207 140.86719 A 79.999998 79.999998 0 0 0 291.49219 140.68359 A 79.999998 79.999998 0 0 0 290.80469 140.51562 A 79.999998 79.999998 0 0 0 290.76172 140.50586 A 79.999224 79.999224 0 0 0 290.65625 140.48242 A 79.999998 79.999998 0 0 0 290.0293 140.33594 A 79.999224 79.999224 0 0 0 290.02734 140.33594 A 79.999998 79.999998 0 0 0 288.55859 140.01758 A 79.999224 79.999224 0 0 0 288.04688 139.91211 A 79.999998 79.999998 0 0 0 287.82227 139.86719 A 79.999224 79.999224 0 0 0 287.30859 139.76758 A 79.999998 79.999998 0 0 0 287.08398 139.72461 A 79.999224 79.999224 0 0 0 286.94922 139.69922 A 79.999998 79.999998 0 0 0 286.34375 139.58984 A 79.999998 79.999998 0 0 0 285.60156 139.46094 A 79.999998 79.999998 0 0 0 284.85938 139.33984 A 79.999998 79.999998 0 0 0 284.11719 139.22461 A 79.999998 79.999998 0 0 0 283.37305 139.11719 A 79.999998 79.999998 0 0 0 282.62695 139.01562 A 79.999998 79.999998 0 0 0 281.93555 138.92773 A 79.999998 79.999998 0 0 0 281.88086 138.92188 A 79.999224 79.999224 0 0 0 281.36328 138.86133 A 79.999998 79.999998 0 0 0 281.13281 138.83594 A 79.999224 79.999224 0 0 0 281.08789 138.83203 A 79.999998 79.999998 0 0 0 280.45703 138.76367 A 79.999998 79.999998 0 0 0 280.38477 138.75586 A 79.999224 79.999224 0 0 0 279.86719 138.70508 A 79.999998 79.999998 0 0 0 279.63672 138.68359 A 79.999224 79.999224 0 0 0 279.54102 138.67578 A 79.999998 79.999998 0 0 0 278.88867 138.61914 A 79.999998 79.999998 0 0 0 278.13867 138.56055 A 79.999224 79.999224 0 0 0 277.61719 138.52344 A 79.999998 79.999998 0 0 0 277.54688 138.51953 A 79.999224 79.999224 0 0 0 277.15234 138.49414 A 79.999998 79.999998 0 0 0 276.63672 138.46484 A 79.999998 79.999998 0 0 0 275.88477 138.42773 A 79.999998 79.999998 0 0 0 275.14453 138.39648 A 79.999998 79.999998 0 0 0 275.13477 138.39648 A 79.999224 79.999224 0 0 0 275.10547 138.39648 A 79.999998 79.999998 0 0 0 274.44336 138.375 A 79.999998 79.999998 0 0 0 274.38281 138.37305 A 79.999224 79.999224 0 0 0 273.86133 138.36133 A 79.999998 79.999998 0 0 0 273.63086 138.35742 A 79.999224 79.999224 0 0 0 273.50977 138.35547 A 79.999998 79.999998 0 0 0 272.97656 138.34961 A 79.999998 79.999998 0 0 0 272.87891 138.34766 A 79.999224 79.999224 0 0 0 272.29688 138.3457 A 79.999998 79.999998 0 0 0 272.23633 138.3457 z M 272.09375 148.3457 A 70.000003 70.000003 0 0 1 272.29688 148.3457 L 272.29688 218.3457 L 342.29688 218.3457 A 70.000003 70.000003 0 0 1 272.29688 288.3457 A 70.000003 70.000003 0 0 1 202.29688 218.3457 A 70.000003 70.000003 0 0 1 272.09375 148.3457 z "
       transform="scale(0.26458333)" />
  </g>
</svg>
