<?xml version="1.0" encoding="UTF-8" standalone="no"?>
<svg
   xmlns:dc="http://purl.org/dc/elements/1.1/"
   xmlns:cc="http://creativecommons.org/ns#"
   xmlns:rdf="http://www.w3.org/1999/02/22-rdf-syntax-ns#"
   xmlns:svg="http://www.w3.org/2000/svg"
   xmlns="http://www.w3.org/2000/svg"
   xmlns:sodipodi="http://sodipodi.sourceforge.net/DTD/sodipodi-0.dtd"
   xmlns:inkscape="http://www.inkscape.org/namespaces/inkscape"
   width="480"
   height="256"
   viewBox="0 0 126.99999 67.73333"
   version="1.1"
   id="svg8"
   inkscape:version="1.0.1 (3bc2e81, 2020-09-07)"
   sodipodi:docname="main.svg">
  <defs
     id="defs2">
    <clipPath
       clipPathUnits="userSpaceOnUse"
       id="clipPath2463">
      <path
         id="path2465"
         style="opacity:1;fill:#a1bef7;fill-opacity:1;stroke-width:2.10864"
         d="m 26.758054,9.6547069 c -1.095368,0 -1.97714,0.8817711 -1.97714,1.9771401 v 52.006124 2.118217 1.977141 h 1.97714 73.483886 1.97714 V 65.756188 63.637971 11.631847 c 0,-1.095369 -0.88177,-1.9771401 -1.97714,-1.9771401 z" />
    </clipPath>
  </defs>
  <sodipodi:namedview
     id="base"
     pagecolor="#ffffff"
     bordercolor="#666666"
     borderopacity="1.0"
     inkscape:pageopacity="0.0"
     inkscape:pageshadow="2"
     inkscape:zoom="2.0000001"
     inkscape:cx="213.10903"
     inkscape:cy="91.357965"
     inkscape:document-units="px"
     inkscape:current-layer="layer1"
     inkscape:document-rotation="0"
     showgrid="false"
     units="px"
     inkscape:snap-page="true"
     inkscape:snap-smooth-nodes="true"
     inkscape:snap-midpoints="true"
     inkscape:window-width="1920"
     inkscape:window-height="1026"
     inkscape:window-x="0"
     inkscape:window-y="32"
     inkscape:window-maximized="1"
     inkscape:snap-object-midpoints="true" />
  <metadata
     id="metadata5">
    <rdf:RDF>
      <cc:Work
         rdf:about="">
        <dc:format>image/svg+xml</dc:format>
        <dc:type
           rdf:resource="http://purl.org/dc/dcmitype/StillImage" />
        <dc:title />
      </cc:Work>
    </rdf:RDF>
  </metadata>
  <g
     inkscape:label="Layer 1"
     inkscape:groupmode="layer"
     id="layer1">
    <rect
       style="fill:#000000;fill-opacity:1;stroke-width:1.5869"
       id="rect2396"
       width="126.99999"
       height="67.73333"
       x="0"
       y="8.8817842e-16"
       ry="0" />
    <g
       id="g4565"
       transform="matrix(0.75986264,0,0,0.75986264,19.085664,8.1326513)">
      <g
         id="g4554"
         transform="matrix(1.0422375,0,0,1.0422375,-3.1227469,10.449372)">
        <path
           id="rect835"
           style="fill:#ffff00;fill-opacity:1;stroke:none;stroke-width:0.128554;stop-color:#000000"
           d="m 40.306024,11.979008 v 10.48928 H 50.795305 A 10.489281,10.48928 0 0 0 40.306024,11.979008 Z" />
        <path
           id="path833-6"
           style="fill:#00b0f0;fill-opacity:1;stroke:none;stroke-width:0.215019;stop-color:#000000"
           d="M 40.306024,11.979008 A 10.48928,10.48928 0 0 0 29.816743,22.468288 10.48928,10.48928 0 0 0 40.306024,32.957569 10.48928,10.48928 0 0 0 50.795305,22.468288 H 40.306024 Z m 10.489281,10.48928 a 10.48928,10.48928 0 0 0 -1.55e-4,-0.05514 10.489281,10.48928 0 0 1 1.55e-4,0.05514 z M 40.630132,11.98405 a 10.489281,10.48928 0 0 1 0.04721,0.0016 10.48928,10.48928 0 0 0 -0.04721,-0.0016 z m 0.495366,0.02705 a 10.489281,10.48928 0 0 1 0.03761,0.003 10.48928,10.48928 0 0 0 -0.03761,-0.003 z m 0.274492,0.02513 a 10.489281,10.48928 0 0 1 0.04706,0.005 10.48928,10.48928 0 0 0 -0.04706,-0.005 z m 0.109557,0.01208 a 10.489281,10.48928 0 0 1 0.109478,0.0132 10.48928,10.48928 0 0 0 -0.109478,-0.0132 z m 0.273372,0.03521 a 10.489281,10.48928 0 0 1 0.05458,0.0079 10.48928,10.48928 0 0 0 -0.05458,-0.0079 z m 0.109077,0.01609 a 10.489281,10.48928 0 0 1 0.04249,0.0066 10.48928,10.48928 0 0 0 -0.04249,-0.0066 z m 0.163335,0.02633 a 10.489281,10.48928 0 0 1 0.05426,0.0093 10.48928,10.48928 0 0 0 -0.05426,-0.0093 z m 0.487043,0.09427 a 10.489281,10.48928 0 0 1 0.04914,0.0108 10.48928,10.48928 0 0 0 -0.04914,-0.0108 z m 0.905504,0.2404 a 10.489281,10.48928 0 0 1 0.0525,0.01665 10.48928,10.48928 0 0 0 -0.0525,-0.01665 z m 0.572913,0.198227 a 10.489281,10.48928 0 0 1 0.05154,0.01969 10.48928,10.48928 0 0 0 -0.05154,-0.01969 z m 0.05154,0.01969 a 10.489281,10.48928 0 0 1 0.05058,0.01961 10.48928,10.48928 0 0 0 -0.05058,-0.01961 z m 1.006338,0.44919 a 10.489281,10.48928 0 0 1 0.03913,0.02009 10.48928,10.48928 0 0 0 -0.03913,-0.02009 z m 0.243762,0.128604 a 10.489281,10.48928 0 0 1 0.04834,0.02649 10.48928,10.48928 0 0 0 -0.04834,-0.02649 z m 0.144609,0.08027 a 10.489281,10.48928 0 0 1 0.04738,0.02689 10.48928,10.48928 0 0 0 -0.04738,-0.02689 z m 0.09571,0.05474 a 10.489281,10.48928 0 0 1 0.07731,0.04521 10.48928,10.48928 0 0 0 -0.07731,-0.04521 z m 0.92335,0.601642 a 10.489281,10.48928 0 0 1 0.03217,0.02353 10.48928,10.48928 0 0 0 -0.03217,-0.02353 z m 0.350758,0.267209 a 10.489281,10.48928 0 0 1 0.02793,0.02233 10.48928,10.48928 0 0 0 -0.02793,-0.02233 z m 0.545143,0.465037 a 10.489281,10.48928 0 0 1 0.04057,0.03729 10.48928,10.48928 0 0 0 -0.04057,-0.03729 z m 0.47392,0.461354 a 10.489281,10.48928 0 0 1 0.03137,0.03265 10.48928,10.48928 0 0 0 -0.03137,-0.03265 z m 0.225836,0.241681 a 10.489281,10.48928 0 0 1 0.02321,0.02577 10.48928,10.48928 0 0 0 -0.02321,-0.02577 z m 0.182299,0.20671 a 10.489281,10.48928 0 0 1 0.02345,0.02745 10.48928,10.48928 0 0 0 -0.02345,-0.02745 z m 0.347957,0.427503 a 10.489281,10.48928 0 0 1 0.02305,0.02993 10.48928,10.48928 0 0 0 -0.02305,-0.02993 z m 0.261928,0.354759 a 10.489281,10.48928 0 0 1 0.03169,0.04513 10.48928,10.48928 0 0 0 -0.03169,-0.04513 z m 0.06314,0.09043 a 10.489281,10.48928 0 0 1 0.03121,0.04537 10.48928,10.48928 0 0 0 -0.03121,-0.04537 z m 0.386769,0.603082 a 10.489281,10.48928 0 0 1 0.01392,0.02353 10.48928,10.48928 0 0 0 -0.01392,-0.02353 z m 0.442069,0.826037 a 10.489281,10.48928 0 0 1 0.04714,0.09971 10.48928,10.48928 0 0 0 -0.04714,-0.09971 z m 0.04714,0.09971 a 10.489281,10.48928 0 0 1 0.02313,0.05002 10.48928,10.48928 0 0 0 -0.02313,-0.05002 z m 0.376126,0.917828 a 10.489281,10.48928 0 0 1 0.01344,0.03809 10.48928,10.48928 0 0 0 -0.01344,-0.03809 z m 0.08891,0.260887 a 10.489281,10.48928 0 0 1 0.01168,0.03617 10.48928,10.48928 0 0 0 -0.01168,-0.03617 z m 0.08203,0.263129 a 10.489281,10.48928 0 0 1 0.01273,0.04305 10.48928,10.48928 0 0 0 -0.01273,-0.04305 z m 0.143169,0.532258 a 10.489281,10.48928 0 0 1 0.0099,0.04169 10.48928,10.48928 0 0 0 -0.0099,-0.04169 z m 0.06106,0.26881 a 10.489281,10.48928 0 0 1 0.01137,0.05394 10.48928,10.48928 0 0 0 -0.01137,-0.05394 z m 0.09203,0.487524 a 10.489281,10.48928 0 0 1 0.0088,0.05442 10.48928,10.48928 0 0 0 -0.0088,-0.05442 z m 0.09707,0.765457 a 10.489281,10.48928 0 0 1 0.0046,0.05202 10.48928,10.48928 0 0 0 -0.0046,-0.05202 z m 0.01737,0.219834 a 10.489281,10.48928 0 0 1 0.007,0.110036 10.48928,10.48928 0 0 0 -0.007,-0.110036 z m 0.01521,0.275212 a 10.489281,10.48928 0 0 1 0.0019,0.04962 10.48928,10.48928 0 0 0 -0.0019,-0.04962 z" />
      </g>
      <g
         aria-label="OS"
         id="text4558"
         style="font-style:normal;font-weight:normal;font-size:27.3603px;line-height:1.25;font-family:sans-serif;letter-spacing:0px;word-spacing:0px;fill:#000000;fill-opacity:1;stroke:none;stroke-width:0.684008">
        <path
           d="m 63.995061,23.40135 c -6.019266,0 -10.670517,4.56917 -10.670517,10.478995 0,5.855104 4.705971,10.451634 10.643156,10.451634 5.882465,0 10.424275,-4.56917 10.424275,-10.451634 0,-5.827744 -4.623891,-10.478995 -10.396914,-10.478995 z m -0.05472,3.611559 c 3.748361,0 6.675913,3.009633 6.675913,6.894796 0,3.912523 -2.845471,6.812715 -6.675913,6.812715 -3.830442,0 -6.840075,-3.009633 -6.840075,-6.840075 0,-3.912523 2.954912,-6.867436 6.840075,-6.867436 z"
           style="font-style:normal;font-variant:normal;font-weight:600;font-stretch:normal;font-family:'URW Gothic';-inkscape-font-specification:'URW Gothic Semi-Bold';fill:#ffffff;fill-opacity:1;stroke-width:0.684008"
           id="path4589" />
        <path
           d="m 75.841985,38.203272 c 0.136801,1.586898 0.492485,2.599229 1.313294,3.693641 1.203853,1.532176 3.173795,2.435066 5.335259,2.435066 3.63892,0 6.45703,-2.818111 6.45703,-6.484391 0,-1.696338 -0.601926,-3.119074 -1.805779,-4.213486 -0.793449,-0.738728 -1.422736,-1.067052 -3.420038,-1.83314 -1.915221,-0.711368 -1.969941,-0.738728 -2.243544,-0.90289 -0.738729,-0.465125 -1.121773,-1.094412 -1.121773,-1.83314 0,-1.203853 0.84817,-2.052023 2.079383,-2.052023 1.258574,0 2.024662,0.766089 2.134103,2.134104 h 3.885163 c -0.08208,-1.532177 -0.437765,-2.571868 -1.258574,-3.584199 -1.094412,-1.368015 -2.845471,-2.161464 -4.733332,-2.161464 -3.283236,0 -5.882464,2.544508 -5.882464,5.745663 0,2.544508 1.477456,4.487089 4.213486,5.49942 2.70867,1.012331 2.900192,1.094412 3.502118,1.559537 0.601927,0.492486 0.930251,1.203853 0.930251,2.052023 0,1.450096 -1.121773,2.462427 -2.73603,2.462427 -1.668979,0 -2.571869,-0.820809 -2.73603,-2.517148 z"
           style="font-style:normal;font-variant:normal;font-weight:600;font-stretch:normal;font-family:'URW Gothic';-inkscape-font-specification:'URW Gothic Semi-Bold';fill:#ffffff;fill-opacity:1;stroke-width:0.684008"
           id="path4591" />
      </g>
    </g>
  </g>
</svg>
