<?xml version="1.0" encoding="UTF-8" standalone="no"?>
<svg
   width="512"
   height="512"
   viewBox="0 0 135.46666 135.46667"
   version="1.1"
   id="svg8"
   inkscape:version="1.2.2 (b0a8486541, 2022-12-01)"
   sodipodi:docname="icon.svg"
   xml:space="preserve"
   xmlns:inkscape="http://www.inkscape.org/namespaces/inkscape"
   xmlns:sodipodi="http://sodipodi.sourceforge.net/DTD/sodipodi-0.dtd"
   xmlns="http://www.w3.org/2000/svg"
   xmlns:svg="http://www.w3.org/2000/svg"
   xmlns:rdf="http://www.w3.org/1999/02/22-rdf-syntax-ns#"
   xmlns:cc="http://creativecommons.org/ns#"
   xmlns:dc="http://purl.org/dc/elements/1.1/"><defs
     id="defs2"><rect
       x="-204.08504"
       y="209.21996"
       width="86.661801"
       height="87.376963"
       id="rect3316" /><rect
       x="-204.08504"
       y="209.21996"
       width="86.661804"
       height="87.376961"
       id="rect3316-5" /><rect
       x="-204.08504"
       y="209.21996"
       width="86.661804"
       height="87.376961"
       id="rect3316-2" /><rect
       x="-204.08504"
       y="209.21996"
       width="86.661804"
       height="87.376961"
       id="rect3316-2-8" /></defs><sodipodi:namedview
     id="base"
     pagecolor="#ffffff"
     bordercolor="#666666"
     borderopacity="1.0"
     inkscape:pageopacity="0.0"
     inkscape:pageshadow="2"
     inkscape:zoom="0.96984724"
     inkscape:cx="286.64308"
     inkscape:cy="366.03703"
     inkscape:document-units="px"
     inkscape:current-layer="layer1"
     inkscape:document-rotation="0"
     showgrid="false"
     units="px"
     inkscape:snap-page="true"
     inkscape:window-width="1920"
     inkscape:window-height="1026"
     inkscape:window-x="0"
     inkscape:window-y="32"
     inkscape:window-maximized="1"
     inkscape:showpageshadow="0"
     inkscape:pagecheckerboard="1"
     inkscape:deskcolor="#d1d1d1" /><metadata
     id="metadata5"><rdf:RDF><cc:Work
         rdf:about=""><dc:format>image/svg+xml</dc:format><dc:type
           rdf:resource="http://purl.org/dc/dcmitype/StillImage" /><dc:title /></cc:Work></rdf:RDF></metadata><g
     inkscape:label="Layer 1"
     inkscape:groupmode="layer"
     id="layer1"><rect
       style="fill:#27d8ab;fill-opacity:1;stroke-width:1.7174;stop-color:#000000"
       id="rect833"
       width="135.46666"
       height="135.46666"
       x="0"
       y="0" /><path
       id="rect1963-9-8-7-9-2-0"
       style="fill:#1eae8a;fill-opacity:1;stroke-width:8.13435;stop-color:#000000"
       d="M 78.116161 64.88131 C 70.784112 64.88131 64.88131 70.784112 64.88131 78.116161 L 64.88131 122.23181 C 64.88131 122.4112 64.887745 122.58906 64.894746 122.76667 L 64.88131 122.76667 L 64.88131 135.46666 L 77.58131 135.46666 L 77.58131 135.45323 C 77.758919 135.46023 77.936776 135.46666 78.116161 135.46666 L 122.23181 135.46666 C 122.4112 135.46666 122.58906 135.46023 122.76667 135.45323 L 122.76667 135.46666 L 135.46666 135.46666 L 135.46666 122.76667 L 135.45323 122.76667 C 135.46023 122.58906 135.46666 122.4112 135.46666 122.23181 L 135.46666 78.116161 C 135.46666 77.936776 135.46023 77.758919 135.45323 77.58131 L 135.46666 77.58131 L 135.46666 64.88131 L 122.76667 64.88131 L 122.76667 64.894746 C 122.58906 64.887745 122.4112 64.88131 122.23181 64.88131 L 78.116161 64.88131 z " /><g
       aria-label="+"
       transform="matrix(1.1979167,0,0,1.1979167,268.22065,-239.24878)"
       id="text3314"
       style="font-size:40px;line-height:1.25;font-family:'URW Gothic';-inkscape-font-specification:'URW Gothic';letter-spacing:0px;word-spacing:0px;white-space:pre;shape-inside:url(#rect3316);display:inline"><path
         d="m -193.48594,230.1407 h -8.56 v 2.96 h 8.56 v 8.72 h 3.08 v -8.72 h 8.52 v -2.96 h -8.52 v -8.64 h -3.08 z"
         id="path3911" /></g><g
       aria-label="×"
       transform="matrix(1.197922,0,0,1.197922,268.22166,-180.47394)"
       id="text3314-2"
       style="font-size:40px;line-height:1.25;font-family:'URW Gothic';-inkscape-font-specification:'URW Gothic';letter-spacing:0px;word-spacing:0px;white-space:pre;shape-inside:url(#rect3316-2);display:inline"><path
         d="m -189.88594,231.8207 8,-8.04 -2.08,-2.04 -8,8 -8,-8 -2.08,2.04 8,8.04 -8,8 2.08,2.04 8,-8 8,8 2.08,-2.04 z"
         id="path3917" /></g><g
       aria-label="="
       transform="matrix(1.197922,0,0,1.197922,327.16544,-180.44998)"
       id="text3314-2-9"
       style="font-size:40px;line-height:1.25;font-family:'URW Gothic';-inkscape-font-specification:'URW Gothic';letter-spacing:0px;word-spacing:0px;white-space:pre;shape-inside:url(#rect3316-2-8);display:inline"><path
         d="m -181.88594,226.3407 h -20.16 v 2.96 h 20.16 z m 0,7.92 h -20.16 v 2.96 h 20.16 z"
         id="path3920" /></g><g
       aria-label="−"
       transform="matrix(1.197922,0,0,1.197922,327.16544,-239.20209)"
       id="text3314-9"
       style="font-size:40px;line-height:1.25;font-family:'URW Gothic';-inkscape-font-specification:'URW Gothic';letter-spacing:0px;word-spacing:0px;white-space:pre;shape-inside:url(#rect3316-5);display:inline"><path
         d="m -181.88594,230.1407 h -20.16 v 2.96 h 20.16 z"
         id="path3914" /></g></g></svg>
