<?xml version="1.0" encoding="UTF-8" standalone="no"?>
<svg
   xmlns:dc="http://purl.org/dc/elements/1.1/"
   xmlns:cc="http://creativecommons.org/ns#"
   xmlns:rdf="http://www.w3.org/1999/02/22-rdf-syntax-ns#"
   xmlns:svg="http://www.w3.org/2000/svg"
   xmlns="http://www.w3.org/2000/svg"
   xmlns:sodipodi="http://sodipodi.sourceforge.net/DTD/sodipodi-0.dtd"
   xmlns:inkscape="http://www.inkscape.org/namespaces/inkscape"
   width="784"
   height="128"
   viewBox="0 0 207.43331 33.866668"
   version="1.1"
   id="svg175591"
   inkscape:version="1.0.1 (3bc2e81, 2020-09-07)"
   sodipodi:docname="wordmark-light.svg"
   inkscape:export-filename="/home/james/Code/LiveG/Website/src/media/branding/studios/wordmark-light.png"
   inkscape:export-xdpi="96"
   inkscape:export-ydpi="96">
  <metadata
     id="metadata17">
    <rdf:RDF>
      <cc:Work
         rdf:about="">
        <dc:format>image/svg+xml</dc:format>
        <dc:type
           rdf:resource="http://purl.org/dc/dcmitype/StillImage" />
      </cc:Work>
    </rdf:RDF>
  </metadata>
  <sodipodi:namedview
     id="namedview175593"
     pagecolor="#505050"
     bordercolor="#ffffff"
     borderopacity="1"
     inkscape:pageshadow="0"
     inkscape:pageopacity="0"
     inkscape:pagecheckerboard="1"
     inkscape:document-units="px"
     showgrid="false"
     units="px"
     inkscape:zoom="0.48819434"
     inkscape:cx="587.88064"
     inkscape:cy="411.72128"
     inkscape:window-width="1920"
     inkscape:window-height="1026"
     inkscape:window-x="0"
     inkscape:window-y="32"
     inkscape:window-maximized="1"
     inkscape:current-layer="text176538"
     inkscape:snap-page="false"
     inkscape:document-rotation="0" />
  <defs
     id="defs175588" />
  <g
     inkscape:label="Layer 1"
     inkscape:groupmode="layer"
     id="layer1">
    <g
       inkscape:label="Layer 1"
       id="layer1-4"
       transform="matrix(0.24189909,0,0,0.24189909,0.59562662,0.51987423)">
      <path
         id="rect835"
         style="fill:#ffff00;fill-opacity:1;stroke:none;stroke-width:0.830125;stop-color:#000000"
         d="M 67.733332,0 V 67.733332 H 135.46667 A 67.733334,67.73333 0 0 0 67.733332,0 Z" />
      <path
         id="path833-6"
         style="fill:#00b0f0;fill-opacity:1;stroke:none;stroke-width:5.24772;stop-color:#000000"
         d="M 256,0 A 255.99999,255.99999 0 0 0 0,256 255.99999,255.99999 0 0 0 256,512 255.99999,255.99999 0 0 0 512,256 H 256 Z M 512,256 A 255.99999,255.99999 0 0 0 511.996,254.6543 256.00001,255.99999 0 0 1 512,256 Z M 263.91016,0.12304688 a 256.00001,255.99999 0 0 1 1.15234,0.0390625 255.99999,255.99999 0 0 0 -1.15234,-0.0390625 z M 276,0.78320312 a 256.00001,255.99999 0 0 1 0.91797,0.0742188 A 255.99999,255.99999 0 0 0 276,0.78320312 Z m 6.69922,0.61328128 a 256.00001,255.99999 0 0 1 1.14844,0.1230468 255.99999,255.99999 0 0 0 -1.14844,-0.1230468 z m 2.67383,0.2949218 a 256.00001,255.99999 0 0 1 2.67187,0.3222657 255.99999,255.99999 0 0 0 -2.67187,-0.3222657 z m 6.67187,0.859375 a 256.00001,255.99999 0 0 1 1.33203,0.1933594 255.99999,255.99999 0 0 0 -1.33203,-0.1933594 z m 2.66211,0.3925782 a 256.00001,255.99999 0 0 1 1.03711,0.1621094 255.99999,255.99999 0 0 0 -1.03711,-0.1621094 z m 3.98633,0.6425781 A 256.00001,255.99999 0 0 1 300.01758,3.8125 255.99999,255.99999 0 0 0 298.69336,3.5859375 Z m 11.88672,2.3007813 a 256.00001,255.99999 0 0 1 1.19922,0.2636718 255.99999,255.99999 0 0 0 -1.19922,-0.2636718 z m 22.09961,5.8671872 a 256.00001,255.99999 0 0 1 1.28125,0.40625 255.99999,255.99999 0 0 0 -1.28125,-0.40625 z m 13.98242,4.837891 a 256.00001,255.99999 0 0 1 1.25781,0.480469 255.99999,255.99999 0 0 0 -1.25781,-0.480469 z m 1.25781,0.480469 a 256.00001,255.99999 0 0 1 1.23438,0.478515 255.99999,255.99999 0 0 0 -1.23438,-0.478515 z m 24.56055,10.96289 a 256.00001,255.99999 0 0 1 0.95508,0.490235 255.99999,255.99999 0 0 0 -0.95508,-0.490235 z m 5.94922,3.138672 a 256.00001,255.99999 0 0 1 1.17969,0.646484 255.99999,255.99999 0 0 0 -1.17969,-0.646484 z m 3.52929,1.958984 a 256.00001,255.99999 0 0 1 1.15625,0.65625 255.99999,255.99999 0 0 0 -1.15625,-0.65625 z m 2.33594,1.335938 a 256.00001,255.99999 0 0 1 1.88672,1.103516 255.99999,255.99999 0 0 0 -1.88672,-1.103516 z m 22.53516,14.683594 a 256.00001,255.99999 0 0 1 0.78515,0.574218 255.99999,255.99999 0 0 0 -0.78515,-0.574218 z m 8.56054,6.521484 a 256.00001,255.99999 0 0 1 0.68165,0.544922 255.99999,255.99999 0 0 0 -0.68165,-0.544922 z m 13.30469,11.34961 a 256.00001,255.99999 0 0 1 0.99024,0.910156 255.99999,255.99999 0 0 0 -0.99024,-0.910156 z m 11.56641,11.259765 a 256.00001,255.99999 0 0 1 0.76562,0.796875 255.99999,255.99999 0 0 0 -0.76562,-0.796875 z m 5.51172,5.898438 a 256.00001,255.99999 0 0 1 0.5664,0.628906 255.99999,255.99999 0 0 0 -0.5664,-0.628906 z m 4.44922,5.044921 a 256.00001,255.99999 0 0 1 0.57226,0.669922 255.99999,255.99999 0 0 0 -0.57226,-0.669922 z m 8.49218,10.433594 a 256.00001,255.99999 0 0 1 0.5625,0.730464 255.99999,255.99999 0 0 0 -0.5625,-0.730464 z m 6.39258,8.658204 a 256.00001,255.99999 0 0 1 0.77344,1.10156 255.99999,255.99999 0 0 0 -0.77344,-1.10156 z m 1.54102,2.20703 a 256.00001,255.99999 0 0 1 0.76172,1.10742 255.99999,255.99999 0 0 0 -0.76172,-1.10742 z m 9.43945,14.71875 a 256.00001,255.99999 0 0 1 0.33984,0.57422 255.99999,255.99999 0 0 0 -0.33984,-0.57422 z m 10.78906,20.16016 a 256.00001,255.99999 0 0 1 1.15039,2.43359 255.99999,255.99999 0 0 0 -1.15039,-2.43359 z m 1.15039,2.43359 a 256.00001,255.99999 0 0 1 0.56446,1.2207 255.99999,255.99999 0 0 0 -0.56446,-1.2207 z m 9.17969,22.40039 a 256.00001,255.99999 0 0 1 0.32813,0.92969 255.99999,255.99999 0 0 0 -0.32813,-0.92969 z m 2.16992,6.36719 a 256.00001,255.99999 0 0 1 0.28516,0.88281 255.99999,255.99999 0 0 0 -0.28516,-0.88281 z m 2.00196,6.42187 a 256.00001,255.99999 0 0 1 0.31054,1.05078 255.99999,255.99999 0 0 0 -0.31054,-1.05078 z m 3.49414,12.99024 a 256.00001,255.99999 0 0 1 0.24218,1.01758 255.99999,255.99999 0 0 0 -0.24218,-1.01758 z m 1.49023,6.56054 a 256.00001,255.99999 0 0 1 0.27734,1.31641 255.99999,255.99999 0 0 0 -0.27734,-1.31641 z m 2.2461,11.89844 a 256.00001,255.99999 0 0 1 0.21484,1.32813 255.99999,255.99999 0 0 0 -0.21484,-1.32813 z m 2.36914,18.68164 a 256.00001,255.99999 0 0 1 0.11132,1.26953 255.99999,255.99999 0 0 0 -0.11132,-1.26953 z m 0.42382,5.36524 a 256.00001,255.99999 0 0 1 0.16993,2.68554 255.99999,255.99999 0 0 0 -0.16993,-2.68554 z m 0.3711,6.71679 a 256.00001,255.99999 0 0 1 0.0469,1.21094 255.99999,255.99999 0 0 0 -0.0469,-1.21094 z"
         transform="scale(0.26458333)" />
    </g>
    <g
       aria-label="STUDIOS"
       id="text176538"
       style="font-size:43.8772px;line-height:1.25;font-family:reith;-inkscape-font-specification:reith;letter-spacing:0px;word-spacing:0px;stroke-width:1.09693">
      <path
         d="m 36.871449,23.907903 c 0.219386,2.544878 0.789789,4.168334 2.106105,5.923422 1.930597,2.457124 5.089756,3.905071 8.556054,3.905071 5.835668,0 10.35502,-4.519351 10.35502,-10.398896 0,-2.720387 -0.965298,-5.002001 -2.895895,-6.757089 -1.272439,-1.184685 -2.281615,-1.711211 -5.48465,-2.939773 -3.071405,-1.140807 -3.159159,-1.184684 -3.597931,-1.447947 -1.184684,-0.745913 -1.798965,-1.755088 -1.798965,-2.9397729 0,-1.9305968 1.360193,-3.29079 3.334667,-3.29079 2.018351,0 3.246913,1.2285616 3.422422,3.4224217 h 6.230562 C 56.967207,6.9274265 56.396803,5.2600928 55.080487,3.6366364 53.325399,1.4427764 50.517258,0.17033752 47.489731,0.17033752 c -5.265264,0 -9.433598,4.08057968 -9.433598,9.21421228 0,4.0805792 2.369369,7.1958612 6.757089,8.8193172 4.343843,1.623457 4.650983,1.755088 5.616282,2.501001 0.965298,0.789789 1.491825,1.930596 1.491825,3.29079 0,2.325491 -1.798966,3.948948 -4.387721,3.948948 -2.676509,0 -4.124456,-1.316316 -4.38772,-4.036703 z"
         style="font-weight:bold;font-family:'URW Gothic';-inkscape-font-specification:'URW Gothic Semi-Bold';fill:#ffffff"
         id="path190643" />
      <path
         d="m 65.523124,33.165993 h 6.011177 V 6.4886545 h 6.011176 V 0.74074114 H 59.511948 V 6.4886545 h 6.011176 z"
         style="font-weight:bold;font-family:'URW Gothic';-inkscape-font-specification:'URW Gothic Semi-Bold';fill:#ffffff"
         id="path190645" />
      <path
         d="M 80.616802,0.74074114 V 21.275271 c 0,3.466299 0.526526,5.704036 1.755088,7.634633 1.886719,2.98365 5.396895,4.826492 9.170335,4.826492 3.554053,0 6.844843,-1.579579 8.775435,-4.168334 1.53571,-2.106105 2.19387,-4.519351 2.19387,-8.292791 V 0.74074114 H 96.500348 V 21.275271 c 0,2.413246 -0.175508,3.422422 -0.789789,4.475475 -0.833667,1.360193 -2.369369,2.19386 -4.168334,2.19386 -1.755088,0 -3.29079,-0.833667 -4.124457,-2.19386 -0.614281,-1.053053 -0.78979,-2.062229 -0.78979,-4.475475 V 0.74074114 Z"
         style="font-weight:bold;font-family:'URW Gothic';-inkscape-font-specification:'URW Gothic Semi-Bold';fill:#ffffff"
         id="path190647" />
      <path
         d="m 108.69818,33.165993 h 7.54688 c 4.91425,0 7.85402,-0.482649 10.48665,-1.798966 5.00201,-2.457123 7.94178,-7.810141 7.94178,-14.347844 0,-6.186686 -2.54488,-11.2325637 -7.06423,-13.9529502 -2.54488,-1.535702 -6.40607,-2.32549166 -11.49583,-2.32549166 h -7.41525 z m 6.01118,-5.747914 V 6.4886545 h 1.18469 c 3.86119,0 5.87954,0.3510176 7.76626,1.316316 3.0714,1.5795793 4.95812,5.0458785 4.95812,9.2142125 0,3.905071 -1.79896,7.37137 -4.69486,8.950949 -1.79896,0.965298 -4.29996,1.447947 -7.89789,1.447947 z"
         style="font-weight:bold;font-family:'URW Gothic';-inkscape-font-specification:'URW Gothic Semi-Bold';fill:#ffffff"
         id="path190649" />
      <path
         d="m 139.41217,33.165993 h 6.01118 V 0.74074114 h -6.01118 z"
         style="font-weight:bold;font-family:'URW Gothic';-inkscape-font-specification:'URW Gothic Semi-Bold';fill:#ffffff"
         id="path190651" />
      <path
         d="m 167.14252,0.17033752 c -9.65299,0 -17.11211,7.32749258 -17.11211,16.80496848 0,9.389721 7.54688,16.76109 17.06823,16.76109 9.4336,0 16.71721,-7.327492 16.71721,-16.76109 0,-9.3458443 -7.41524,-16.80496848 -16.67333,-16.80496848 z m -0.0878,5.79179058 c 6.01118,0 10.70604,4.8264919 10.70604,11.0570549 0,6.274439 -4.56323,10.925423 -10.70604,10.925423 -6.14281,0 -10.9693,-4.826492 -10.9693,-10.9693 0,-6.27444 4.73874,-11.0131779 10.9693,-11.0131779 z"
         style="font-weight:bold;font-family:'URW Gothic';-inkscape-font-specification:'URW Gothic Semi-Bold';fill:#ffffff"
         id="path190653" />
      <path
         d="m 186.14121,23.907903 c 0.21938,2.544878 0.78979,4.168334 2.1061,5.923422 1.9306,2.457124 5.08976,3.905071 8.55606,3.905071 5.83567,0 10.35502,-4.519351 10.35502,-10.398896 0,-2.720387 -0.9653,-5.002001 -2.8959,-6.757089 -1.27244,-1.184685 -2.28161,-1.711211 -5.48465,-2.939773 -3.0714,-1.140807 -3.15916,-1.184684 -3.59793,-1.447947 -1.18468,-0.745913 -1.79896,-1.755088 -1.79896,-2.9397729 0,-1.9305968 1.36019,-3.29079 3.33466,-3.29079 2.01836,0 3.24692,1.2285616 3.42243,3.4224217 h 6.23056 c -0.13163,-2.4571233 -0.70204,-4.124457 -2.01835,-5.7479134 -1.75509,-2.19386 -4.56323,-3.46629888 -7.59076,-3.46629888 -5.26526,0 -9.4336,4.08057968 -9.4336,9.21421228 0,4.0805792 2.36937,7.1958612 6.75709,8.8193172 4.34385,1.623457 4.65099,1.755088 5.61628,2.501001 0.9653,0.789789 1.49183,1.930596 1.49183,3.29079 0,2.325491 -1.79897,3.948948 -4.38772,3.948948 -2.67651,0 -4.12446,-1.316316 -4.38772,-4.036703 z"
         style="font-weight:bold;font-family:'URW Gothic';-inkscape-font-specification:'URW Gothic Semi-Bold';fill:#ffffff"
         id="path190655" />
    </g>
  </g>
</svg>
