<?xml version="1.0" encoding="UTF-8" standalone="no"?>
<svg
   xmlns:dc="http://purl.org/dc/elements/1.1/"
   xmlns:cc="http://creativecommons.org/ns#"
   xmlns:rdf="http://www.w3.org/1999/02/22-rdf-syntax-ns#"
   xmlns:svg="http://www.w3.org/2000/svg"
   xmlns="http://www.w3.org/2000/svg"
   xmlns:sodipodi="http://sodipodi.sourceforge.net/DTD/sodipodi-0.dtd"
   xmlns:inkscape="http://www.inkscape.org/namespaces/inkscape"
   width="512"
   height="64"
   viewBox="0 0 135.46666 16.933335"
   version="1.1"
   id="svg2415"
   inkscape:version="1.0.1 (3bc2e81, 2020-09-07)"
   sodipodi:docname="domain.svg"
   inkscape:export-filename="/home/james/Code/DeviceFuture/branding/domain.png"
   inkscape:export-xdpi="96"
   inkscape:export-ydpi="96">
  <defs
     id="defs2409" />
  <sodipodi:namedview
     id="base"
     pagecolor="#ffffff"
     bordercolor="#666666"
     borderopacity="1.0"
     inkscape:pageopacity="0.0"
     inkscape:pageshadow="2"
     inkscape:zoom="1.979899"
     inkscape:cx="233.57821"
     inkscape:cy="68.096354"
     inkscape:document-units="px"
     inkscape:current-layer="layer1"
     inkscape:document-rotation="0"
     showgrid="false"
     units="px"
     inkscape:window-width="1920"
     inkscape:window-height="1026"
     inkscape:window-x="0"
     inkscape:window-y="32"
     inkscape:window-maximized="1" />
  <metadata
     id="metadata2412">
    <rdf:RDF>
      <cc:Work
         rdf:about="">
        <dc:format>image/svg+xml</dc:format>
        <dc:type
           rdf:resource="http://purl.org/dc/dcmitype/StillImage" />
        <dc:title></dc:title>
      </cc:Work>
    </rdf:RDF>
  </metadata>
  <g
     inkscape:label="Layer 1"
     inkscape:groupmode="layer"
     id="layer1">
    <path
       d="m 9.3823482,3.3890314 h 0.011919 c 0.2741446,0 0.4886926,0.214548 0.4886926,0.4886927 v 7.7356469 0.01192 c 0,0.274144 -0.214548,0.488692 -0.4886926,0.488692 -0.2741447,0 -0.4886927,-0.214548 -0.4886927,-0.488692 v -0.01192 -0.03576 c -0.011919,0.01192 -0.011919,0.01192 -0.023839,0.02384 -0.5244506,0.524451 -1.2396106,0.691321 -1.9190126,0.691321 -0.6674826,0 -1.3826426,-0.17879 -1.9190126,-0.70324 -0.5244507,-0.53637 -0.8105147,-1.370724 -0.8105147,-2.5507377 0,-1.1680946 0.2979834,-2.0143673 0.8343533,-2.538818 0.5244507,-0.5363699 1.2276914,-0.7032406 1.895174,-0.7032406 0.679402,0 1.394562,0.1668707 1.9190126,0.7032406 0.011919,0.011919 0.011919,0.011919 0.023839,0.023839 V 3.8777241 c 0,-0.2622254 0.214548,-0.4886927 0.4767737,-0.4886927 z M 6.9627236,6.7622027 c -0.5125313,0 -0.9177886,0.1191933 -1.215772,0.4171766 -0.2979833,0.2979834 -0.53637,0.8462727 -0.53637,1.859416 0,1.0131437 0.2264674,1.5614327 0.5244507,1.8594157 0.2979833,0.297984 0.71516,0.417177 1.2276913,0.417177 0.5125313,0 0.929708,-0.09535 1.2276913,-0.405257 0.3099027,-0.297984 0.53637,-0.834354 0.53637,-1.8713357 0,-1.0250626 -0.2264673,-1.5614326 -0.53637,-1.859416 C 7.8924316,6.881396 7.4752549,6.7622027 6.9627236,6.7622027 Z"
       style="font-style:normal;font-variant:normal;font-weight:normal;font-stretch:normal;font-size:14.3032px;line-height:1.25;font-family:'Brass Mono Comfortable';-inkscape-font-specification:'Brass Mono Comfortable';letter-spacing:0px;word-spacing:0px;fill:#1c5abd;fill-opacity:1;stroke:none;stroke-width:0.35758"
       id="path2447" />
    <path
       d="m 15.17513,5.594108 c 0.667482,0 1.382642,0.1907094 1.907093,0.71516 0.53637,0.5482893 0.822434,1.3707233 0.822434,2.5507373 0,0.2622253 -0.214548,0.4767733 -0.488693,0.4767733 h -3.992976 c 0.07152,0.7151604 0.274144,1.1323364 0.512531,1.3826424 0.309903,0.297984 0.71516,0.393338 1.239611,0.393338 0.512531,0 0.905869,-0.107274 1.215772,-0.417176 0.08343,-0.08344 0.238386,-0.143032 0.35758,-0.143032 0.262225,0 0.476773,0.214548 0.476773,0.488692 0,0.119194 -0.07152,0.262226 -0.154951,0.345661 -0.524451,0.524451 -1.227692,0.703241 -1.895174,0.703241 -0.667483,0 -1.394562,-0.154952 -1.919013,-0.691322 -0.512531,-0.512531 -0.798595,-1.311126 -0.822434,-2.443463 0,-0.023839 -0.01192,-0.071516 -0.01192,-0.095355 0,-0.035758 0.01192,-0.071516 0.01192,-0.107274 0.02384,-1.1323366 0.309903,-1.9428513 0.822434,-2.4553826 0.524451,-0.53637 1.239611,-0.7032407 1.919013,-0.7032404 z m 0,0.9773853 c -0.524451,0 -0.929708,0.107274 -1.239611,0.4052574 -0.238387,0.250306 -0.452935,0.679402 -0.512531,1.394562 h 3.480445 c -0.0596,-0.71516 -0.274145,-1.144256 -0.512531,-1.394562 C 16.080999,6.6787673 15.687661,6.5714933 15.17513,6.5714933 Z"
       style="font-style:normal;font-variant:normal;font-weight:normal;font-stretch:normal;font-size:14.3032px;line-height:1.25;font-family:'Brass Mono Comfortable';-inkscape-font-specification:'Brass Mono Comfortable';letter-spacing:0px;word-spacing:0px;fill:#1c5abd;fill-opacity:1;stroke:none;stroke-width:0.35758"
       id="path2449" />
    <path
       d="m 25.771402,5.594108 c 0.262226,0 0.464854,0.214548 0.464854,0.4886927 0,0.059597 -0.01192,0.1549513 -0.03576,0.214548 l -2.49114,5.5067323 c -0.07152,0.154951 -0.274145,0.286064 -0.441016,0.286064 -0.17879,0 -0.381418,-0.131113 -0.452934,-0.286064 L 20.336187,6.2973487 c -0.03576,-0.059597 -0.04768,-0.1549513 -0.04768,-0.214548 0,-0.2741447 0.214548,-0.4886927 0.488693,-0.4886927 0.166871,0 0.369499,0.143032 0.441015,0.2979834 L 23.26834,10.433357 25.306546,5.8920914 C 25.378064,5.73714 25.580693,5.594108 25.747564,5.594108 Z"
       style="font-style:normal;font-variant:normal;font-weight:normal;font-stretch:normal;font-size:14.3032px;line-height:1.25;font-family:'Brass Mono Comfortable';-inkscape-font-specification:'Brass Mono Comfortable';letter-spacing:0px;word-spacing:0px;fill:#1c5abd;fill-opacity:1;stroke:none;stroke-width:0.35758"
       id="path2451" />
    <path
       d="m 31.98136,4.342578 c 0,-0.3933379 -0.297984,-0.6913213 -0.691322,-0.6913213 -0.381418,0 -0.679402,0.2979834 -0.679402,0.6913213 0,0.3814187 0.297984,0.679402 0.679402,0.679402 0.393338,0 0.691322,-0.2979833 0.691322,-0.679402 z m -2.073964,1.4184007 h 1.573352 c 0.274144,0 0.488692,0.214548 0.488692,0.4767733 v 5.053797 h 1.203853 0.01192 c 0.274145,0 0.488693,0.214548 0.488693,0.488693 0,0.274145 -0.214548,0.488693 -0.488693,0.488693 h -0.01192 -3.599639 -0.01192 c -0.274145,0 -0.488693,-0.214548 -0.488693,-0.488693 0,-0.274145 0.214548,-0.488693 0.488693,-0.488693 h 0.01192 1.418401 V 6.7264447 h -1.084659 -0.01192 c -0.274144,0 -0.488692,-0.214548 -0.488692,-0.4886927 0,-0.2622253 0.214548,-0.4767733 0.488692,-0.4767733 z"
       style="font-style:normal;font-variant:normal;font-weight:normal;font-stretch:normal;font-size:14.3032px;line-height:1.25;font-family:'Brass Mono Comfortable';-inkscape-font-specification:'Brass Mono Comfortable';letter-spacing:0px;word-spacing:0px;fill:#1c5abd;fill-opacity:1;stroke:none;stroke-width:0.35758"
       id="path2453" />
    <path
       d="m 39.716993,5.594108 c 0.786676,0 1.632949,0.2383867 2.1574,0.9893047 0.0596,0.071516 0.09535,0.2026286 0.09535,0.286064 0,0.2741446 -0.214548,0.4886926 -0.476773,0.4886926 -0.143032,0 -0.321822,-0.107274 -0.405257,-0.214548 -0.309903,-0.4529346 -0.774757,-0.572128 -1.370724,-0.572128 -0.512531,0 -0.917788,0.107274 -1.215772,0.4052574 -0.297983,0.3099026 -0.548289,0.8343533 -0.548289,1.8594159 0,1.036982 0.250306,1.5733524 0.548289,1.8832544 0.297984,0.297984 0.703241,0.393338 1.215772,0.393338 0.560209,0 0.989305,-0.131112 1.299208,-0.500612 0.08343,-0.09535 0.262225,-0.16687 0.381418,-0.16687 0.274145,0 0.488693,0.214548 0.488693,0.488692 0,0.09536 -0.0596,0.238387 -0.131113,0.309903 -0.52445,0.643644 -1.311126,0.846273 -2.038206,0.846273 -0.679402,0 -1.370723,-0.154952 -1.907093,-0.691322 -0.524451,-0.52445 -0.822434,-1.370723 -0.822434,-2.5626564 0,-1.1800139 0.286064,-2.0143673 0.810515,-2.5388179 0.52445,-0.53637 1.23961,-0.7032407 1.919012,-0.7032407 z"
       style="font-style:normal;font-variant:normal;font-weight:normal;font-stretch:normal;font-size:14.3032px;line-height:1.25;font-family:'Brass Mono Comfortable';-inkscape-font-specification:'Brass Mono Comfortable';letter-spacing:0px;word-spacing:0px;fill:#1c5abd;fill-opacity:1;stroke:none;stroke-width:0.35758"
       id="path2455" />
    <path
       d="m 47.595659,5.594108 c 0.667483,0 1.382643,0.1907094 1.907093,0.71516 0.53637,0.5482893 0.822434,1.3707233 0.822434,2.5507373 0,0.2622253 -0.214548,0.4767733 -0.488692,0.4767733 h -3.992977 c 0.07152,0.7151604 0.274145,1.1323364 0.512531,1.3826424 0.309903,0.297984 0.71516,0.393338 1.239611,0.393338 0.512531,0 0.905869,-0.107274 1.215772,-0.417176 0.08344,-0.08344 0.238387,-0.143032 0.35758,-0.143032 0.262225,0 0.476773,0.214548 0.476773,0.488692 0,0.119194 -0.07152,0.262226 -0.154951,0.345661 -0.524451,0.524451 -1.227691,0.703241 -1.895174,0.703241 -0.667483,0 -1.394562,-0.154952 -1.919013,-0.691322 -0.512531,-0.512531 -0.798595,-1.311126 -0.822434,-2.443463 0,-0.023839 -0.01192,-0.071516 -0.01192,-0.095355 0,-0.035758 0.01192,-0.071516 0.01192,-0.107274 0.02384,-1.1323366 0.309903,-1.9428513 0.822434,-2.4553826 0.524451,-0.53637 1.239611,-0.7032407 1.919013,-0.7032404 z m 0,0.9773853 c -0.524451,0 -0.929708,0.107274 -1.239611,0.4052574 -0.238386,0.250306 -0.452934,0.679402 -0.512531,1.394562 h 3.480445 c -0.0596,-0.71516 -0.274144,-1.144256 -0.512531,-1.394562 C 48.501528,6.6787673 48.10819,6.5714933 47.595659,6.5714933 Z"
       style="font-style:normal;font-variant:normal;font-weight:normal;font-stretch:normal;font-size:14.3032px;line-height:1.25;font-family:'Brass Mono Comfortable';-inkscape-font-specification:'Brass Mono Comfortable';letter-spacing:0px;word-spacing:0px;fill:#1c5abd;fill-opacity:1;stroke:none;stroke-width:0.35758"
       id="path2457" />
    <path
       d="m 56.725851,3.2221607 c 0.810515,0 1.454159,0.429096 1.454159,0.429096 0.131112,0.071516 0.250306,0.2622254 0.250306,0.4171767 0,0.2741446 -0.214548,0.4886926 -0.488693,0.4886926 -0.08344,0 -0.202629,-0.035758 -0.274145,-0.071516 0,0 -0.464854,-0.2860639 -0.941627,-0.2860639 -0.238387,0 -0.429096,0.1072739 -0.595967,0.3694993 -0.17879,0.250306 -0.309902,0.643644 -0.309902,1.07274 h 1.77598 0.01192 c 0.274144,0 0.488692,0.214548 0.488692,0.4886926 0,0.2622253 -0.214548,0.4767733 -0.488692,0.4767733 h -0.01192 -1.77598 V 11.816 c 0,0.274145 -0.214548,0.488693 -0.476774,0.488693 -0.274144,0 -0.488692,-0.214548 -0.488692,-0.488693 V 6.6072513 h -1.406482 -0.01192 c -0.274145,0 -0.488693,-0.214548 -0.488693,-0.4767733 0,-0.2741446 0.214548,-0.4886926 0.488693,-0.4886926 h 0.01192 1.406482 c 0,-0.607886 0.16687,-1.180014 0.464854,-1.6210293 0.321822,-0.4529347 0.822434,-0.7985954 1.406481,-0.7985954 z"
       style="font-style:normal;font-variant:normal;font-weight:normal;font-stretch:normal;font-size:14.3032px;line-height:1.25;font-family:'Brass Mono Comfortable';-inkscape-font-specification:'Brass Mono Comfortable';letter-spacing:0px;word-spacing:0px;fill:#db1d76;fill-opacity:1;stroke:none;stroke-width:0.35758"
       id="path2459" />
    <path
       d="m 61.624683,5.594108 c 0.274145,0 0.488693,0.214548 0.488693,0.4886927 V 6.09472 9.0864726 c 0,0.858192 0.190709,1.3588044 0.429096,1.6329484 0.250306,0.262226 0.619805,0.393338 1.25153,0.393338 0.643644,0 1.013143,-0.107274 1.25153,-0.381418 0.250306,-0.274145 0.429096,-0.7628377 0.429096,-1.6448684 V 6.09472 l -0.01192,-0.011919 c 0,-0.2741447 0.214548,-0.4886927 0.488692,-0.4886927 0.274145,0 0.488693,0.214548 0.488693,0.4886927 V 6.09472 9.0864726 c 0,1.0131434 -0.190709,1.7759804 -0.679402,2.3004314 -0.488693,0.524451 -1.180014,0.703241 -1.96669,0.703241 -0.786676,0 -1.501836,-0.19071 -1.978609,-0.71516 C 61.338619,10.838615 61.14791,10.075777 61.14791,9.0864726 V 6.09472 6.0828007 c 0,-0.2622253 0.226467,-0.4886927 0.476773,-0.4886927 z"
       style="font-style:normal;font-variant:normal;font-weight:normal;font-stretch:normal;font-size:14.3032px;line-height:1.25;font-family:'Brass Mono Comfortable';-inkscape-font-specification:'Brass Mono Comfortable';letter-spacing:0px;word-spacing:0px;fill:#db1d76;fill-opacity:1;stroke:none;stroke-width:0.35758"
       id="path2461" />
    <path
       d="m 71.386604,3.3532734 h 0.02384 c 0.262226,0 0.476774,0.214548 0.476774,0.4886927 v 0.011919 1.930932 h 2.419624 0.01192 c 0.274144,0 0.488692,0.214548 0.488692,0.4886926 0,0.2741447 -0.214548,0.4886927 -0.488692,0.4886927 h -0.01192 -2.419624 v 3.4089296 c 0,0.393338 0.07152,0.667483 0.238386,0.834353 0.154952,0.166871 0.464854,0.309903 1.144256,0.309903 h 0.54829 c 0.274144,0 0.488692,0.214548 0.488692,0.488693 0,0.274144 -0.214548,0.488692 -0.488692,0.488692 h -0.54829 c -0.834353,0 -1.466078,-0.202628 -1.859416,-0.631724 C 71.005185,11.231953 70.92175,10.695583 70.92175,10.171132 V 6.7622027 h -1.44224 c -0.274144,0 -0.488692,-0.214548 -0.488692,-0.4886927 0,-0.2741446 0.214548,-0.4886926 0.488692,-0.4886926 h 1.44224 v -1.930932 -0.011919 c 0,-0.2622254 0.214548,-0.4886927 0.464854,-0.488693 z"
       style="font-style:normal;font-variant:normal;font-weight:normal;font-stretch:normal;font-size:14.3032px;line-height:1.25;font-family:'Brass Mono Comfortable';-inkscape-font-specification:'Brass Mono Comfortable';letter-spacing:0px;word-spacing:0px;fill:#db1d76;fill-opacity:1;stroke:none;stroke-width:0.35758"
       id="path2463" />
    <path
       d="m 77.83495,5.594108 c 0.274144,0 0.488692,0.214548 0.488692,0.4886927 V 6.09472 9.0864726 c 0,0.858192 0.19071,1.3588044 0.429096,1.6329484 0.250306,0.262226 0.619806,0.393338 1.25153,0.393338 0.643644,0 1.013143,-0.107274 1.25153,-0.381418 0.250306,-0.274145 0.429096,-0.7628377 0.429096,-1.6448684 V 6.09472 l -0.01192,-0.011919 c 0,-0.2741447 0.214548,-0.4886927 0.488692,-0.4886927 0.274145,0 0.488693,0.214548 0.488693,0.4886927 V 6.09472 9.0864726 c 0,1.0131434 -0.190709,1.7759804 -0.679402,2.3004314 -0.488693,0.524451 -1.180014,0.703241 -1.96669,0.703241 -0.786676,0 -1.501836,-0.19071 -1.978609,-0.71516 -0.476773,-0.53637 -0.667483,-1.299208 -0.667483,-2.2885124 V 6.09472 6.0828007 c 0,-0.2622253 0.226468,-0.4886927 0.476775,-0.4886927 z"
       style="font-style:normal;font-variant:normal;font-weight:normal;font-stretch:normal;font-size:14.3032px;line-height:1.25;font-family:'Brass Mono Comfortable';-inkscape-font-specification:'Brass Mono Comfortable';letter-spacing:0px;word-spacing:0px;fill:#db1d76;fill-opacity:1;stroke:none;stroke-width:0.35758"
       id="path2465" />
    <path
       d="m 85.940083,5.5702694 c 0.274144,0 0.488692,0.214548 0.488692,0.4886926 V 6.070881 6.09472 c 0.476774,-0.35758 1.060821,-0.5125313 1.668707,-0.5125313 0.679402,0 1.287288,0.143032 1.7879,0.4767733 0.500612,0.321822 0.858192,0.8701113 0.858192,1.501836 h 0.02384 c 0,0.2622253 -0.214548,0.4767733 -0.488693,0.4767733 -0.274145,0 -0.488693,-0.214548 -0.488693,-0.4767733 0,-0.286064 -0.143032,-0.500612 -0.429096,-0.6913213 -0.286065,-0.1907094 -0.738999,-0.3099027 -1.26345,-0.3099027 -0.476773,0 -0.89395,0.1549513 -1.180014,0.4052573 -0.286064,0.2622254 -0.488693,0.6317247 -0.488693,1.2038527 v 3.39701 0.03576 c 0,0.274145 -0.214548,0.488693 -0.488692,0.488693 -0.274145,0 -0.488693,-0.214548 -0.488693,-0.488693 V 11.565694 8.168684 6.0708814 6.058962 c 0,-0.2622253 0.238387,-0.4886926 0.488693,-0.4886926 z"
       style="font-style:normal;font-variant:normal;font-weight:normal;font-stretch:normal;font-size:14.3032px;line-height:1.25;font-family:'Brass Mono Comfortable';-inkscape-font-specification:'Brass Mono Comfortable';letter-spacing:0px;word-spacing:0px;fill:#db1d76;fill-opacity:1;stroke:none;stroke-width:0.35758"
       id="path2467" />
    <path
       d="m 96.226454,5.594108 c 0.667482,0 1.382642,0.1907094 1.907093,0.71516 0.53637,0.5482893 0.822434,1.3707233 0.822434,2.5507373 0,0.2622253 -0.214548,0.4767733 -0.488693,0.4767733 h -3.992976 c 0.07152,0.7151604 0.274144,1.1323364 0.512531,1.3826424 0.309903,0.297984 0.71516,0.393338 1.239611,0.393338 0.512531,0 0.905869,-0.107274 1.215772,-0.417176 0.08343,-0.08344 0.238386,-0.143032 0.35758,-0.143032 0.262225,0 0.476773,0.214548 0.476773,0.488692 0,0.119194 -0.07152,0.262226 -0.154951,0.345661 -0.524451,0.524451 -1.227692,0.703241 -1.895174,0.703241 -0.667483,0 -1.394562,-0.154952 -1.919013,-0.691322 -0.512531,-0.512531 -0.798595,-1.311126 -0.822434,-2.443463 0,-0.023839 -0.01192,-0.071516 -0.01192,-0.095355 0,-0.035758 0.01192,-0.071516 0.01192,-0.107274 0.02384,-1.1323366 0.309903,-1.9428513 0.822434,-2.4553826 0.524451,-0.53637 1.239611,-0.7032407 1.919013,-0.7032404 z m 0,0.9773853 c -0.524451,0 -0.929708,0.107274 -1.239611,0.4052574 -0.238387,0.250306 -0.452935,0.679402 -0.512531,1.394562 h 3.480445 C 97.89516,7.6561527 97.680612,7.2270567 97.442226,6.9767507 97.132323,6.6787673 96.738985,6.5714933 96.226454,6.5714933 Z"
       style="font-style:normal;font-variant:normal;font-weight:normal;font-stretch:normal;font-size:14.3032px;line-height:1.25;font-family:'Brass Mono Comfortable';-inkscape-font-specification:'Brass Mono Comfortable';letter-spacing:0px;word-spacing:0px;fill:#db1d76;fill-opacity:1;stroke:none;stroke-width:0.35758"
       id="path2469" />
    <path
       d="m 105.49967,10.612147 c 0,-0.6674824 -0.52445,-1.191933 -1.19193,-1.191933 -0.65556,0 -1.16809,0.5244506 -1.16809,1.191933 0,0.655564 0.51253,1.168095 1.16809,1.168095 0.66748,0 1.19193,-0.512531 1.19193,-1.168095 z"
       style="font-style:normal;font-variant:normal;font-weight:normal;font-stretch:normal;font-size:14.3032px;line-height:1.25;font-family:'Brass Mono Comfortable';-inkscape-font-specification:'Brass Mono Comfortable';letter-spacing:0px;word-spacing:0px;fill:#1c5abd;fill-opacity:1;stroke:none;stroke-width:0.35758"
       id="path2471" />
    <path
       d="m 112.41287,5.594108 c 0.67941,0 1.39457,0.1668707 1.91902,0.7032407 0.53637,0.5244506 0.83435,1.3707233 0.83435,2.5388179 0,1.1800144 -0.29798,2.0262864 -0.83435,2.5507374 -0.52445,0.524451 -1.23961,0.703241 -1.91902,0.703241 -0.66748,0 -1.37072,-0.154952 -1.89517,-0.691322 -0.53637,-0.52445 -0.83435,-1.370723 -0.83435,-2.5626564 0,-1.1800139 0.28606,-2.0143673 0.82243,-2.5388179 0.52445,-0.53637 1.23961,-0.7032407 1.90709,-0.7032407 z m 0,0.9773853 c -0.51253,0 -0.90587,0.107274 -1.21577,0.4052574 -0.29798,0.3099026 -0.53637,0.8343533 -0.53637,1.8594159 0,1.036982 0.23839,1.5733524 0.53637,1.8832544 0.3099,0.297984 0.70324,0.393338 1.21577,0.393338 0.52445,0 0.92971,-0.107274 1.23961,-0.417176 0.29799,-0.297984 0.53637,-0.8343537 0.53637,-1.8594164 0,-1.0131433 -0.23838,-1.5495133 -0.53637,-1.8594159 -0.3099,-0.2979834 -0.71516,-0.4052574 -1.23961,-0.4052574 z"
       style="font-style:normal;font-variant:normal;font-weight:normal;font-stretch:normal;font-size:14.3032px;line-height:1.25;font-family:'Brass Mono Comfortable';-inkscape-font-specification:'Brass Mono Comfortable';letter-spacing:0px;word-spacing:0px;fill:#1c5abd;fill-opacity:1;stroke:none;stroke-width:0.35758"
       id="path2473" />
    <path
       d="m 118.36061,5.5702694 c 0.27414,0 0.48869,0.214548 0.48869,0.4886926 V 6.070881 6.09472 c 0.47677,-0.35758 1.06082,-0.5125313 1.66871,-0.5125313 0.6794,0 1.28728,0.143032 1.7879,0.4767733 0.50061,0.321822 0.85819,0.8701113 0.85819,1.501836 h 0.0238 c 0,0.2622253 -0.21455,0.4767733 -0.4887,0.4767733 -0.27414,0 -0.48869,-0.214548 -0.48869,-0.4767733 0,-0.286064 -0.14303,-0.500612 -0.42909,-0.6913213 -0.28607,-0.1907094 -0.739,-0.3099027 -1.26345,-0.3099027 -0.47678,0 -0.89395,0.1549513 -1.18002,0.4052573 -0.28606,0.2622254 -0.48869,0.6317247 -0.48869,1.2038527 v 3.39701 0.03576 c 0,0.274145 -0.21455,0.488693 -0.48869,0.488693 -0.27415,0 -0.4887,-0.214548 -0.4887,-0.488693 V 11.565694 8.168684 6.0708814 6.058962 c 0,-0.2622253 0.23839,-0.4886926 0.4887,-0.4886926 z"
       style="font-style:normal;font-variant:normal;font-weight:normal;font-stretch:normal;font-size:14.3032px;line-height:1.25;font-family:'Brass Mono Comfortable';-inkscape-font-specification:'Brass Mono Comfortable';letter-spacing:0px;word-spacing:0px;fill:#1c5abd;fill-opacity:1;stroke:none;stroke-width:0.35758"
       id="path2475" />
    <path
       d="m 128.5993,5.451076 h 2.14548 c 0.27415,0 0.48869,0.214548 0.48869,0.4767734 0,0.2383866 -0.19071,0.4529346 -0.41717,0.4767733 0.21454,0.3337413 0.33374,0.7628373 0.33374,1.2396106 0,0.8105147 -0.34566,1.43032 -0.84627,1.7759807 -0.50062,0.3456606 -1.1085,0.4410153 -1.70447,0.4410153 -0.4291,0 -0.87011,-0.035758 -1.27537,-0.1907093 -0.0715,0.071516 -0.10727,0.095355 -0.14303,0.143032 0.19071,0.083435 0.75092,0.238387 1.44224,0.286064 0.57213,0 1.14426,0.07152 1.63295,0.321822 0.50061,0.262225 0.89395,0.822434 0.89395,1.489917 0,0.667482 -0.39334,1.227691 -0.89395,1.489916 -0.50061,0.250306 -1.07274,0.309903 -1.65679,0.309903 -0.58405,0 -1.16809,-0.0596 -1.66871,-0.309903 -0.50061,-0.262225 -0.89395,-0.798595 -0.89395,-1.489916 0,-0.54829 0.25031,-1.001224 0.60789,-1.299208 -0.0477,-0.03576 -0.10727,-0.0596 -0.14303,-0.107274 -0.25031,-0.190709 -0.40526,-0.619805 -0.28607,-0.9535464 0.0477,-0.1907093 0.16687,-0.3099026 0.29799,-0.4529346 -0.28607,-0.35758 -0.47678,-0.858192 -0.47678,-1.4541587 0,-0.7985953 0.33375,-1.4303199 0.83436,-1.7640613 0.50061,-0.3456606 1.13233,-0.429096 1.7283,-0.429096 z m 0,0.965466 c -0.50061,0 -0.91779,0.083435 -1.16809,0.2622253 -0.26223,0.1668707 -0.41718,0.393338 -0.41718,0.965466 0,0.572128 0.15495,0.8105147 0.41718,0.9773853 0.2503,0.1668707 0.6794,0.2741447 1.16809,0.2741447 0.48869,0 0.90587,-0.107274 1.15618,-0.2741447 0.26222,-0.1668706 0.41717,-0.4171766 0.41717,-0.9773853 0,-0.572128 -0.15495,-0.7985953 -0.41717,-0.965466 -0.25031,-0.17879 -0.65557,-0.2622253 -1.15618,-0.2622253 z m 0,4.64854 c -0.51253,0 -0.97738,0.07152 -1.22769,0.214548 -0.26223,0.143032 -0.35758,0.250306 -0.35758,0.631725 0,0.369499 0.10727,0.488692 0.3695,0.631724 0.26222,0.143032 0.71516,0.202629 1.21577,0.202629 0.50061,0 0.94163,-0.0596 1.20385,-0.202629 0.25031,-0.143032 0.3695,-0.262225 0.3695,-0.631724 0,-0.3695 -0.0953,-0.488693 -0.35758,-0.631725 -0.26222,-0.143032 -0.71516,-0.214548 -1.21577,-0.214548 z"
       style="font-style:normal;font-variant:normal;font-weight:normal;font-stretch:normal;font-size:14.3032px;line-height:1.25;font-family:'Brass Mono Comfortable';-inkscape-font-specification:'Brass Mono Comfortable';letter-spacing:0px;word-spacing:0px;fill:#1c5abd;fill-opacity:1;stroke:none;stroke-width:0.35758"
       id="path2477" />
  </g>
</svg>
