<?xml version="1.0" encoding="UTF-8" standalone="no"?>
<svg
   xmlns:dc="http://purl.org/dc/elements/1.1/"
   xmlns:cc="http://creativecommons.org/ns#"
   xmlns:rdf="http://www.w3.org/1999/02/22-rdf-syntax-ns#"
   xmlns:svg="http://www.w3.org/2000/svg"
   xmlns="http://www.w3.org/2000/svg"
   xmlns:sodipodi="http://sodipodi.sourceforge.net/DTD/sodipodi-0.dtd"
   xmlns:inkscape="http://www.inkscape.org/namespaces/inkscape"
   width="512"
   height="256"
   viewBox="0 0 135.46666 67.73334"
   version="1.1"
   id="svg2415"
   inkscape:version="1.0.1 (3bc2e81, 2020-09-07)"
   sodipodi:docname="wordmark.svg"
   inkscape:export-filename="/home/james/Code/DeviceFuture/branding/wordmark.png"
   inkscape:export-xdpi="96"
   inkscape:export-ydpi="96">
  <defs
     id="defs2409" />
  <sodipodi:namedview
     id="base"
     pagecolor="#ffffff"
     bordercolor="#666666"
     borderopacity="1.0"
     inkscape:pageopacity="0.0"
     inkscape:pageshadow="2"
     inkscape:zoom="1.4"
     inkscape:cx="151.12968"
     inkscape:cy="87.18369"
     inkscape:document-units="px"
     inkscape:current-layer="layer1"
     inkscape:document-rotation="0"
     showgrid="false"
     units="px"
     inkscape:window-width="1920"
     inkscape:window-height="1026"
     inkscape:window-x="0"
     inkscape:window-y="32"
     inkscape:window-maximized="1" />
  <metadata
     id="metadata2412">
    <rdf:RDF>
      <cc:Work
         rdf:about="">
        <dc:format>image/svg+xml</dc:format>
        <dc:type
           rdf:resource="http://purl.org/dc/dcmitype/StillImage" />
        <dc:title />
      </cc:Work>
    </rdf:RDF>
  </metadata>
  <g
     inkscape:label="Layer 1"
     inkscape:groupmode="layer"
     id="layer1">
    <g
       id="g4655"
       transform="translate(9.5813294,3.6359784)">
      <g
         aria-label="device"
         id="text4572"
         style="font-style:normal;font-weight:normal;font-size:37.7684px;line-height:1.25;font-family:sans-serif;letter-spacing:0px;word-spacing:0px;fill:#1c5abd;fill-opacity:1;stroke:none;stroke-width:0.944211"
         transform="matrix(0.90994817,0,0,0.90994817,0.25014619,0.58631479)">
        <path
           d="m 16.374432,6.5108591 h 0.03147 c 0.723895,0 1.290421,0.5665259 1.290421,1.2904202 v 20.4264087 0.03147 c 0,0.723894 -0.566526,1.29042 -1.290421,1.29042 -0.723894,0 -1.29042,-0.566526 -1.29042,-1.29042 v -0.03147 -0.09442 c -0.03147,0.03147 -0.03147,0.03147 -0.06295,0.06295 -1.384842,1.384842 -3.273261,1.825473 -5.0672604,1.825473 -1.7625252,0 -3.6509452,-0.472105 -5.0672601,-1.856946 C 3.5331702,26.74843 2.7778023,24.545273 2.7778023,21.42938 c 0,-3.084419 0.7868416,-5.319049 2.2031565,-6.70389 1.3848413,-1.416315 3.2417876,-1.856947 5.0043128,-1.856947 1.7939994,0 3.6824184,0.440632 5.0672604,1.856947 0.03147,0.03147 0.03147,0.03147 0.06295,0.06295 V 7.8012793 c 0,-0.6924206 0.566526,-1.2904202 1.258947,-1.2904202 z M 9.9852776,15.417906 c -1.3533676,0 -2.4234722,0.314737 -3.2103138,1.101579 -0.7868417,0.786841 -1.416315,2.23463 -1.416315,4.909891 0,2.675262 0.5979997,4.123051 1.3848413,4.909892 0.7868416,0.786842 1.8884199,1.101578 3.2417875,1.101578 1.3533674,0 2.4549464,-0.251789 3.2417874,-1.070104 0.818315,-0.786842 1.416315,-2.203157 1.416315,-4.941366 0,-2.706735 -0.598,-4.12305 -1.416315,-4.909891 -0.786841,-0.786842 -1.88842,-1.101579 -3.2417874,-1.101579 z"
           style="font-style:normal;font-variant:normal;font-weight:normal;font-stretch:normal;font-family:'Brass Mono Comfortable';-inkscape-font-specification:'Brass Mono Comfortable';fill:#1c5abd;fill-opacity:1;stroke-width:0.944211"
           id="path4610" />
        <path
           d="m 31.670594,12.333487 c 1.762526,0 3.650946,0.503579 5.035787,1.88842 1.416315,1.447789 2.171683,3.619472 2.171683,6.735364 0,0.692421 -0.566526,1.258947 -1.29042,1.258947 H 27.043966 c 0.188842,1.88842 0.723894,2.989998 1.353367,3.650945 0.818316,0.786842 1.88842,1.038631 3.273261,1.038631 1.353368,0 2.391999,-0.283263 3.210314,-1.101578 0.220316,-0.220316 0.629474,-0.377684 0.94421,-0.377684 0.692421,0 1.258947,0.566526 1.258947,1.29042 0,0.314737 -0.188842,0.692421 -0.409158,0.912736 -1.384841,1.384842 -3.241787,1.856947 -5.004313,1.856947 -1.762525,0 -3.682418,-0.409158 -5.06726,-1.825473 -1.353367,-1.353367 -2.108735,-3.462103 -2.171683,-6.452101 0,-0.06295 -0.03147,-0.188842 -0.03147,-0.25179 0,-0.09442 0.03147,-0.188842 0.03147,-0.283263 0.06295,-2.989998 0.818316,-5.130207 2.171683,-6.483575 1.384842,-1.416315 3.273262,-1.856946 5.06726,-1.856946 z m 0,2.580841 c -1.384841,0 -2.454945,0.283263 -3.273261,1.070104 -0.629473,0.660947 -1.195999,1.793999 -1.353367,3.682419 h 9.19031 c -0.157368,-1.88842 -0.723894,-3.021472 -1.353368,-3.682419 -0.818315,-0.786841 -1.856946,-1.070104 -3.210314,-1.070104 z"
           style="font-style:normal;font-variant:normal;font-weight:normal;font-stretch:normal;font-family:'Brass Mono Comfortable';-inkscape-font-specification:'Brass Mono Comfortable';fill:#1c5abd;fill-opacity:1;stroke-width:0.944211"
           id="path4612" />
        <path
           d="m 59.650644,12.333487 c 0.692421,0 1.227473,0.566526 1.227473,1.29042 0,0.157369 -0.03147,0.409158 -0.09442,0.566526 L 54.2057,28.731267 c -0.188842,0.409157 -0.723894,0.755368 -1.164525,0.755368 -0.472105,0 -1.007158,-0.346211 -1.196,-0.755368 L 45.298653,14.190433 c -0.09442,-0.157368 -0.125895,-0.409157 -0.125895,-0.566526 0,-0.723894 0.566526,-1.29042 1.290421,-1.29042 0.440631,0 0.975683,0.377684 1.164525,0.786842 l 5.413471,11.991466 5.381996,-11.991466 c 0.188842,-0.409158 0.723895,-0.786842 1.164526,-0.786842 z"
           style="font-style:normal;font-variant:normal;font-weight:normal;font-stretch:normal;font-family:'Brass Mono Comfortable';-inkscape-font-specification:'Brass Mono Comfortable';fill:#1c5abd;fill-opacity:1;stroke-width:0.944211"
           id="path4614" />
        <path
           d="m 76.048385,9.0287523 c 0,-1.038631 -0.786841,-1.8254726 -1.825472,-1.8254726 -1.007158,0 -1.793999,0.7868416 -1.793999,1.8254726 0,1.0071577 0.786841,1.7939987 1.793999,1.7939987 1.038631,0 1.825472,-0.786841 1.825472,-1.7939987 z m -5.476417,3.7453657 h 4.154523 c 0.723895,0 1.290421,0.566526 1.290421,1.258947 v 13.344834 h 3.17884 0.03147 c 0.723894,0 1.29042,0.566526 1.29042,1.29042 0,0.723895 -0.566526,1.290421 -1.29042,1.290421 h -0.03147 -9.505047 -0.03147 c -0.723894,0 -1.29042,-0.566526 -1.29042,-1.290421 0,-0.723894 0.566526,-1.29042 1.29042,-1.29042 h 0.03147 3.745366 V 15.323485 h -2.864103 -0.03147 c -0.723894,0 -1.29042,-0.566526 -1.29042,-1.29042 0,-0.692421 0.566526,-1.258947 1.29042,-1.258947 z"
           style="font-style:normal;font-variant:normal;font-weight:normal;font-stretch:normal;font-family:'Brass Mono Comfortable';-inkscape-font-specification:'Brass Mono Comfortable';fill:#1c5abd;fill-opacity:1;stroke-width:0.944211"
           id="path4616" />
        <path
           d="m 96.474756,12.333487 c 2.077261,0 4.311894,0.629473 5.696734,2.612314 0.15737,0.188842 0.25179,0.535053 0.25179,0.755368 0,0.723895 -0.56653,1.290421 -1.25895,1.290421 -0.37768,0 -0.84979,-0.283263 -1.0701,-0.566526 -0.818318,-1.196 -2.045791,-1.510736 -3.619474,-1.510736 -1.353368,0 -2.423473,0.283263 -3.210314,1.070104 -0.786842,0.818316 -1.447789,2.203157 -1.447789,4.909892 0,2.738209 0.660947,4.154524 1.447789,4.972839 0.786841,0.786842 1.856946,1.038631 3.210314,1.038631 1.479262,0 2.612314,-0.34621 3.430629,-1.321894 0.220315,-0.251789 0.692425,-0.440631 1.007155,-0.440631 0.7239,0 1.29042,0.566526 1.29042,1.29042 0,0.251789 -0.15737,0.629473 -0.34621,0.818315 -1.38484,1.699578 -3.462101,2.234631 -5.381994,2.234631 -1.793999,0 -3.619472,-0.409158 -5.035787,-1.825473 -1.384841,-1.384841 -2.171683,-3.619471 -2.171683,-6.766838 0,-3.115893 0.755368,-5.319049 2.140209,-6.703891 1.384842,-1.416315 3.273262,-1.856946 5.067261,-1.856946 z"
           style="font-style:normal;font-variant:normal;font-weight:normal;font-stretch:normal;font-family:'Brass Mono Comfortable';-inkscape-font-specification:'Brass Mono Comfortable';fill:#1c5abd;fill-opacity:1;stroke-width:0.944211"
           id="path4618" />
        <path
           d="m 117.27881,12.333487 c 1.76253,0 3.65094,0.503579 5.03579,1.88842 1.41631,1.447789 2.17168,3.619472 2.17168,6.735364 0,0.692421 -0.56653,1.258947 -1.29042,1.258947 h -10.54368 c 0.18884,1.88842 0.7239,2.989998 1.35337,3.650945 0.81831,0.786842 1.88842,1.038631 3.27326,1.038631 1.35337,0 2.392,-0.283263 3.21031,-1.101578 0.22032,-0.220316 0.62948,-0.377684 0.94421,-0.377684 0.69242,0 1.25895,0.566526 1.25895,1.29042 0,0.314737 -0.18884,0.692421 -0.40916,0.912736 -1.38484,1.384842 -3.24178,1.856947 -5.00431,1.856947 -1.76253,0 -3.68242,-0.409158 -5.06726,-1.825473 -1.35337,-1.353367 -2.10874,-3.462103 -2.17168,-6.452101 0,-0.06295 -0.0315,-0.188842 -0.0315,-0.25179 0,-0.09442 0.0315,-0.188842 0.0315,-0.283263 0.0629,-2.989998 0.81831,-5.130207 2.17168,-6.483575 1.38484,-1.416315 3.27326,-1.856946 5.06726,-1.856946 z m 0,2.580841 c -1.38484,0 -2.45495,0.283263 -3.27326,1.070104 -0.62947,0.660947 -1.196,1.793999 -1.35337,3.682419 h 9.19031 c -0.15737,-1.88842 -0.72389,-3.021472 -1.35337,-3.682419 -0.81831,-0.786841 -1.85694,-1.070104 -3.21031,-1.070104 z"
           style="font-style:normal;font-variant:normal;font-weight:normal;font-stretch:normal;font-family:'Brass Mono Comfortable';-inkscape-font-specification:'Brass Mono Comfortable';fill:#1c5abd;fill-opacity:1;stroke-width:0.944211"
           id="path4620" />
      </g>
      <g
         aria-label="future"
         id="text4572-3"
         style="font-style:normal;font-weight:normal;font-size:37.7685px;line-height:1.25;font-family:sans-serif;letter-spacing:0px;word-spacing:0px;fill:#db1d76;fill-opacity:1;stroke:none;stroke-width:0.944211"
         transform="matrix(0.90994817,0,0,0.90994817,0.25014619,0.58631479)">
        <path
           d="m 12.864977,34.662324 c 2.140215,0 3.839797,1.133056 3.839797,1.133056 0.346211,0.188842 0.660949,0.692422 0.660949,1.101581 0,0.723896 -0.566528,1.290424 -1.290424,1.290424 -0.220316,0 -0.535054,-0.09442 -0.723896,-0.188843 0,0 -1.227476,-0.75537 -2.486426,-0.75537 -0.629476,0 -1.133056,0.283264 -1.573688,0.975686 -0.472106,0.660949 -0.818318,1.699583 -0.818318,2.832638 h 4.689589 0.03147 c 0.723896,0 1.290424,0.566527 1.290424,1.290424 0,0.692422 -0.566528,1.25895 -1.290424,1.25895 h -0.03147 -4.689589 v 13.754029 c 0,0.723896 -0.5665271,1.290424 -1.2589496,1.290424 -0.7238963,0 -1.2904238,-0.566528 -1.2904238,-1.290424 V 43.60087 H 4.209695 4.1782212 c -0.7238962,0 -1.2904238,-0.566528 -1.2904238,-1.25895 0,-0.723897 0.5665276,-1.290424 1.2904238,-1.290424 h 0.031474 3.7139026 c 0,-1.605161 0.4406325,-3.115901 1.2274763,-4.28043 0.8497909,-1.196003 2.1716889,-2.108742 3.7139029,-2.108742 z"
           style="font-style:normal;font-variant:normal;font-weight:normal;font-stretch:normal;font-family:'Brass Mono Comfortable';-inkscape-font-specification:'Brass Mono Comfortable';fill:#db1d76;fill-opacity:1;stroke-width:0.944211"
           id="path4623" />
        <path
           d="m 25.80065,40.925601 c 0.723897,0 1.290424,0.566527 1.290424,1.290424 v 0.03147 7.899912 c 0,2.26611 0.50358,3.588008 1.133055,4.311904 0.660949,0.692422 1.636635,1.038634 3.304744,1.038634 1.699583,0 2.675269,-0.283264 3.304744,-1.00716 0.660949,-0.723897 1.133055,-2.01432 1.133055,-4.343378 v -7.899912 l -0.03147,-0.03147 c 0,-0.723897 0.566528,-1.290424 1.290424,-1.290424 0.723896,0 1.290424,0.566527 1.290424,1.290424 v 0.03147 7.899912 c 0,2.675269 -0.50358,4.689589 -1.794004,6.074434 -1.290424,1.384845 -3.115901,1.856951 -5.193169,1.856951 -2.077267,0 -3.965692,-0.50358 -5.224643,-1.888425 -1.25895,-1.416319 -1.76253,-3.430639 -1.76253,-6.04296 v -7.899912 -0.03147 c 0,-0.692423 0.598002,-1.290424 1.25895,-1.290424 z"
           style="font-style:normal;font-variant:normal;font-weight:normal;font-stretch:normal;font-family:'Brass Mono Comfortable';-inkscape-font-specification:'Brass Mono Comfortable';fill:#db1d76;fill-opacity:1;stroke-width:0.944211"
           id="path4625" />
        <path
           d="m 51.577615,35.008536 h 0.06295 c 0.692423,0 1.25895,0.566527 1.25895,1.290424 v 0.03147 5.098748 h 6.389172 0.03147 c 0.723896,0 1.290423,0.566527 1.290423,1.290424 0,0.723896 -0.566527,1.290424 -1.290423,1.290424 h -0.03147 -6.389172 v 9.001492 c 0,1.038634 0.188843,1.76253 0.629475,2.203163 0.409159,0.440632 1.227477,0.818317 3.02148,0.818317 h 1.447793 c 0.723896,0 1.290424,0.566528 1.290424,1.290424 0,0.723897 -0.566528,1.290424 -1.290424,1.290424 H 56.55047 c -2.203162,0 -3.871271,-0.535054 -4.909905,-1.668109 -1.070107,-1.133055 -1.290423,-2.549374 -1.290423,-3.934219 v -9.001492 h -3.808324 c -0.723897,0 -1.290424,-0.566528 -1.290424,-1.290424 0,-0.723897 0.566527,-1.290424 1.290424,-1.290424 h 3.808324 V 36.33043 36.29896 c 0,-0.692423 0.566527,-1.290424 1.227476,-1.290424 z"
           style="font-style:normal;font-variant:normal;font-weight:normal;font-stretch:normal;font-family:'Brass Mono Comfortable';-inkscape-font-specification:'Brass Mono Comfortable';fill:#db1d76;fill-opacity:1;stroke-width:0.944211"
           id="path4627" />
        <path
           d="m 68.604874,40.925601 c 0.723897,0 1.290424,0.566527 1.290424,1.290424 v 0.03147 7.899912 c 0,2.26611 0.50358,3.588008 1.133055,4.311904 0.660949,0.692422 1.636635,1.038634 3.304744,1.038634 1.699583,0 2.675269,-0.283264 3.304744,-1.00716 0.660949,-0.723897 1.133055,-2.01432 1.133055,-4.343378 v -7.899912 l -0.03147,-0.03147 c 0,-0.723897 0.566528,-1.290424 1.290424,-1.290424 0.723896,0 1.290424,0.566527 1.290424,1.290424 v 0.03147 7.899912 c 0,2.675269 -0.50358,4.689589 -1.794004,6.074434 -1.290424,1.384845 -3.115901,1.856951 -5.193169,1.856951 -2.077267,0 -3.965692,-0.50358 -5.224643,-1.888425 -1.25895,-1.416319 -1.76253,-3.430639 -1.76253,-6.04296 v -7.899912 -0.03147 c 0,-0.692423 0.598002,-1.290424 1.25895,-1.290424 z"
           style="font-style:normal;font-variant:normal;font-weight:normal;font-stretch:normal;font-family:'Brass Mono Comfortable';-inkscape-font-specification:'Brass Mono Comfortable';fill:#db1d76;fill-opacity:1;stroke-width:0.944211"
           id="path4629" />
        <path
           d="m 90.006989,40.862653 c 0.723897,0 1.290424,0.566528 1.290424,1.290424 v 0.03147 0.06295 c 1.25895,-0.944212 2.801164,-1.353371 4.406325,-1.353371 1.794004,0 3.399165,0.377685 4.721062,1.25895 1.3219,0.849792 2.26611,2.297584 2.26611,3.965693 h 0.063 c 0,0.692422 -0.56653,1.25895 -1.29043,1.25895 -0.72389,0 -1.29042,-0.566528 -1.29042,-1.25895 0,-0.75537 -0.377684,-1.321898 -1.133054,-1.825478 -0.75537,-0.50358 -1.951373,-0.818317 -3.336218,-0.818317 -1.25895,0 -2.360531,0.409159 -3.115901,1.070107 -0.75537,0.692423 -1.290424,1.668109 -1.290424,3.178849 v 8.970019 0.09442 c 0,0.723897 -0.566527,1.290424 -1.290424,1.290424 -0.723896,0 -1.290423,-0.566527 -1.290423,-1.290424 v -0.09442 -8.970019 -5.53938 -0.03147 c 0,-0.692422 0.629475,-1.290424 1.290423,-1.290424 z"
           style="font-style:normal;font-variant:normal;font-weight:normal;font-stretch:normal;font-family:'Brass Mono Comfortable';-inkscape-font-specification:'Brass Mono Comfortable';fill:#db1d76;fill-opacity:1;stroke-width:0.944211"
           id="path4631" />
        <path
           d="m 117.1688,40.925601 c 1.76253,0 3.65096,0.50358 5.0358,1.888425 1.41632,1.447793 2.17169,3.619481 2.17169,6.735383 0,0.692422 -0.56653,1.25895 -1.29042,1.25895 h -10.54371 c 0.18884,1.888425 0.7239,2.990006 1.35337,3.650955 0.81832,0.786844 1.88843,1.038634 3.27327,1.038634 1.35337,0 2.39201,-0.283264 3.21032,-1.101582 0.22032,-0.220316 0.62948,-0.377685 0.94422,-0.377685 0.69242,0 1.25895,0.566528 1.25895,1.290424 0,0.314738 -0.18885,0.692423 -0.40916,0.912739 -1.38485,1.384845 -3.2418,1.856951 -5.00433,1.856951 -1.76253,0 -3.68243,-0.409158 -5.06727,-1.825477 -1.35337,-1.353372 -2.10874,-3.462113 -2.17169,-6.452119 0,-0.06295 -0.0315,-0.188843 -0.0315,-0.25179 0,-0.09442 0.0315,-0.188843 0.0315,-0.283264 0.063,-2.990006 0.81832,-5.130221 2.17169,-6.483593 1.38484,-1.416319 3.27327,-1.856951 5.06727,-1.856951 z m 0,2.580848 c -1.38484,0 -2.45495,0.283263 -3.27327,1.070107 -0.62947,0.660949 -1.196,1.794004 -1.35337,3.682429 h 9.19033 c -0.15736,-1.888425 -0.72389,-3.02148 -1.35337,-3.682429 -0.81831,-0.786844 -1.85695,-1.070107 -3.21032,-1.070107 z"
           style="font-style:normal;font-variant:normal;font-weight:normal;font-stretch:normal;font-family:'Brass Mono Comfortable';-inkscape-font-specification:'Brass Mono Comfortable';fill:#db1d76;fill-opacity:1;stroke-width:0.944211"
           id="path4633" />
      </g>
    </g>
    <g
       aria-label="TM"
       id="text4594"
       style="font-style:normal;font-weight:normal;font-size:7.7646px;line-height:1.25;font-family:sans-serif;letter-spacing:0px;word-spacing:0px;fill:#db1d76;fill-opacity:1;stroke:none;stroke-width:0.194115"
       transform="matrix(0.90994817,0,0,0.90994817,9.8038903,4.2222932)">
      <path
         d="m 126.7166,33.976204 h 0.0453 1.28115 c 0.14883,0 0.26529,0.116469 0.26529,0.26529 0,0.148822 -0.11646,0.265291 -0.26529,0.265291 h -1.05469 l -0.006,4.044062 c 0,0.148821 -0.11647,0.26529 -0.26529,0.26529 -0.14882,0 -0.26529,-0.116469 -0.26529,-0.26529 l 0.006,-4.044062 h -1.08057 -0.006 c -0.14882,0 -0.26529,-0.116469 -0.26529,-0.265291 0,-0.148821 0.11647,-0.26529 0.26529,-0.26529 h 0.006 1.30057 z"
         style="font-style:normal;font-variant:normal;font-weight:normal;font-stretch:normal;font-family:'Brass Mono Comfortable';-inkscape-font-specification:'Brass Mono Comfortable';fill:#db1d76;fill-opacity:1;stroke-width:0.194115"
         id="path4636" />
      <path
         d="m 132.4171,33.950322 h 0.006 c 0.14883,0 0.2653,0.116469 0.2653,0.26529 v 4.335235 c 0,0.148821 -0.11647,0.26529 -0.2653,0.26529 -0.14235,0 -0.25882,-0.116469 -0.25882,-0.26529 v -3.358189 l -0.82822,1.410568 c -0.0388,0.07118 -0.14235,0.135881 -0.23294,0.135881 -0.0841,0 -0.18117,-0.0647 -0.21999,-0.135881 l -0.82823,-1.410568 v 3.358189 c 0,0.148821 -0.11647,0.26529 -0.25882,0.26529 -0.14882,0 -0.26529,-0.116469 -0.26529,-0.26529 v -4.335235 c 0,-0.148821 0.11647,-0.26529 0.26529,-0.26529 0.0841,0 0.18118,0.05823 0.22,0.12941 l 1.08704,1.863503 1.08705,-1.863503 c 0.0388,-0.07118 0.14882,-0.12941 0.22646,-0.12941 z"
         style="font-style:normal;font-variant:normal;font-weight:normal;font-stretch:normal;font-family:'Brass Mono Comfortable';-inkscape-font-specification:'Brass Mono Comfortable';fill:#db1d76;fill-opacity:1;stroke-width:0.194115"
         id="path4638" />
    </g>
  </g>
</svg>
